{
.appVersion = "1352";
copyright = "Copyright 2020 The Koh Santepheap Project Authors (https://github.com/danhhong/KohSantepheap)";
customParameters = (
{
name = fsType;
value = (
);
},
{
name = "Use Typo Metrics";
value = 1;
},
{
name = license;
value = "This Font Software is licensed under the SIL Open Font License, Version 1.1. This license is available with a FAQ at: https://scripts.sil.org/OFL";
},
{
name = licenseURL;
value = "https://scripts.sil.org/OFL";
}
);
date = "2020-04-04 10:30:38 +0000";
designer = "Danh Hong";
designerURL = "http://www.nextspell.com/";
disablesAutomaticAlignment = 1;
disablesNiceNames = 1;
familyName = "Koh Santepheap";
featurePrefixes = (
{
code = "lookup lookup_0 {\012sub uni17B7 by uni17B7.r;\012sub uni17B8 by uni17B8.r;\012sub uni17B9 by uni17B9.r;\012sub uni17BA by uni17BA.r;\012sub uni17C6 by uni17C6.r;\012sub uni17C9 by uni17C9.r;\012sub uni17CD by uni17CD.r;\012sub uni17B717CD by uni17B717CD.r;\012} lookup_0;\012";
name = lookup_0;
},
{
code = "lookup lookup_1 {\012sub uni17BB by uni17BB.b;\012sub uni17BC by uni17BC.b;\012sub uni17BD by uni17BD.b;\012} lookup_1;\012";
name = lookup_1;
},
{
code = "lookup lookup_10 {\012sub uni17D21798 by uni17D21798.b;\012sub uni17D217A0 by uni17D217A0.b;\012} lookup_10;\012";
name = lookup_10;
},
{

glyphs = (
{
glyphname = glyph36;
lastChange = "2021-04-16 11:25:06 +0000";
layers = (
{
layerId = "0DE963AB-769B-4021-B20D-45864FAF5663";
paths = (
{
closed = 1;
nodes = (
"342 41 LINE SMOOTH",
"291 41 OFFCURVE",
"260 46 OFFCURVE",
"248 56 CURVE SMOOTH",
"236 65 OFFCURVE",
"230 79 OFFCURVE",
"230 98 CURVE SMOOTH",
"230 141 OFFCURVE",
"273 258 OFFCURVE",
"287 301 CURVE SMOOTH",
"361 514 LINE",
"953 514 LINE",
"1026 301 LINE SMOOTH",
"1040 259 OFFCURVE",
"1084 139 OFFCURVE",
"1084 98 CURVE SMOOTH",
"1084 79 OFFCURVE",
"1078 65 OFFCURVE",
"1067 56 CURVE SMOOTH",
"1055 46 OFFCURVE",
"1023 41 OFFCURVE",
"971 41 CURVE SMOOTH",
"901 41 LINE",
"901 0 LINE",
"1321 0 LINE",
"1321 41 LINE",
"1276 41 LINE SMOOTH",
"1184 41 OFFCURVE",
"1174 52 OFFCURVE",
"1143 139 CURVE SMOOTH",
"686 1462 LINE",
"627 1462 LINE",
"170 139 LINE",
"143 52 OFFCURVE",
"127 41 OFFCURVE",
"37 41 CURVE SMOOTH",
"-8 41 LINE",
"-8 0 LINE",
"451 0 LINE",
"451 41 LINE"
);
},
{
closed = 1;
nodes = (
"565 1114 OFFCURVE",
"602 1224 OFFCURVE",
"628 1298 CURVE SMOOTH",
"642 1339 OFFCURVE",
"652 1371 OFFCURVE",
"658 1393 CURVE",
"675 1340 OFFCURVE",
"710 1232 OFFCURVE",
"736 1157 CURVE SMOOTH",
"751 1112 OFFCURVE",
"764 1071 OFFCURVE",
"776 1034 CURVE SMOOTH",
"934 565 LINE",
"377 565 LINE",
"545 1055 LINE SMOOTH"
);
}
);
width = 1320;
},
{
layerId = "8C5547AF-2EE0-40C3-888E-C5581C9C595C";
paths = (
{
closed = 1;
nodes = (
"402 66 LINE SMOOTH",
"309 66 OFFCURVE",
"277 90 OFFCURVE",
"277 145 CURVE SMOOTH",
"277 181 OFFCURVE",
"300 251 OFFCURVE",
"313 287 CURVE SMOOTH",
"389 500 LINE",
"952 500 LINE",
"1030 279 LINE SMOOTH",
"1043 246 OFFCURVE",
"1065 178 OFFCURVE",
"1065 145 CURVE SMOOTH",
"1065 90 OFFCURVE",
"1039 66 OFFCURVE",
"948 66 CURVE SMOOTH",
"891 66 LINE",
"891 0 LINE",
"1389 0 LINE",
"1389 66 LINE",
"1354 66 LINE SMOOTH",
"1266 66 OFFCURVE",
"1242 82 OFFCURVE",
"1213 170 CURVE SMOOTH",
"754 1462 LINE",
"639 1462 LINE",
"184 197 LINE SMOOTH",
"157 120 OFFCURVE",
"139 87 OFFCURVE",
"107 75 CURVE SMOOTH",
"90 69 OFFCURVE",
"68 66 OFFCURVE",
"39 66 CURVE SMOOTH",
"-4 66 LINE",
"-4 0 LINE",
"477 0 LINE",
"477 66 LINE"
);
},
{
closed = 1;
nodes = (
"610 1117 OFFCURVE",
"655 1246 OFFCURVE",
"674 1327 CURVE",
"698 1234 OFFCURVE",
"742 1104 OFFCURVE",
"782 989 CURVE SMOOTH",
"924 580 LINE",
"418 580 LINE",
"571 1008 LINE SMOOTH"
);
}
);
width = 1388;
},
{
layerId = "7FEA46FF-516C-4946-9F17-9EEA76F5F564";
paths = (
{
closed = 1;
nodes = (
"1045 229 OFFCURVE",
"1051 207 OFFCURVE",
"1051 184 CURVE SMOOTH",
"1051 119 OFFCURVE",
"1010 86 OFFCURVE",
"928 86 CURVE SMOOTH",
"881 86 LINE",
"881 0 LINE",
"1444 0 LINE",
"1444 86 LINE",
"1417 86 LINE SMOOTH",
"1334 86 OFFCURVE",
"1303 112 OFFCURVE",
"1272 195 CURVE SMOOTH",
"809 1462 LINE",
"649 1462 LINE",
"195 246 LINE SMOOTH",
"149 127 OFFCURVE",
"126 86 OFFCURVE",
"39 86 CURVE SMOOTH",
"0 86 LINE",
"0 0 LINE",
"500 0 LINE",
"500 86 LINE",
"453 86 LINE SMOOTH",
"361 86 OFFCURVE",
"317 117 OFFCURVE",
"317 186 CURVE SMOOTH",
"317 209 OFFCURVE",
"324 242 OFFCURVE",
"336 274 CURVE SMOOTH",
"414 489 LINE",
"952 489 LINE",
"1034 260 LINE SMOOTH"
);
},
{
closed = 1;
nodes = (
"592 969 LINE SMOOTH",
"630 1070 OFFCURVE",
"670 1190 OFFCURVE",
"686 1274 CURVE",
"709 1175 OFFCURVE",
"745 1071 OFFCURVE",
"788 950 CURVE SMOOTH",
"915 592 LINE",
"453 592 LINE"
);
}
);
width = 1444;
},
{
layerId = "3CCD85FA-69E6-46C4-A32D-64775BF55ABF";
paths = (
{
closed = 1;
nodes = (
"1024 253 OFFCURVE",
"1034 221 OFFCURVE",
"1034 188 CURVE SMOOTH",
"1034 135 OFFCURVE",
"991 109 OFFCURVE",
"946 109 CURVE SMOOTH",
"866 109 LINE",
"866 0 LINE",
"1542 0 LINE",
"1542 109 LINE",
"1505 109 LINE SMOOTH",
"1430 109 OFFCURVE",
"1386 153 OFFCURVE",
"1350 256 CURVE SMOOTH",
"922 1462 LINE",
"641 1462 LINE",
"197 258 LINE SMOOTH",
"154 147 OFFCURVE",
"115 109 OFFCURVE",
"33 109 CURVE SMOOTH",
"8 109 LINE",
"8 0 LINE",
"541 0 LINE",
"541 109 LINE",
"455 109 LINE SMOOTH",
"406 109 OFFCURVE",
"362 137 OFFCURVE",
"362 188 CURVE SMOOTH",
"362 221 OFFCURVE",
"376 272 OFFCURVE",
"387 305 CURVE SMOOTH",
"446 481 LINE",
"944 481 LINE",
"1016 276 LINE SMOOTH"
);
},
{
closed = 1;
nodes = (
"610 952 LINE SMOOTH",
"636 1030 OFFCURVE",
"688 1177 OFFCURVE",
"709 1249 CURVE",
"727 1168 OFFCURVE",
"771 1020 OFFCURVE",
"795 942 CURVE SMOOTH",
"903 606 LINE",
"489 606 LINE"
);
}
);
width = 1542;
},
{
layerId = "6A9350D6-C757-41BD-9D0D-806F72644A83";
paths = (
{
closed = 1;
nodes = (
"471 125 LINE SMOOTH",
"414 125 OFFCURVE",
"395 150 OFFCURVE",
"395 190 CURVE SMOOTH",
"395 229 OFFCURVE",
"415 295 OFFCURVE",
"424 328 CURVE SMOOTH",
"471 475 LINE",
"938 475 LINE",
"1001 289 LINE SMOOTH",
"1004 280 OFFCURVE",
"1008 266 OFFCURVE",
"1015 247 CURVE SMOOTH",
"1021 227 OFFCURVE",
"1024 207 OFFCURVE",
"1024 188 CURVE SMOOTH",
"1024 137 OFFCURVE",
"981 125 OFFCURVE",
"938 125 CURVE SMOOTH",
"856 125 LINE",
"856 0 LINE",
"1613 0 LINE",
"1613 125 LINE",
"1591 125 LINE SMOOTH",
"1515 125 OFFCURVE",
"1459 166 OFFCURVE",
"1423 262 CURVE SMOOTH",
"1005 1462 LINE",
"635 1462 LINE",
"198 266 LINE SMOOTH",
"155 149 OFFCURVE",
"100 125 OFFCURVE",
"28 125 CURVE SMOOTH",
"14 125 LINE",
"14 0 LINE",
"571 0 LINE",
"571 125 LINE"
);
},
{
closed = 1;
nodes = (
"666 1078 OFFCURVE",
"693 1162 OFFCURVE",
"714 1249 CURVE",
"723 1204 OFFCURVE",
"733 1162 OFFCURVE",
"745 1122 CURVE SMOOTH",
"756 1081 OFFCURVE",
"767 1043 OFFCURVE",
"776 1008 CURVE SMOOTH",
"893 616 LINE",
"516 616 LINE",
"645 1010 LINE SMOOTH"
);
}
);
width = 1613;
}
);
note = glyph36;
unicode = 0041;
},
{
glyphname = glyph37;
lastChange = "2021-04-16 11:25:06 +0000";
layers = (
{
layerId = "0DE963AB-769B-4021-B20D-45864FAF5663";
paths = (
{
closed = 1;
nodes = (
"952 0 OFFCURVE",
"1103 123 OFFCURVE",
"1103 410 CURVE SMOOTH",
"1103 637 OFFCURVE",
"992 764 OFFCURVE",
"792 772 CURVE",
"792 776 LINE",
"883 796 OFFCURVE",
"960 840 OFFCURVE",
"1007 929 CURVE SMOOTH",
"1030 973 OFFCURVE",
"1042 1033 OFFCURVE",
"1042 1108 CURVE SMOOTH",
"1042 1361 OFFCURVE",
"902 1462 OFFCURVE",
"593 1462 CURVE SMOOTH",
"106 1462 LINE",
"106 1421 LINE",
"190 1421 LINE SMOOTH",
"258 1421 OFFCURVE",
"288 1410 OFFCURVE",
"298 1358 CURVE SMOOTH",
"303 1332 OFFCURVE",
"305 1293 OFFCURVE",
"305 1241 CURVE SMOOTH",
"305 221 LINE SMOOTH",
"305 135 OFFCURVE",
"301 72 OFFCURVE",
"266 54 CURVE SMOOTH",
"249 45 OFFCURVE",
"224 41 OFFCURVE",
"190 41 CURVE SMOOTH",
"106 41 LINE",
"106 0 LINE",
"655 0 LINE SMOOTH"
);
},
{
closed = 1;
nodes = (
"875 1411 OFFCURVE",
"985 1323 OFFCURVE",
"985 1112 CURVE SMOOTH",
"985 979 OFFCURVE",
"942 883 OFFCURVE",
"826 833 CURVE SMOOTH",
"768 808 OFFCURVE",
"688 795 OFFCURVE",
"587 795 CURVE SMOOTH",
"362 795 LINE",
"362 1411 LINE",
"583 1411 LINE SMOOTH"
);
},
{
closed = 1;
nodes = (
"850 743 OFFCURVE",
"962 693 OFFCURVE",
"1010 592 CURVE SMOOTH",
"1034 541 OFFCURVE",
"1046 478 OFFCURVE",
"1046 403 CURVE SMOOTH",
"1046 176 OFFCURVE",
"937 51 OFFCURVE",
"645 51 CURVE SMOOTH",
"362 51 LINE",
"362 743 LINE",
"649 743 LINE SMOOTH"
);
}
);
width = 1273;
},
{
layerId = "8C5547AF-2EE0-40C3-888E-C5581C9C595C";
paths = (
{
closed = 1;
nodes = (
"1001 0 OFFCURVE",
"1163 129 OFFCURVE",
"1163 401 CURVE SMOOTH",
"1163 622 OFFCURVE",
"1043 749 OFFCURVE",
"850 768 CURVE",
"850 774 LINE",
"991 815 OFFCURVE",
"1102 899 OFFCURVE",
"1102 1102 CURVE SMOOTH",
"1102 1353 OFFCURVE",
"945 1462 OFFCURVE",
"612 1462 CURVE SMOOTH",
"90 1462 LINE",
"90 1397 LINE",
"143 1397 LINE SMOOTH",
"239 1397 OFFCURVE",
"287 1375 OFFCURVE",
"287 1239 CURVE SMOOTH",
"287 227 LINE SMOOTH",
"287 86 OFFCURVE",
"239 66 OFFCURVE",
"143 66 CURVE SMOOTH",
"90 66 LINE",
"90 0 LINE",
"674 0 LINE SMOOTH"
);
},
{
closed = 1;
nodes = (
"859 1382 OFFCURVE",
"956 1305 OFFCURVE",
"956 1104 CURVE SMOOTH",
"956 904 OFFCURVE",
"874 807 OFFCURVE",
"606 807 CURVE SMOOTH",
"426 807 LINE",
"426 1382 LINE",
"602 1382 LINE SMOOTH"
);
},
{
closed = 1;
nodes = (
"935 727 OFFCURVE",
"1018 622 OFFCURVE",
"1018 401 CURVE SMOOTH",
"1018 181 OFFCURVE",
"920 80 OFFCURVE",
"663 80 CURVE SMOOTH",
"426 80 LINE",
"426 727 LINE",
"668 727 LINE SMOOTH"
);
}
);
width = 1308;
},
{
layerId = "7FEA46FF-516C-4946-9F17-9EEA76F5F564";
paths = (
{
closed = 1;
nodes = (
"1153 1348 OFFCURVE",
"982 1462 OFFCURVE",
"627 1462 CURVE SMOOTH",
"78 1462 LINE",
"78 1376 LINE",
"104 1376 LINE SMOOTH",
"203 1376 OFFCURVE",
"272 1352 OFFCURVE",
"272 1237 CURVE SMOOTH",
"272 233 LINE SMOOTH",
"272 113 OFFCURVE",
"207 86 OFFCURVE",
"104 86 CURVE SMOOTH",
"78 86 LINE",
"78 0 LINE",
"688 0 LINE SMOOTH",
"1043 0 OFFCURVE",
"1214 131 OFFCURVE",
"1214 395 CURVE SMOOTH",
"1214 503 OFFCURVE",
"1182 588 OFFCURVE",
"1127 650 CURVE SMOOTH",
"1071 712 OFFCURVE",
"992 750 OFFCURVE",
"899 766 CURVE",
"899 774 LINE",
"1050 824 OFFCURVE",
"1153 918 OFFCURVE",
"1153 1096 CURVE SMOOTH"
);
},
{
closed = 1;
nodes = (
"732 1360 OFFCURVE",
"811 1344 OFFCURVE",
"862 1303 CURVE SMOOTH",
"913 1262 OFFCURVE",
"934 1196 OFFCURVE",
"934 1096 CURVE SMOOTH",
"934 997 OFFCURVE",
"915 927 OFFCURVE",
"867 883 CURVE SMOOTH",
"819 838 OFFCURVE",
"741 817 OFFCURVE",
"621 817 CURVE SMOOTH",
"479 817 LINE",
"479 1360 LINE",
"616 1360 LINE SMOOTH"
);
},
{
closed = 1;
nodes = (
"802 715 OFFCURVE",
"880 690 OFFCURVE",
"929 638 CURVE SMOOTH",
"977 586 OFFCURVE",
"995 508 OFFCURVE",
"995 401 CURVE SMOOTH",
"995 292 OFFCURVE",
"974 217 OFFCURVE",
"923 170 CURVE SMOOTH",
"872 122 OFFCURVE",
"794 102 OFFCURVE",
"678 102 CURVE SMOOTH",
"479 102 LINE",
"479 715 LINE",
"682 715 LINE SMOOTH"
);
}
);
width = 1339;
},
{
layerId = "3CCD85FA-69E6-46C4-A32D-64775BF55ABF";
paths = (
{
closed = 1;
nodes = (
"1241 1346 OFFCURVE",
"1044 1462 OFFCURVE",
"655 1462 CURVE SMOOTH",
"57 1462 LINE",
"57 1354 LINE",
"141 1354 LINE SMOOTH",
"209 1354 OFFCURVE",
"248 1320 OFFCURVE",
"248 1223 CURVE SMOOTH",
"248 242 LINE SMOOTH",
"248 137 OFFCURVE",
"212 109 OFFCURVE",
"141 109 CURVE SMOOTH",
"57 109 LINE",
"57 0 LINE",
"717 0 LINE SMOOTH",
"1106 0 OFFCURVE",
"1303 132 OFFCURVE",
"1303 401 CURVE SMOOTH",
"1303 501 OFFCURVE",
"1270 581 OFFCURVE",
"1214 642 CURVE SMOOTH",
"1157 702 OFFCURVE",
"1078 744 OFFCURVE",
"983 768 CURVE",
"983 778 LINE",
"1060 802 OFFCURVE",
"1125 836 OFFCURVE",
"1170 885 CURVE SMOOTH",
"1215 933 OFFCURVE",
"1241 999 OFFCURVE",
"1241 1090 CURVE SMOOTH"
);
},
{
closed = 1;
nodes = (
"829 1337 OFFCURVE",
"897 1275 OFFCURVE",
"897 1090 CURVE SMOOTH",
"897 997 OFFCURVE",
"883 931 OFFCURVE",
"845 889 CURVE SMOOTH",
"807 847 OFFCURVE",
"745 827 OFFCURVE",
"649 827 CURVE SMOOTH",
"571 827 LINE",
"571 1337 LINE",
"645 1337 LINE SMOOTH"
);
},
{
closed = 1;
nodes = (
"806 702 OFFCURVE",
"866 678 OFFCURVE",
"905 630 CURVE SMOOTH",
"944 582 OFFCURVE",
"958 508 OFFCURVE",
"958 408 CURVE SMOOTH",
"958 304 OFFCURVE",
"941 233 OFFCURVE",
"901 189 CURVE SMOOTH",
"861 144 OFFCURVE",
"798 125 OFFCURVE",
"707 125 CURVE SMOOTH",
"571 125 LINE",
"571 702 LINE",
"711 702 LINE SMOOTH"
);
}
);
width = 1376;
},
{
layerId = "6A9350D6-C757-41BD-9D0D-806F72644A83";
paths = (
{
closed = 1;
nodes = (
"1205 0 OFFCURVE",
"1413 135 OFFCURVE",
"1413 406 CURVE SMOOTH",
"1413 621 OFFCURVE",
"1262 731 OFFCURVE",
"1047 770 CURVE",
"1047 780 LINE",
"1155 808 OFFCURVE",
"1254 859 OFFCURVE",
"1311 947 CURVE SMOOTH",
"1340 990 OFFCURVE",
"1354 1043 OFFCURVE",
"1354 1106 CURVE SMOOTH",
"1354 1362 OFFCURVE",
"1127 1462 OFFCURVE",
"715 1462 CURVE SMOOTH",
"43 1462 LINE",
"43 1337 LINE",
"143 1337 LINE SMOOTH",
"182 1337 OFFCURVE",
"231 1312 OFFCURVE",
"231 1225 CURVE SMOOTH",
"231 238 LINE SMOOTH",
"231 169 OFFCURVE",
"208 125 OFFCURVE",
"149 125 CURVE SMOOTH",
"43 125 LINE",
"43 0 LINE",
"776 0 LINE SMOOTH"
);
},
{
closed = 1;
nodes = (
"843 1321 OFFCURVE",
"928 1261 OFFCURVE",
"928 1085 CURVE SMOOTH",
"928 905 OFFCURVE",
"849 836 OFFCURVE",
"696 836 CURVE SMOOTH",
"639 836 LINE",
"639 1321 LINE",
"692 1321 LINE SMOOTH"
);
},
{
closed = 1;
nodes = (
"901 694 OFFCURVE",
"977 600 OFFCURVE",
"977 412 CURVE SMOOTH",
"977 212 OFFCURVE",
"890 141 OFFCURVE",
"745 141 CURVE SMOOTH",
"639 141 LINE",
"639 694 LINE",
"750 694 LINE SMOOTH"
);
}
);
width = 1474;
}
);
note = glyph37;
unicode = 0042;
},
{
glyphname = glyph38;
lastChange = "2021-04-16 11:25:06 +0000";
layers = (
{
layerId = "0DE963AB-769B-4021-B20D-45864FAF5663";
paths = (
{
closed = 1;
nodes = (
"794 -20 OFFCURVE",
"888 16 OFFCURVE",
"952 62 CURVE SMOOTH",
"1003 99 OFFCURVE",
"1044 150 OFFCURVE",
"1044 176 CURVE SMOOTH",
"1044 201 OFFCURVE",
"1035 218 OFFCURVE",
"1017 227 CURVE",
"968 120 OFFCURVE",
"862 31 OFFCURVE",
"661 31 CURVE SMOOTH",
"330 31 OFFCURVE",
"173 302 OFFCURVE",
"173 733 CURVE SMOOTH",
"173 1017 OFFCURVE",
"247 1231 OFFCURVE",
"389 1346 CURVE SMOOTH",
"460 1403 OFFCURVE",
"547 1432 OFFCURVE",
"651 1432 CURVE SMOOTH",
"842 1432 OFFCURVE",
"940 1388 OFFCURVE",
"982 1308 CURVE SMOOTH",
"1003 1267 OFFCURVE",
"1013 1219 OFFCURVE",
"1013 1163 CURVE",
"1042 1163 OFFCURVE",
"1056 1192 OFFCURVE",
"1056 1249 CURVE SMOOTH",
"1056 1326 OFFCURVE",
"1007 1401 OFFCURVE",
"892 1448 CURVE SMOOTH",
"835 1471 OFFCURVE",
"758 1483 OFFCURVE",
"663 1483 CURVE SMOOTH",
"306 1483 OFFCURVE",
"116 1202 OFFCURVE",
"116 733 CURVE SMOOTH",
"116 422 OFFCURVE",
"197 192 OFFCURVE",
"358 71 CURVE SMOOTH",
"438 10 OFFCURVE",
"540 -20 OFFCURVE",
"663 -20 CURVE SMOOTH"
);
}
);
width = 1126;
},
{
layerId = "8C5547AF-2EE0-40C3-888E-C5581C9C595C";
paths = (
{
closed = 1;
nodes = (
"895 -20 OFFCURVE",
"1014 38 OFFCURVE",
"1073 106 CURVE SMOOTH",
"1102 139 OFFCURVE",
"1117 169 OFFCURVE",
"1117 195 CURVE SMOOTH",
"1117 225 OFFCURVE",
"1106 247 OFFCURVE",
"1085 260 CURVE",
"1025 161 OFFCURVE",
"923 76 OFFCURVE",
"720 76 CURVE SMOOTH",
"513 76 OFFCURVE",
"378 191 OFFCURVE",
"314 388 CURVE SMOOTH",
"282 486 OFFCURVE",
"266 601 OFFCURVE",
"266 733 CURVE SMOOTH",
"266 1152 OFFCURVE",
"405 1401 OFFCURVE",
"716 1401 CURVE SMOOTH",
"867 1401 OFFCURVE",
"949 1349 OFFCURVE",
"985 1269 CURVE SMOOTH",
"1002 1228 OFFCURVE",
"1011 1184 OFFCURVE",
"1011 1135 CURVE",
"1079 1135 OFFCURVE",
"1128 1178 OFFCURVE",
"1128 1251 CURVE SMOOTH",
"1128 1374 OFFCURVE",
"1003 1483 OFFCURVE",
"722 1483 CURVE SMOOTH",
"458 1483 OFFCURVE",
"276 1354 OFFCURVE",
"185 1130 CURVE SMOOTH",
"139 1017 OFFCURVE",
"116 885 OFFCURVE",
"116 733 CURVE SMOOTH",
"116 428 OFFCURVE",
"203 197 OFFCURVE",
"378 73 CURVE SMOOTH",
"465 11 OFFCURVE",
"574 -20 OFFCURVE",
"704 -20 CURVE SMOOTH"
);
}
);
width = 1198;
},
{
layerId = "7FEA46FF-516C-4946-9F17-9EEA76F5F564";
paths = (
{
closed = 1;
nodes = (
"558 1483 OFFCURVE",
"394 1406 OFFCURVE",
"284 1274 CURVE SMOOTH",
"174 1142 OFFCURVE",
"117 954 OFFCURVE",
"117 733 CURVE SMOOTH",
"117 508 OFFCURVE",
"171 319 OFFCURVE",
"276 187 CURVE SMOOTH",
"380 55 OFFCURVE",
"535 -20 OFFCURVE",
"739 -20 CURVE SMOOTH",
"891 -20 OFFCURVE",
"1001 12 OFFCURVE",
"1073 56 CURVE SMOOTH",
"1145 100 OFFCURVE",
"1180 157 OFFCURVE",
"1180 209 CURVE SMOOTH",
"1180 250 OFFCURVE",
"1164 274 OFFCURVE",
"1141 289 CURVE",
"1106 244 OFFCURVE",
"1063 200 OFFCURVE",
"1004 168 CURVE SMOOTH",
"945 136 OFFCURVE",
"870 115 OFFCURVE",
"770 115 CURVE SMOOTH",
"619 115 OFFCURVE",
"513 178 OFFCURVE",
"444 287 CURVE SMOOTH",
"375 395 OFFCURVE",
"344 550 OFFCURVE",
"344 733 CURVE SMOOTH",
"344 938 OFFCURVE",
"373 1099 OFFCURVE",
"441 1208 CURVE SMOOTH",
"509 1316 OFFCURVE",
"615 1374 OFFCURVE",
"770 1374 CURVE SMOOTH",
"937 1374 OFFCURVE",
"1010 1249 OFFCURVE",
"1010 1110 CURVE",
"1110 1110 OFFCURVE",
"1188 1164 OFFCURVE",
"1188 1253 CURVE SMOOTH",
"1188 1318 OFFCURVE",
"1154 1376 OFFCURVE",
"1086 1417 CURVE SMOOTH",
"1017 1458 OFFCURVE",
"914 1483 OFFCURVE",
"774 1483 CURVE SMOOTH"
);
}
);
width = 1257;
},
{
layerId = "3CCD85FA-69E6-46C4-A32D-64775BF55ABF";
paths = (
{
closed = 1;
nodes = (
"718 143 OFFCURVE",
"615 192 OFFCURVE",
"550 290 CURVE SMOOTH",
"485 388 OFFCURVE",
"457 536 OFFCURVE",
"457 733 CURVE SMOOTH",
"457 930 OFFCURVE",
"480 1086 OFFCURVE",
"534 1191 CURVE SMOOTH",
"588 1296 OFFCURVE",
"676 1352 OFFCURVE",
"805 1352 CURVE SMOOTH",
"968 1352 OFFCURVE",
"1030 1213 OFFCURVE",
"1030 1067 CURVE",
"1183 1067 OFFCURVE",
"1286 1134 OFFCURVE",
"1286 1245 CURVE SMOOTH",
"1286 1312 OFFCURVE",
"1247 1371 OFFCURVE",
"1170 1414 CURVE SMOOTH",
"1093 1457 OFFCURVE",
"976 1483 OFFCURVE",
"819 1483 CURVE SMOOTH",
"587 1483 OFFCURVE",
"410 1406 OFFCURVE",
"292 1274 CURVE SMOOTH",
"174 1142 OFFCURVE",
"113 954 OFFCURVE",
"113 733 CURVE SMOOTH",
"113 508 OFFCURVE",
"172 319 OFFCURVE",
"289 187 CURVE SMOOTH",
"406 55 OFFCURVE",
"584 -20 OFFCURVE",
"821 -20 CURVE SMOOTH",
"996 -20 OFFCURVE",
"1112 19 OFFCURVE",
"1184 72 CURVE SMOOTH",
"1256 125 OFFCURVE",
"1284 193 OFFCURVE",
"1284 250 CURVE SMOOTH",
"1284 285 OFFCURVE",
"1270 322 OFFCURVE",
"1249 338 CURVE",
"1214 293 OFFCURVE",
"1169 243 OFFCURVE",
"1108 206 CURVE SMOOTH",
"1047 169 OFFCURVE",
"970 143 OFFCURVE",
"870 143 CURVE SMOOTH"
);
}
);
width = 1368;
},
{
layerId = "6A9350D6-C757-41BD-9D0D-806F72644A83";
paths = (
{
closed = 1;
nodes = (
"1060 -20 OFFCURVE",
"1190 22 OFFCURVE",
"1263 83 CURVE SMOOTH",
"1336 144 OFFCURVE",
"1361 217 OFFCURVE",
"1361 281 CURVE SMOOTH",
"1361 310 OFFCURVE",
"1350 355 OFFCURVE",
"1331 375 CURVE",
"1284 312 OFFCURVE",
"1215 242 OFFCURVE",
"1113 198 CURVE SMOOTH",
"1062 175 OFFCURVE",
"999 164 OFFCURVE",
"925 164 CURVE SMOOTH",
"734 164 OFFCURVE",
"626 232 OFFCURVE",
"577 399 CURVE SMOOTH",
"552 482 OFFCURVE",
"540 594 OFFCURVE",
"540 733 CURVE SMOOTH",
"540 1118 OFFCURVE",
"607 1335 OFFCURVE",
"831 1335 CURVE SMOOTH",
"940 1335 OFFCURVE",
"1001 1266 OFFCURVE",
"1027 1175 CURVE SMOOTH",
"1040 1129 OFFCURVE",
"1046 1083 OFFCURVE",
"1046 1036 CURVE",
"1259 1036 OFFCURVE",
"1359 1127 OFFCURVE",
"1359 1239 CURVE SMOOTH",
"1359 1306 OFFCURVE",
"1317 1363 OFFCURVE",
"1233 1411 CURVE SMOOTH",
"1149 1459 OFFCURVE",
"1022 1483 OFFCURVE",
"853 1483 CURVE SMOOTH",
"529 1483 OFFCURVE",
"306 1348 OFFCURVE",
"194 1123 CURVE SMOOTH",
"138 1010 OFFCURVE",
"110 880 OFFCURVE",
"110 733 CURVE SMOOTH",
"110 430 OFFCURVE",
"221 199 OFFCURVE",
"441 74 CURVE SMOOTH",
"551 11 OFFCURVE",
"689 -20 OFFCURVE",
"855 -20 CURVE SMOOTH"
);
}
);
width = 1449;
}
);
note = glyph38;
unicode = 0043;
},
{
glyphname = glyph39;
lastChange = "2021-04-16 11:25:06 +0000";
layers = (
{
layerId = "0DE963AB-769B-4021-B20D-45864FAF5663";
paths = (
{
closed = 1;
nodes = (
"1070 0 OFFCURVE",
"1261 253 OFFCURVE",
"1261 700 CURVE SMOOTH",
"1261 1012 OFFCURVE",
"1168 1245 OFFCURVE",
"985 1369 CURVE SMOOTH",
"893 1431 OFFCURVE",
"780 1462 OFFCURVE",
"645 1462 CURVE SMOOTH",
"102 1462 LINE",
"102 1421 LINE",
"190 1421 LINE SMOOTH",
"258 1421 OFFCURVE",
"288 1410 OFFCURVE",
"298 1358 CURVE SMOOTH",
"303 1332 OFFCURVE",
"305 1293 OFFCURVE",
"305 1241 CURVE SMOOTH",
"305 221 LINE SMOOTH",
"305 135 OFFCURVE",
"301 72 OFFCURVE",
"266 54 CURVE SMOOTH",
"249 45 OFFCURVE",
"224 41 OFFCURVE",
"190 41 CURVE SMOOTH",
"102 41 LINE",
"102 0 LINE",
"653 0 LINE SMOOTH"
);
},
{
closed = 1;
nodes = (
"894 1411 OFFCURVE",
"1063 1288 OFFCURVE",
"1144 1075 CURVE SMOOTH",
"1184 968 OFFCURVE",
"1204 843 OFFCURVE",
"1204 700 CURVE SMOOTH",
"1204 269 OFFCURVE",
"1033 51 OFFCURVE",
"624 51 CURVE SMOOTH",
"362 51 LINE",
"362 1411 LINE",
"626 1411 LINE SMOOTH"
);
}
);
width = 1386;
},
{
layerId = "8C5547AF-2EE0-40C3-888E-C5581C9C595C";
paths = (
{
closed = 1;
nodes = (
"1114 0 OFFCURVE",
"1321 271 OFFCURVE",
"1321 719 CURVE SMOOTH",
"1321 1183 OFFCURVE",
"1093 1462 OFFCURVE",
"678 1462 CURVE SMOOTH",
"88 1462 LINE",
"88 1397 LINE",
"143 1397 LINE SMOOTH",
"239 1397 OFFCURVE",
"287 1375 OFFCURVE",
"287 1239 CURVE SMOOTH",
"287 227 LINE SMOOTH",
"287 86 OFFCURVE",
"239 66 OFFCURVE",
"143 66 CURVE SMOOTH",
"88 66 LINE",
"88 0 LINE",
"682 0 LINE SMOOTH"
);
},
{
closed = 1;
nodes = (
"1002 1382 OFFCURVE",
"1171 1134 OFFCURVE",
"1171 719 CURVE SMOOTH",
"1171 302 OFFCURVE",
"1006 80 OFFCURVE",
"643 80 CURVE SMOOTH",
"426 80 LINE",
"426 1382 LINE",
"645 1382 LINE SMOOTH"
);
}
);
width = 1441;
},
{
layerId = "7FEA46FF-516C-4946-9F17-9EEA76F5F564";
paths = (
{
closed = 1;
nodes = (
"1372 965 OFFCURVE",
"1311 1148 OFFCURVE",
"1197 1272 CURVE SMOOTH",
"1083 1396 OFFCURVE",
"916 1462 OFFCURVE",
"705 1462 CURVE SMOOTH",
"78 1462 LINE",
"78 1376 LINE",
"104 1376 LINE SMOOTH",
"203 1376 OFFCURVE",
"272 1352 OFFCURVE",
"272 1237 CURVE SMOOTH",
"272 233 LINE SMOOTH",
"272 113 OFFCURVE",
"207 86 OFFCURVE",
"104 86 CURVE SMOOTH",
"78 86 LINE",
"78 0 LINE",
"705 0 LINE SMOOTH",
"928 0 OFFCURVE",
"1094 71 OFFCURVE",
"1205 199 CURVE SMOOTH",
"1316 326 OFFCURVE",
"1372 509 OFFCURVE",
"1372 733 CURVE SMOOTH"
);
},
{
closed = 1;
nodes = (
"659 1360 LINE SMOOTH",
"983 1360 OFFCURVE",
"1145 1140 OFFCURVE",
"1145 733 CURVE SMOOTH",
"1145 530 OFFCURVE",
"1104 374 OFFCURVE",
"1023 267 CURVE SMOOTH",
"942 160 OFFCURVE",
"820 104 OFFCURVE",
"657 104 CURVE SMOOTH",
"479 104 LINE",
"479 1360 LINE"
);
}
);
width = 1489;
},
{
layerId = "3CCD85FA-69E6-46C4-A32D-64775BF55ABF";
paths = (
{
closed = 1;
nodes = (
"1458 990 OFFCURVE",
"1390 1167 OFFCURVE",
"1266 1285 CURVE SMOOTH",
"1141 1403 OFFCURVE",
"960 1462 OFFCURVE",
"733 1462 CURVE SMOOTH",
"57 1462 LINE",
"57 1354 LINE",
"143 1354 LINE SMOOTH",
"212 1354 OFFCURVE",
"248 1326 OFFCURVE",
"248 1229 CURVE SMOOTH",
"248 242 LINE SMOOTH",
"248 138 OFFCURVE",
"214 109 OFFCURVE",
"143 109 CURVE SMOOTH",
"57 109 LINE",
"57 0 LINE",
"733 0 LINE SMOOTH",
"972 0 OFFCURVE",
"1153 78 OFFCURVE",
"1275 211 CURVE SMOOTH",
"1397 344 OFFCURVE",
"1458 534 OFFCURVE",
"1458 758 CURVE SMOOTH"
);
},
{
closed = 1;
nodes = (
"1112 562 OFFCURVE",
"1076 405 OFFCURVE",
"1005 296 CURVE SMOOTH",
"933 187 OFFCURVE",
"826 127 OFFCURVE",
"686 127 CURVE SMOOTH",
"571 127 LINE",
"571 1337 LINE",
"688 1337 LINE SMOOTH",
"967 1337 OFFCURVE",
"1112 1149 OFFCURVE",
"1112 758 CURVE SMOOTH"
);
}
);
width = 1571;
},
{
layerId = "6A9350D6-C757-41BD-9D0D-806F72644A83";
paths = (
{
closed = 1;
nodes = (
"1089 0 OFFCURVE",
"1319 142 OFFCURVE",
"1435 377 CURVE SMOOTH",
"1493 494 OFFCURVE",
"1522 627 OFFCURVE",
"1522 776 CURVE SMOOTH",
"1522 1240 OFFCURVE",
"1231 1462 OFFCURVE",
"756 1462 CURVE SMOOTH",
"43 1462 LINE",
"43 1337 LINE",
"135 1337 LINE SMOOTH",
"192 1337 OFFCURVE",
"231 1303 OFFCURVE",
"231 1227 CURVE SMOOTH",
"231 236 LINE SMOOTH",
"231 172 OFFCURVE",
"200 125 OFFCURVE",
"152 125 CURVE SMOOTH",
"43 125 LINE",
"43 0 LINE",
"756 0 LINE SMOOTH"
);
},
{
closed = 1;
nodes = (
"954 1321 OFFCURVE",
"1087 1156 OFFCURVE",
"1087 776 CURVE SMOOTH",
"1087 523 OFFCURVE",
"1027 327 OFFCURVE",
"915 222 CURVE SMOOTH",
"859 169 OFFCURVE",
"790 143 OFFCURVE",
"707 143 CURVE SMOOTH",
"639 143 LINE",
"639 1321 LINE",
"709 1321 LINE SMOOTH"
);
}
);
width = 1630;
}
);
note = glyph39;
unicode = 0044;
},
{
glyphname = glyph40;
lastChange = "2021-04-16 11:25:06 +0000";
layers = (
{
layerId = "0DE963AB-769B-4021-B20D-45864FAF5663";
paths = (
{
closed = 1;
nodes = (
"1046 334 LINE",
"1038 193 LINE SMOOTH",
"1033 81 OFFCURVE",
"1020 51 OFFCURVE",
"913 51 CURVE SMOOTH",
"362 51 LINE",
"362 741 LINE",
"862 741 LINE",
"862 793 LINE",
"362 793 LINE",
"362 1411 LINE",
"843 1411 LINE SMOOTH",
"950 1411 OFFCURVE",
"963 1382 OFFCURVE",
"968 1270 CURVE SMOOTH",
"976 1128 LINE",
"1017 1128 LINE",
"1003 1462 LINE",
"102 1462 LINE",
"102 1421 LINE",
"190 1421 LINE SMOOTH",
"258 1421 OFFCURVE",
"288 1410 OFFCURVE",
"298 1358 CURVE SMOOTH",
"303 1332 OFFCURVE",
"305 1293 OFFCURVE",
"305 1241 CURVE SMOOTH",
"305 221 LINE SMOOTH",
"305 135 OFFCURVE",
"301 72 OFFCURVE",
"266 54 CURVE SMOOTH",
"249 45 OFFCURVE",
"224 41 OFFCURVE",
"190 41 CURVE SMOOTH",
"102 41 LINE",
"102 0 LINE",
"1073 0 LINE",
"1087 334 LINE"
);
}
);
width = 1198;
},
{
layerId = "8C5547AF-2EE0-40C3-888E-C5581C9C595C";
paths = (
{
closed = 1;
nodes = (
"1067 348 LINE",
"1055 236 LINE SMOOTH",
"1043 135 OFFCURVE",
"1013 80 OFFCURVE",
"893 80 CURVE SMOOTH",
"426 80 LINE",
"426 727 LINE",
"922 727 LINE",
"922 805 LINE",
"426 805 LINE",
"426 1382 LINE",
"833 1382 LINE SMOOTH",
"948 1382 OFFCURVE",
"979 1328 OFFCURVE",
"987 1227 CURVE SMOOTH",
"997 1114 LINE",
"1073 1114 LINE",
"1061 1462 LINE",
"88 1462 LINE",
"88 1397 LINE",
"143 1397 LINE SMOOTH",
"239 1397 OFFCURVE",
"287 1376 OFFCURVE",
"287 1235 CURVE SMOOTH",
"287 223 LINE SMOOTH",
"287 84 OFFCURVE",
"239 66 OFFCURVE",
"143 66 CURVE SMOOTH",
"88 66 LINE",
"88 0 LINE",
"1128 0 LINE",
"1143 348 LINE"
);
}
);
width = 1241;
},
{
layerId = "7FEA46FF-516C-4946-9F17-9EEA76F5F564";
paths = (
{
closed = 1;
nodes = (
"973 815 LINE",
"479 815 LINE",
"479 1360 LINE",
"823 1360 LINE SMOOTH",
"940 1360 OFFCURVE",
"992 1290 OFFCURVE",
"1004 1192 CURVE SMOOTH",
"1014 1104 LINE",
"1120 1104 LINE",
"1110 1462 LINE",
"78 1462 LINE",
"78 1376 LINE",
"104 1376 LINE SMOOTH",
"207 1376 OFFCURVE",
"272 1349 OFFCURVE",
"272 1229 CURVE SMOOTH",
"272 223 LINE SMOOTH",
"272 109 OFFCURVE",
"205 86 OFFCURVE",
"104 86 CURVE SMOOTH",
"78 86 LINE",
"78 0 LINE",
"1176 0 LINE",
"1190 358 LINE",
"1083 358 LINE",
"1069 270 LINE SMOOTH",
"1054 171 OFFCURVE",
"996 102 OFFCURVE",
"874 102 CURVE SMOOTH",
"479 102 LINE",
"479 715 LINE",
"973 715 LINE"
);
}
);
width = 1276;
},
{
layerId = "3CCD85FA-69E6-46C4-A32D-64775BF55ABF";
paths = (
{
closed = 1;
nodes = (
"1059 825 LINE",
"573 825 LINE",
"573 1337 LINE",
"918 1337 LINE SMOOTH",
"1002 1337 OFFCURVE",
"1038 1282 OFFCURVE",
"1049 1182 CURVE SMOOTH",
"1059 1085 LINE",
"1202 1085 LINE",
"1194 1462 LINE",
"57 1462 LINE",
"57 1354 LINE",
"143 1354 LINE SMOOTH",
"214 1354 OFFCURVE",
"248 1325 OFFCURVE",
"248 1221 CURVE SMOOTH",
"248 231 LINE SMOOTH",
"248 134 OFFCURVE",
"213 109 OFFCURVE",
"143 109 CURVE SMOOTH",
"57 109 LINE",
"57 0 LINE",
"1257 0 LINE",
"1272 377 LINE",
"1130 377 LINE",
"1114 281 LINE SMOOTH",
"1101 192 OFFCURVE",
"1065 125 OFFCURVE",
"983 125 CURVE SMOOTH",
"573 125 LINE",
"573 702 LINE",
"1059 702 LINE"
);
}
);
width = 1337;
},
{
layerId = "6A9350D6-C757-41BD-9D0D-806F72644A83";
paths = (
{
closed = 1;
nodes = (
"1165 391 LINE",
"1149 289 LINE SMOOTH",
"1136 198 OFFCURVE",
"1093 141 OFFCURVE",
"1006 141 CURVE SMOOTH",
"639 141 LINE",
"639 694 LINE",
"1122 694 LINE",
"1122 834 LINE",
"639 834 LINE",
"639 1321 LINE",
"946 1321 LINE SMOOTH",
"1042 1321 OFFCURVE",
"1072 1282 OFFCURVE",
"1083 1174 CURVE SMOOTH",
"1094 1071 LINE",
"1264 1071 LINE",
"1257 1462 LINE",
"43 1462 LINE",
"43 1337 LINE",
"143 1337 LINE SMOOTH",
"187 1337 OFFCURVE",
"231 1322 OFFCURVE",
"231 1227 CURVE SMOOTH",
"231 225 LINE SMOOTH",
"231 168 OFFCURVE",
"202 125 OFFCURVE",
"147 125 CURVE SMOOTH",
"43 125 LINE",
"43 0 LINE",
"1319 0 LINE",
"1333 391 LINE"
);
}
);
width = 1382;
}
);
note = glyph40;
unicode = 0045;
},
{
glyphname = glyph41;
lastChange = "2021-04-16 11:25:06 +0000";
layers = (
{
layerId = "0DE963AB-769B-4021-B20D-45864FAF5663";
paths = (
{
closed = 1;
nodes = (
"477 41 LINE SMOOTH",
"409 41 OFFCURVE",
"378 53 OFFCURVE",
"369 105 CURVE SMOOTH",
"364 130 OFFCURVE",
"362 169 OFFCURVE",
"362 221 CURVE SMOOTH",
"362 692 LINE",
"866 692 LINE",
"866 743 LINE",
"362 743 LINE",
"362 1411 LINE",
"847 1411 LINE SMOOTH",
"954 1411 OFFCURVE",
"965 1382 OFFCURVE",
"970 1270 CURVE SMOOTH",
"976 1128 LINE",
"1017 1128 LINE",
"1007 1462 LINE",
"102 1462 LINE",
"102 1421 LINE",
"190 1421 LINE SMOOTH",
"258 1421 OFFCURVE",
"288 1410 OFFCURVE",
"298 1358 CURVE SMOOTH",
"303 1332 OFFCURVE",
"305 1293 OFFCURVE",
"305 1241 CURVE SMOOTH",
"305 221 LINE SMOOTH",
"305 135 OFFCURVE",
"301 72 OFFCURVE",
"266 54 CURVE SMOOTH",
"249 45 OFFCURVE",
"224 41 OFFCURVE",
"190 41 CURVE SMOOTH",
"102 41 LINE",
"102 0 LINE",
"620 0 LINE",
"620 41 LINE"
);
}
);
width = 1126;
},
{
layerId = "8C5547AF-2EE0-40C3-888E-C5581C9C595C";
paths = (
{
closed = 1;
nodes = (
"569 66 LINE SMOOTH",
"474 66 OFFCURVE",
"426 86 OFFCURVE",
"426 227 CURVE SMOOTH",
"426 678 LINE",
"924 678 LINE",
"924 758 LINE",
"426 758 LINE",
"426 1382 LINE",
"829 1382 LINE SMOOTH",
"946 1382 OFFCURVE",
"981 1328 OFFCURVE",
"989 1227 CURVE SMOOTH",
"997 1114 LINE",
"1073 1114 LINE",
"1063 1462 LINE",
"88 1462 LINE",
"88 1397 LINE",
"143 1397 LINE SMOOTH",
"239 1397 OFFCURVE",
"287 1375 OFFCURVE",
"287 1239 CURVE SMOOTH",
"287 223 LINE SMOOTH",
"287 84 OFFCURVE",
"239 66 OFFCURVE",
"143 66 CURVE SMOOTH",
"88 66 LINE",
"88 0 LINE",
"672 0 LINE",
"672 66 LINE"
);
}
);
width = 1171;
},
{
layerId = "7FEA46FF-516C-4946-9F17-9EEA76F5F564";
paths = (
{
closed = 1;
nodes = (
"936 1360 OFFCURVE",
"993 1291 OFFCURVE",
"1004 1192 CURVE SMOOTH",
"1014 1104 LINE",
"1120 1104 LINE",
"1110 1462 LINE",
"78 1462 LINE",
"78 1376 LINE",
"104 1376 LINE SMOOTH",
"203 1376 OFFCURVE",
"272 1352 OFFCURVE",
"272 1237 CURVE SMOOTH",
"272 223 LINE SMOOTH",
"272 109 OFFCURVE",
"205 86 OFFCURVE",
"104 86 CURVE SMOOTH",
"78 86 LINE",
"78 0 LINE",
"715 0 LINE",
"715 86 LINE",
"647 86 LINE SMOOTH",
"546 86 OFFCURVE",
"479 112 OFFCURVE",
"479 233 CURVE SMOOTH",
"479 668 LINE",
"973 668 LINE",
"973 768 LINE",
"479 768 LINE",
"479 1360 LINE",
"815 1360 LINE SMOOTH"
);
}
);
width = 1208;
},
{
layerId = "3CCD85FA-69E6-46C4-A32D-64775BF55ABF";
paths = (
{
closed = 1;
nodes = (
"57 1462 LINE",
"57 1354 LINE",
"143 1354 LINE SMOOTH",
"212 1354 OFFCURVE",
"248 1326 OFFCURVE",
"248 1229 CURVE SMOOTH",
"248 231 LINE SMOOTH",
"248 134 OFFCURVE",
"213 109 OFFCURVE",
"143 109 CURVE SMOOTH",
"57 109 LINE",
"57 0 LINE",
"805 0 LINE",
"805 109 LINE",
"678 109 LINE SMOOTH",
"608 109 OFFCURVE",
"571 137 OFFCURVE",
"571 242 CURVE SMOOTH",
"571 657 LINE",
"1057 657 LINE",
"1057 778 LINE",
"571 778 LINE",
"571 1337 LINE",
"897 1337 LINE SMOOTH",
"981 1337 OFFCURVE",
"1036 1292 OFFCURVE",
"1049 1184 CURVE SMOOTH",
"1059 1085 LINE",
"1202 1085 LINE",
"1192 1462 LINE"
);
}
);
width = 1272;
},
{
layerId = "6A9350D6-C757-41BD-9D0D-806F72644A83";
paths = (
{
closed = 1;
nodes = (
"750 125 LINE SMOOTH",
"667 125 OFFCURVE",
"639 165 OFFCURVE",
"639 225 CURVE SMOOTH",
"639 649 LINE",
"1120 649 LINE",
"1120 786 LINE",
"639 786 LINE",
"639 1321 LINE",
"958 1321 LINE SMOOTH",
"1010 1321 OFFCURVE",
"1070 1298 OFFCURVE",
"1083 1178 CURVE SMOOTH",
"1094 1071 LINE",
"1264 1071 LINE",
"1253 1462 LINE",
"43 1462 LINE",
"43 1337 LINE",
"145 1337 LINE SMOOTH",
"192 1337 OFFCURVE",
"231 1306 OFFCURVE",
"231 1235 CURVE SMOOTH",
"231 223 LINE SMOOTH",
"231 155 OFFCURVE",
"202 125 OFFCURVE",
"115 125 CURVE SMOOTH",
"43 125 LINE",
"43 0 LINE",
"872 0 LINE",
"872 125 LINE"
);
}
);
width = 1318;
}
);
note = glyph41;
unicode = 0046;
},
{
glyphname = glyph42;
lastChange = "2021-04-16 11:25:06 +0000";
layers = (
{
layerId = "0DE963AB-769B-4021-B20D-45864FAF5663";
paths = (
{
closed = 1;
nodes = (
"927 -20 OFFCURVE",
"1041 1 OFFCURVE",
"1150 53 CURVE",
"1150 438 LINE SMOOTH",
"1150 524 OFFCURVE",
"1153 589 OFFCURVE",
"1189 606 CURVE SMOOTH",
"1206 614 OFFCURVE",
"1231 618 OFFCURVE",
"1265 618 CURVE SMOOTH",
"1304 618 LINE",
"1304 659 LINE",
"911 659 LINE",
"911 618 LINE",
"978 618 LINE SMOOTH",
"1046 618 OFFCURVE",
"1076 607 OFFCURVE",
"1086 555 CURVE SMOOTH",
"1091 529 OFFCURVE",
"1093 490 OFFCURVE",
"1093 438 CURVE SMOOTH",
"1093 84 LINE",
"1022 48 OFFCURVE",
"899 31 OFFCURVE",
"784 31 CURVE SMOOTH",
"500 31 OFFCURVE",
"323 153 OFFCURVE",
"240 363 CURVE SMOOTH",
"198 468 OFFCURVE",
"177 591 OFFCURVE",
"177 733 CURVE SMOOTH",
"177 1028 OFFCURVE",
"279 1238 OFFCURVE",
"455 1349 CURVE SMOOTH",
"543 1404 OFFCURVE",
"647 1432 OFFCURVE",
"767 1432 CURVE SMOOTH",
"947 1432 OFFCURVE",
"1042 1390 OFFCURVE",
"1082 1310 CURVE SMOOTH",
"1101 1269 OFFCURVE",
"1111 1219 OFFCURVE",
"1111 1159 CURVE",
"1140 1159 OFFCURVE",
"1154 1188 OFFCURVE",
"1154 1245 CURVE SMOOTH",
"1154 1328 OFFCURVE",
"1111 1404 OFFCURVE",
"1000 1449 CURVE SMOOTH",
"945 1472 OFFCURVE",
"870 1483 OFFCURVE",
"775 1483 CURVE SMOOTH",
"508 1483 OFFCURVE",
"307 1361 OFFCURVE",
"200 1137 CURVE SMOOTH",
"147 1025 OFFCURVE",
"120 890 OFFCURVE",
"120 733 CURVE SMOOTH",
"120 430 OFFCURVE",
"214 199 OFFCURVE",
"404 74 CURVE SMOOTH",
"499 11 OFFCURVE",
"618 -20 OFFCURVE",
"763 -20 CURVE SMOOTH"
);
}
);
width = 1318;
},
{
layerId = "8C5547AF-2EE0-40C3-888E-C5581C9C595C";
paths = (
{
closed = 1;
nodes = (
"966 -20 OFFCURVE",
"1093 6 OFFCURVE",
"1218 63 CURVE",
"1218 440 LINE SMOOTH",
"1218 583 OFFCURVE",
"1256 602 OFFCURVE",
"1347 602 CURVE SMOOTH",
"1369 602 LINE",
"1369 668 LINE",
"900 668 LINE",
"900 602 LINE",
"935 602 LINE SMOOTH",
"1031 602 OFFCURVE",
"1079 581 OFFCURVE",
"1079 444 CURVE SMOOTH",
"1079 104 LINE",
"1015 80 OFFCURVE",
"915 66 OFFCURVE",
"823 66 CURVE SMOOTH",
"558 66 OFFCURVE",
"399 175 OFFCURVE",
"324 375 CURVE SMOOTH",
"287 474 OFFCURVE",
"268 594 OFFCURVE",
"268 733 CURVE SMOOTH",
"268 1157 OFFCURVE",
"446 1401 OFFCURVE",
"798 1401 CURVE SMOOTH",
"954 1401 OFFCURVE",
"1039 1349 OFFCURVE",
"1076 1269 CURVE SMOOTH",
"1094 1228 OFFCURVE",
"1103 1183 OFFCURVE",
"1103 1133 CURVE",
"1171 1133 OFFCURVE",
"1226 1176 OFFCURVE",
"1226 1249 CURVE SMOOTH",
"1226 1374 OFFCURVE",
"1101 1483 OFFCURVE",
"806 1483 CURVE SMOOTH",
"514 1483 OFFCURVE",
"307 1354 OFFCURVE",
"199 1130 CURVE SMOOTH",
"145 1017 OFFCURVE",
"118 885 OFFCURVE",
"118 733 CURVE SMOOTH",
"118 430 OFFCURVE",
"215 199 OFFCURVE",
"415 74 CURVE SMOOTH",
"514 11 OFFCURVE",
"641 -20 OFFCURVE",
"794 -20 CURVE SMOOTH"
);
}
);
width = 1396;
},
{
layerId = "7FEA46FF-516C-4946-9F17-9EEA76F5F564";
paths = (
{
closed = 1;
nodes = (
"997 -20 OFFCURVE",
"1137 10 OFFCURVE",
"1274 74 CURVE",
"1274 442 LINE SMOOTH",
"1274 561 OFFCURVE",
"1325 590 OFFCURVE",
"1415 590 CURVE SMOOTH",
"1423 590 LINE",
"1423 676 LINE",
"891 676 LINE",
"891 590 LINE",
"899 590 LINE SMOOTH",
"999 590 OFFCURVE",
"1067 564 OFFCURVE",
"1067 451 CURVE SMOOTH",
"1067 121 LINE",
"1010 104 OFFCURVE",
"933 96 OFFCURVE",
"854 96 CURVE SMOOTH",
"667 96 OFFCURVE",
"540 153 OFFCURVE",
"459 261 CURVE SMOOTH",
"378 369 OFFCURVE",
"344 529 OFFCURVE",
"344 733 CURVE SMOOTH",
"344 938 OFFCURVE",
"377 1099 OFFCURVE",
"454 1208 CURVE SMOOTH",
"531 1316 OFFCURVE",
"652 1374 OFFCURVE",
"825 1374 CURVE SMOOTH",
"925 1374 OFFCURVE",
"993 1340 OFFCURVE",
"1036 1290 CURVE SMOOTH",
"1079 1240 OFFCURVE",
"1096 1174 OFFCURVE",
"1096 1110 CURVE",
"1199 1110 OFFCURVE",
"1286 1163 OFFCURVE",
"1286 1253 CURVE SMOOTH",
"1286 1318 OFFCURVE",
"1249 1376 OFFCURVE",
"1174 1417 CURVE SMOOTH",
"1098 1458 OFFCURVE",
"986 1483 OFFCURVE",
"834 1483 CURVE SMOOTH",
"598 1483 OFFCURVE",
"419 1406 OFFCURVE",
"299 1274 CURVE SMOOTH",
"178 1142 OFFCURVE",
"117 954 OFFCURVE",
"117 733 CURVE SMOOTH",
"117 508 OFFCURVE",
"174 319 OFFCURVE",
"291 187 CURVE SMOOTH",
"407 55 OFFCURVE",
"584 -20 OFFCURVE",
"821 -20 CURVE SMOOTH"
);
}
);
width = 1462;
},
{
layerId = "3CCD85FA-69E6-46C4-A32D-64775BF55ABF";
paths = (
{
closed = 1;
nodes = (
"1053 -20 OFFCURVE",
"1210 17 OFFCURVE",
"1370 90 CURVE",
"1370 426 LINE SMOOTH",
"1370 537 OFFCURVE",
"1402 580 OFFCURVE",
"1491 580 CURVE SMOOTH",
"1518 580 LINE",
"1518 688 LINE",
"874 688 LINE",
"874 580 LINE",
"901 580 LINE SMOOTH",
"997 580 OFFCURVE",
"1047 543 OFFCURVE",
"1047 434 CURVE SMOOTH",
"1047 133 LINE",
"999 122 OFFCURVE",
"948 119 OFFCURVE",
"897 119 CURVE SMOOTH",
"736 119 OFFCURVE",
"627 174 OFFCURVE",
"557 278 CURVE SMOOTH",
"487 382 OFFCURVE",
"457 536 OFFCURVE",
"457 733 CURVE SMOOTH",
"457 930 OFFCURVE",
"486 1086 OFFCURVE",
"552 1191 CURVE SMOOTH",
"618 1296 OFFCURVE",
"721 1352 OFFCURVE",
"870 1352 CURVE SMOOTH",
"1042 1352 OFFCURVE",
"1124 1240 OFFCURVE",
"1124 1071 CURVE",
"1281 1071 OFFCURVE",
"1389 1139 OFFCURVE",
"1389 1245 CURVE SMOOTH",
"1389 1312 OFFCURVE",
"1347 1371 OFFCURVE",
"1261 1414 CURVE SMOOTH",
"1175 1457 OFFCURVE",
"1048 1483 OFFCURVE",
"877 1483 CURVE SMOOTH",
"626 1483 OFFCURVE",
"435 1406 OFFCURVE",
"307 1274 CURVE SMOOTH",
"179 1142 OFFCURVE",
"113 954 OFFCURVE",
"113 733 CURVE SMOOTH",
"113 508 OFFCURVE",
"174 319 OFFCURVE",
"299 187 CURVE SMOOTH",
"424 55 OFFCURVE",
"613 -20 OFFCURVE",
"866 -20 CURVE SMOOTH"
);
}
);
width = 1575;
},
{
layerId = "6A9350D6-C757-41BD-9D0D-806F72644A83";
paths = (
{
closed = 1;
nodes = (
"1092 -20 OFFCURVE",
"1266 21 OFFCURVE",
"1441 102 CURVE",
"1441 414 LINE SMOOTH",
"1441 523 OFFCURVE",
"1460 571 OFFCURVE",
"1548 571 CURVE SMOOTH",
"1566 571 LINE",
"1566 696 LINE",
"864 696 LINE",
"864 571 LINE",
"903 571 LINE SMOOTH",
"1003 571 OFFCURVE",
"1032 523 OFFCURVE",
"1032 422 CURVE SMOOTH",
"1032 141 LINE",
"993 137 OFFCURVE",
"959 135 OFFCURVE",
"929 135 CURVE SMOOTH",
"645 135 OFFCURVE",
"540 348 OFFCURVE",
"540 733 CURVE SMOOTH",
"540 1118 OFFCURVE",
"640 1335 OFFCURVE",
"905 1335 CURVE SMOOTH",
"1057 1335 OFFCURVE",
"1146 1237 OFFCURVE",
"1146 1042 CURVE",
"1365 1042 OFFCURVE",
"1464 1138 OFFCURVE",
"1464 1239 CURVE SMOOTH",
"1464 1306 OFFCURVE",
"1417 1363 OFFCURVE",
"1324 1411 CURVE SMOOTH",
"1230 1459 OFFCURVE",
"1092 1483 OFFCURVE",
"909 1483 CURVE SMOOTH",
"560 1483 OFFCURVE",
"320 1348 OFFCURVE",
"200 1123 CURVE SMOOTH",
"140 1010 OFFCURVE",
"110 880 OFFCURVE",
"110 733 CURVE SMOOTH",
"110 430 OFFCURVE",
"226 199 OFFCURVE",
"459 74 CURVE SMOOTH",
"576 11 OFFCURVE",
"723 -20 OFFCURVE",
"901 -20 CURVE SMOOTH"
);
}
);
width = 1658;
}
);
note = glyph42;
unicode = 0047;
},
{
glyphname = glyph43;
lastChange = "2021-04-16 11:25:06 +0000";
layers = (
{
layerId = "0DE963AB-769B-4021-B20D-45864FAF5663";
paths = (
{
closed = 1;
nodes = (
"477 41 LINE SMOOTH",
"409 41 OFFCURVE",
"378 53 OFFCURVE",
"369 105 CURVE SMOOTH",
"364 130 OFFCURVE",
"362 169 OFFCURVE",
"362 221 CURVE SMOOTH",
"362 739 LINE",
"1196 739 LINE",
"1196 221 LINE SMOOTH",
"1196 135 OFFCURVE",
"1192 72 OFFCURVE",
"1157 54 CURVE SMOOTH",
"1140 45 OFFCURVE",
"1115 41 OFFCURVE",
"1081 41 CURVE SMOOTH",
"989 41 LINE",
"989 0 LINE",
"1456 0 LINE",
"1456 41 LINE",
"1368 41 LINE SMOOTH",
"1299 41 OFFCURVE",
"1269 53 OFFCURVE",
"1260 105 CURVE SMOOTH",
"1255 130 OFFCURVE",
"1253 169 OFFCURVE",
"1253 221 CURVE SMOOTH",
"1253 1241 LINE SMOOTH",
"1253 1327 OFFCURVE",
"1256 1392 OFFCURVE",
"1292 1409 CURVE SMOOTH",
"1308 1417 OFFCURVE",
"1333 1421 OFFCURVE",
"1368 1421 CURVE SMOOTH",
"1456 1421 LINE",
"1456 1462 LINE",
"989 1462 LINE",
"989 1421 LINE",
"1081 1421 LINE SMOOTH",
"1149 1421 OFFCURVE",
"1179 1410 OFFCURVE",
"1189 1358 CURVE SMOOTH",
"1194 1332 OFFCURVE",
"1196 1293 OFFCURVE",
"1196 1241 CURVE SMOOTH",
"1196 791 LINE",
"362 791 LINE",
"362 1241 LINE SMOOTH",
"362 1327 OFFCURVE",
"365 1392 OFFCURVE",
"401 1409 CURVE SMOOTH",
"418 1417 OFFCURVE",
"443 1421 OFFCURVE",
"477 1421 CURVE SMOOTH",
"569 1421 LINE",
"569 1462 LINE",
"102 1462 LINE",
"102 1421 LINE",
"190 1421 LINE SMOOTH",
"258 1421 OFFCURVE",
"288 1410 OFFCURVE",
"298 1358 CURVE SMOOTH",
"303 1332 OFFCURVE",
"305 1293 OFFCURVE",
"305 1241 CURVE SMOOTH",
"305 221 LINE SMOOTH",
"305 135 OFFCURVE",
"301 72 OFFCURVE",
"266 54 CURVE SMOOTH",
"249 45 OFFCURVE",
"224 41 OFFCURVE",
"190 41 CURVE SMOOTH",
"102 41 LINE",
"102 0 LINE",
"569 0 LINE",
"569 41 LINE"
);
}
);
width = 1558;
},
{
layerId = "8C5547AF-2EE0-40C3-888E-C5581C9C595C";
paths = (
{
closed = 1;
nodes = (
"569 66 LINE SMOOTH",
"474 66 OFFCURVE",
"426 86 OFFCURVE",
"426 227 CURVE SMOOTH",
"426 725 LINE",
"1167 725 LINE",
"1167 227 LINE SMOOTH",
"1167 86 OFFCURVE",
"1120 66 OFFCURVE",
"1024 66 CURVE SMOOTH",
"969 66 LINE",
"969 0 LINE",
"1505 0 LINE",
"1505 66 LINE",
"1450 66 LINE SMOOTH",
"1357 66 OFFCURVE",
"1307 84 OFFCURVE",
"1307 223 CURVE SMOOTH",
"1307 1235 LINE SMOOTH",
"1307 1376 OFFCURVE",
"1354 1397 OFFCURVE",
"1450 1397 CURVE SMOOTH",
"1505 1397 LINE",
"1505 1462 LINE",
"969 1462 LINE",
"969 1397 LINE",
"1024 1397 LINE SMOOTH",
"1120 1397 OFFCURVE",
"1167 1376 OFFCURVE",
"1167 1235 CURVE SMOOTH",
"1167 805 LINE",
"426 805 LINE",
"426 1235 LINE SMOOTH",
"426 1376 OFFCURVE",
"474 1397 OFFCURVE",
"569 1397 CURVE SMOOTH",
"627 1397 LINE",
"627 1462 LINE",
"88 1462 LINE",
"88 1397 LINE",
"143 1397 LINE SMOOTH",
"239 1397 OFFCURVE",
"287 1375 OFFCURVE",
"287 1239 CURVE SMOOTH",
"287 227 LINE SMOOTH",
"287 86 OFFCURVE",
"239 66 OFFCURVE",
"143 66 CURVE SMOOTH",
"88 66 LINE",
"88 0 LINE",
"627 0 LINE",
"627 66 LINE"
);
}
);
width = 1593;
},
{
layerId = "7FEA46FF-516C-4946-9F17-9EEA76F5F564";
paths = (
{
closed = 1;
nodes = (
"1520 86 LINE SMOOTH",
"1419 86 OFFCURVE",
"1352 109 OFFCURVE",
"1352 223 CURVE SMOOTH",
"1352 1229 LINE SMOOTH",
"1352 1349 OFFCURVE",
"1417 1376 OFFCURVE",
"1520 1376 CURVE SMOOTH",
"1546 1376 LINE",
"1546 1462 LINE",
"950 1462 LINE",
"950 1376 LINE",
"977 1376 LINE SMOOTH",
"1079 1376 OFFCURVE",
"1145 1350 OFFCURVE",
"1145 1229 CURVE SMOOTH",
"1145 815 LINE",
"479 815 LINE",
"479 1229 LINE SMOOTH",
"479 1350 OFFCURVE",
"546 1376 OFFCURVE",
"647 1376 CURVE SMOOTH",
"674 1376 LINE",
"674 1462 LINE",
"78 1462 LINE",
"78 1376 LINE",
"104 1376 LINE SMOOTH",
"203 1376 OFFCURVE",
"272 1352 OFFCURVE",
"272 1237 CURVE SMOOTH",
"272 233 LINE SMOOTH",
"272 113 OFFCURVE",
"207 86 OFFCURVE",
"104 86 CURVE SMOOTH",
"78 86 LINE",
"78 0 LINE",
"674 0 LINE",
"674 86 LINE",
"647 86 LINE SMOOTH",
"546 86 OFFCURVE",
"479 112 OFFCURVE",
"479 233 CURVE SMOOTH",
"479 713 LINE",
"1145 713 LINE",
"1145 233 LINE SMOOTH",
"1145 112 OFFCURVE",
"1079 86 OFFCURVE",
"977 86 CURVE SMOOTH",
"950 86 LINE",
"950 0 LINE",
"1546 0 LINE",
"1546 86 LINE"
);
}
);
width = 1624;
},
{
layerId = "3CCD85FA-69E6-46C4-A32D-64775BF55ABF";
paths = (
{
closed = 1;
nodes = (
"1534 109 LINE SMOOTH",
"1468 109 OFFCURVE",
"1430 135 OFFCURVE",
"1430 231 CURVE SMOOTH",
"1430 1220 LINE SMOOTH",
"1430 1324 OFFCURVE",
"1465 1353 OFFCURVE",
"1534 1353 CURVE SMOOTH",
"1620 1353 LINE",
"1620 1462 LINE",
"913 1462 LINE",
"913 1353 LINE",
"1001 1353 LINE SMOOTH",
"1071 1353 OFFCURVE",
"1106 1324 OFFCURVE",
"1106 1220 CURVE SMOOTH",
"1106 825 LINE",
"571 825 LINE",
"571 1220 LINE SMOOTH",
"571 1324 OFFCURVE",
"608 1353 OFFCURVE",
"676 1353 CURVE SMOOTH",
"764 1353 LINE",
"764 1462 LINE",
"57 1462 LINE",
"57 1353 LINE",
"143 1353 LINE SMOOTH",
"210 1353 OFFCURVE",
"248 1325 OFFCURVE",
"248 1228 CURVE SMOOTH",
"248 242 LINE SMOOTH",
"248 138 OFFCURVE",
"213 109 OFFCURVE",
"143 109 CURVE SMOOTH",
"57 109 LINE",
"57 0 LINE",
"764 0 LINE",
"764 109 LINE",
"676 109 LINE SMOOTH",
"608 109 OFFCURVE",
"571 138 OFFCURVE",
"571 242 CURVE SMOOTH",
"571 700 LINE",
"1106 700 LINE",
"1106 242 LINE SMOOTH",
"1106 138 OFFCURVE",
"1071 109 OFFCURVE",
"1001 109 CURVE SMOOTH",
"913 109 LINE",
"913 0 LINE",
"1620 0 LINE",
"1620 109 LINE"
);
}
);
width = 1677;
},
{
layerId = "6A9350D6-C757-41BD-9D0D-806F72644A83";
paths = (
{
closed = 1;
nodes = (
"715 125 LINE SMOOTH",
"666 125 OFFCURVE",
"641 172 OFFCURVE",
"641 227 CURVE SMOOTH",
"641 692 LINE",
"1077 692 LINE",
"1077 240 LINE SMOOTH",
"1077 171 OFFCURVE",
"1050 125 OFFCURVE",
"993 125 CURVE SMOOTH",
"928 125 LINE",
"928 0 LINE",
"1675 0 LINE",
"1675 125 LINE",
"1567 125 LINE SMOOTH",
"1520 125 OFFCURVE",
"1487 168 OFFCURVE",
"1487 231 CURVE SMOOTH",
"1487 1233 LINE SMOOTH",
"1487 1302 OFFCURVE",
"1514 1337 OFFCURVE",
"1567 1337 CURVE SMOOTH",
"1675 1337 LINE",
"1675 1462 LINE",
"928 1462 LINE",
"928 1337 LINE",
"991 1337 LINE SMOOTH",
"1048 1337 OFFCURVE",
"1077 1302 OFFCURVE",
"1077 1233 CURVE SMOOTH",
"1077 834 LINE",
"641 834 LINE",
"641 1239 LINE SMOOTH",
"641 1304 OFFCURVE",
"666 1337 OFFCURVE",
"715 1337 CURVE SMOOTH",
"791 1337 LINE",
"791 1462 LINE",
"43 1462 LINE",
"43 1337 LINE",
"133 1337 LINE SMOOTH",
"188 1337 OFFCURVE",
"231 1302 OFFCURVE",
"231 1229 CURVE SMOOTH",
"231 227 LINE SMOOTH",
"231 172 OFFCURVE",
"197 125 OFFCURVE",
"152 125 CURVE SMOOTH",
"43 125 LINE",
"43 0 LINE",
"791 0 LINE",
"791 125 LINE"
);
}
);
width = 1716;
}
);
note = glyph43;
unicode = 0048;
},
{
glyphname = glyph44;
lastChange = "2021-04-16 11:25:06 +0000";
layers = (
{
layerId = "0DE963AB-769B-4021-B20D-45864FAF5663";
paths = (
{
closed = 1;
nodes = (
"477 41 LINE SMOOTH",
"409 41 OFFCURVE",
"378 53 OFFCURVE",
"369 105 CURVE SMOOTH",
"364 130 OFFCURVE",
"362 169 OFFCURVE",
"362 221 CURVE SMOOTH",
"362 1241 LINE SMOOTH",
"362 1327 OFFCURVE",
"365 1392 OFFCURVE",
"401 1409 CURVE SMOOTH",
"418 1417 OFFCURVE",
"443 1421 OFFCURVE",
"477 1421 CURVE SMOOTH",
"559 1421 LINE",
"559 1462 LINE",
"102 1462 LINE",
"102 1421 LINE",
"190 1421 LINE SMOOTH",
"258 1421 OFFCURVE",
"288 1410 OFFCURVE",
"298 1358 CURVE SMOOTH",
"303 1332 OFFCURVE",
"305 1293 OFFCURVE",
"305 1241 CURVE SMOOTH",
"305 221 LINE SMOOTH",
"305 135 OFFCURVE",
"301 72 OFFCURVE",
"266 54 CURVE SMOOTH",
"249 45 OFFCURVE",
"224 41 OFFCURVE",
"190 41 CURVE SMOOTH",
"102 41 LINE",
"102 0 LINE",
"559 0 LINE",
"559 41 LINE"
);
}
);
width = 665;
},
{
layerId = "8C5547AF-2EE0-40C3-888E-C5581C9C595C";
paths = (
{
closed = 1;
nodes = (
"569 66 LINE SMOOTH",
"474 66 OFFCURVE",
"426 86 OFFCURVE",
"426 227 CURVE SMOOTH",
"426 1235 LINE SMOOTH",
"426 1376 OFFCURVE",
"474 1397 OFFCURVE",
"569 1397 CURVE SMOOTH",
"623 1397 LINE",
"623 1462 LINE",
"88 1462 LINE",
"88 1397 LINE",
"143 1397 LINE SMOOTH",
"239 1397 OFFCURVE",
"287 1376 OFFCURVE",
"287 1235 CURVE SMOOTH",
"287 227 LINE SMOOTH",
"287 86 OFFCURVE",
"239 66 OFFCURVE",
"143 66 CURVE SMOOTH",
"88 66 LINE",
"88 0 LINE",
"623 0 LINE",
"623 66 LINE"
);
}
);
width = 712;
},
{
layerId = "7FEA46FF-516C-4946-9F17-9EEA76F5F564";
paths = (
{
closed = 1;
nodes = (
"647 86 LINE SMOOTH",
"546 86 OFFCURVE",
"479 112 OFFCURVE",
"479 233 CURVE SMOOTH",
"479 1229 LINE SMOOTH",
"479 1350 OFFCURVE",
"546 1376 OFFCURVE",
"647 1376 CURVE SMOOTH",
"674 1376 LINE",
"674 1462 LINE",
"78 1462 LINE",
"78 1376 LINE",
"104 1376 LINE SMOOTH",
"207 1376 OFFCURVE",
"272 1349 OFFCURVE",
"272 1229 CURVE SMOOTH",
"272 233 LINE SMOOTH",
"272 113 OFFCURVE",
"207 86 OFFCURVE",
"104 86 CURVE SMOOTH",
"78 86 LINE",
"78 0 LINE",
"674 0 LINE",
"674 86 LINE"
);
}
);
width = 752;
},
{
layerId = "3CCD85FA-69E6-46C4-A32D-64775BF55ABF";
paths = (
{
closed = 1;
nodes = (
"678 109 LINE SMOOTH",
"608 109 OFFCURVE",
"573 137 OFFCURVE",
"573 242 CURVE SMOOTH",
"573 1220 LINE SMOOTH",
"573 1325 OFFCURVE",
"608 1353 OFFCURVE",
"678 1353 CURVE SMOOTH",
"764 1353 LINE",
"764 1462 LINE",
"57 1462 LINE",
"57 1353 LINE",
"143 1353 LINE SMOOTH",
"214 1353 OFFCURVE",
"248 1324 OFFCURVE",
"248 1220 CURVE SMOOTH",
"248 242 LINE SMOOTH",
"248 138 OFFCURVE",
"214 109 OFFCURVE",
"143 109 CURVE SMOOTH",
"57 109 LINE",
"57 0 LINE",
"764 0 LINE",
"764 109 LINE"
);
}
);
width = 821;
},
{
layerId = "6A9350D6-C757-41BD-9D0D-806F72644A83";
paths = (
{
closed = 1;
nodes = (
"719 125 LINE SMOOTH",
"678 125 OFFCURVE",
"641 165 OFFCURVE",
"641 225 CURVE SMOOTH",
"641 1227 LINE SMOOTH",
"641 1300 OFFCURVE",
"667 1337 OFFCURVE",
"719 1337 CURVE SMOOTH",
"831 1337 LINE",
"831 1462 LINE",
"43 1462 LINE",
"43 1337 LINE",
"152 1337 LINE SMOOTH",
"189 1337 OFFCURVE",
"231 1302 OFFCURVE",
"231 1229 CURVE SMOOTH",
"231 221 LINE SMOOTH",
"231 161 OFFCURVE",
"189 125 OFFCURVE",
"152 125 CURVE SMOOTH",
"43 125 LINE",
"43 0 LINE",
"831 0 LINE",
"831 125 LINE"
);
}
);
width = 872;
}
);
note = glyph44;
unicode = 0049;
},
{
glyphname = glyph45;
lastChange = "2021-04-16 11:25:06 +0000";
layers = (
{
layerId = "0DE963AB-769B-4021-B20D-45864FAF5663";
paths = (
{
closed = 1;
nodes = (
"231 -492 OFFCURVE",
"330 -431 OFFCURVE",
"372 -296 CURVE SMOOTH",
"393 -229 OFFCURVE",
"403 -141 OFFCURVE",
"403 -33 CURVE SMOOTH",
"403 1241 LINE SMOOTH",
"403 1327 OFFCURVE",
"407 1392 OFFCURVE",
"443 1409 CURVE SMOOTH",
"459 1417 OFFCURVE",
"484 1421 OFFCURVE",
"518 1421 CURVE SMOOTH",
"604 1421 LINE",
"604 1462 LINE",
"147 1462 LINE",
"147 1421 LINE",
"231 1421 LINE SMOOTH",
"300 1421 OFFCURVE",
"330 1410 OFFCURVE",
"339 1358 CURVE SMOOTH",
"344 1332 OFFCURVE",
"346 1293 OFFCURVE",
"346 1241 CURVE SMOOTH",
"346 -35 LINE SMOOTH",
"346 -314 OFFCURVE",
"285 -440 OFFCURVE",
"61 -440 CURVE SMOOTH",
"45 -440 LINE",
"45 -492 LINE",
"51 -492 LINE SMOOTH"
);
}
);
width = 702;
},
{
layerId = "8C5547AF-2EE0-40C3-888E-C5581C9C595C";
paths = (
{
closed = 1;
nodes = (
"295 -492 OFFCURVE",
"444 -372 OFFCURVE",
"444 -25 CURVE SMOOTH",
"444 1235 LINE SMOOTH",
"444 1376 OFFCURVE",
"492 1397 OFFCURVE",
"588 1397 CURVE SMOOTH",
"643 1397 LINE",
"643 1462 LINE",
"108 1462 LINE",
"108 1397 LINE",
"162 1397 LINE SMOOTH",
"257 1397 OFFCURVE",
"305 1375 OFFCURVE",
"305 1239 CURVE SMOOTH",
"305 -27 LINE SMOOTH",
"305 -308 OFFCURVE",
"223 -416 OFFCURVE",
"26 -416 CURVE SMOOTH",
"8 -416 LINE",
"8 -492 LINE",
"31 -492 LINE SMOOTH"
);
}
);
width = 718;
},
{
layerId = "7FEA46FF-516C-4946-9F17-9EEA76F5F564";
paths = (
{
closed = 1;
nodes = (
"143 -492 OFFCURVE",
"260 -464 OFFCURVE",
"344 -392 CURVE SMOOTH",
"428 -319 OFFCURVE",
"479 -200 OFFCURVE",
"479 -16 CURVE SMOOTH",
"479 1229 LINE SMOOTH",
"479 1350 OFFCURVE",
"546 1376 OFFCURVE",
"647 1376 CURVE SMOOTH",
"674 1376 LINE",
"674 1462 LINE",
"78 1462 LINE",
"78 1376 LINE",
"104 1376 LINE SMOOTH",
"203 1376 OFFCURVE",
"272 1352 OFFCURVE",
"272 1237 CURVE SMOOTH",
"272 -18 LINE SMOOTH",
"272 -162 OFFCURVE",
"247 -257 OFFCURVE",
"200 -315 CURVE SMOOTH",
"153 -373 OFFCURVE",
"84 -395 OFFCURVE",
"-4 -395 CURVE SMOOTH",
"-23 -395 LINE",
"-23 -492 LINE",
"12 -492 LINE SMOOTH"
);
}
);
width = 731;
},
{
layerId = "3CCD85FA-69E6-46C4-A32D-64775BF55ABF";
paths = (
{
closed = 1;
nodes = (
"25 1354 LINE",
"111 1354 LINE SMOOTH",
"179 1354 OFFCURVE",
"215 1326 OFFCURVE",
"215 1229 CURVE SMOOTH",
"215 -6 LINE SMOOTH",
"215 -143 OFFCURVE",
"183 -236 OFFCURVE",
"135 -293 CURVE SMOOTH",
"87 -350 OFFCURVE",
"22 -373 OFFCURVE",
"-43 -373 CURVE SMOOTH",
"-80 -373 LINE",
"-80 -492 LINE",
"-6 -492 LINE SMOOTH",
"87 -492 OFFCURVE",
"179 -479 OFFCURVE",
"260 -448 CURVE SMOOTH",
"300 -433 OFFCURVE",
"337 -413 OFFCURVE",
"372 -388 CURVE SMOOTH",
"440 -338 OFFCURVE",
"490 -265 OFFCURVE",
"518 -169 CURVE SMOOTH",
"532 -121 OFFCURVE",
"539 -66 OFFCURVE",
"539 -4 CURVE SMOOTH",
"539 1221 LINE SMOOTH",
"539 1326 OFFCURVE",
"576 1354 OFFCURVE",
"645 1354 CURVE SMOOTH",
"731 1354 LINE",
"731 1462 LINE",
"25 1462 LINE"
);
}
);
width = 754;
},
{
layerId = "6A9350D6-C757-41BD-9D0D-806F72644A83";
paths = (
{
closed = 1;
nodes = (
"195 -492 OFFCURVE",
"342 -459 OFFCURVE",
"458 -383 CURVE SMOOTH",
"574 -307 OFFCURVE",
"650 -181 OFFCURVE",
"650 4 CURVE SMOOTH",
"650 1231 LINE SMOOTH",
"650 1302 OFFCURVE",
"696 1337 OFFCURVE",
"731 1337 CURVE SMOOTH",
"840 1337 LINE",
"840 1462 LINE",
"51 1462 LINE",
"51 1337 LINE",
"162 1337 LINE SMOOTH",
"195 1337 OFFCURVE",
"240 1304 OFFCURVE",
"240 1233 CURVE SMOOTH",
"240 2 LINE SMOOTH",
"240 -173 OFFCURVE",
"177 -276 OFFCURVE",
"101 -322 CURVE SMOOTH",
"62 -345 OFFCURVE",
"27 -356 OFFCURVE",
"-6 -356 CURVE SMOOTH",
"-55 -356 LINE",
"-55 -492 LINE",
"47 -492 LINE SMOOTH"
);
}
);
width = 870;
}
);
note = glyph45;
unicode = 004A;
},
{
glyphname = glyph46;
lastChange = "2021-04-16 11:25:06 +0000";
layers = (
{
layerId = "0DE963AB-769B-4021-B20D-45864FAF5663";
paths = (
{
closed = 1;
nodes = (
"477 41 LINE SMOOTH",
"409 41 OFFCURVE",
"378 53 OFFCURVE",
"369 105 CURVE SMOOTH",
"364 130 OFFCURVE",
"362 169 OFFCURVE",
"362 221 CURVE SMOOTH",
"362 451 LINE",
"639 782 LINE",
"1116 213 LINE SMOOTH",
"1196 119 OFFCURVE",
"1266 37 OFFCURVE",
"1314 16 CURVE SMOOTH",
"1336 5 OFFCURVE",
"1362 0 OFFCURVE",
"1392 0 CURVE SMOOTH",
"1405 0 LINE",
"1405 51 LINE",
"1400 51 LINE SMOOTH",
"1365 51 OFFCURVE",
"1331 67 OFFCURVE",
"1282 113 CURVE SMOOTH",
"1257 136 OFFCURVE",
"1226 170 OFFCURVE",
"1187 217 CURVE SMOOTH",
"677 825 LINE",
"1024 1235 LINE SMOOTH",
"1095 1319 OFFCURVE",
"1134 1373 OFFCURVE",
"1181 1401 CURVE SMOOTH",
"1204 1414 OFFCURVE",
"1234 1421 OFFCURVE",
"1269 1421 CURVE",
"1269 1462 LINE",
"948 1462 LINE",
"948 1421 LINE",
"986 1421 OFFCURVE",
"1014 1420 OFFCURVE",
"1033 1417 CURVE SMOOTH",
"1051 1414 OFFCURVE",
"1060 1406 OFFCURVE",
"1060 1393 CURVE SMOOTH",
"1060 1370 OFFCURVE",
"1049 1352 OFFCURVE",
"1014 1309 CURVE SMOOTH",
"936 1214 LINE",
"362 530 LINE",
"362 1241 LINE SMOOTH",
"362 1327 OFFCURVE",
"365 1392 OFFCURVE",
"401 1409 CURVE SMOOTH",
"418 1417 OFFCURVE",
"443 1421 OFFCURVE",
"477 1421 CURVE SMOOTH",
"565 1421 LINE",
"565 1462 LINE",
"102 1462 LINE",
"102 1421 LINE",
"190 1421 LINE SMOOTH",
"258 1421 OFFCURVE",
"288 1410 OFFCURVE",
"298 1358 CURVE SMOOTH",
"303 1332 OFFCURVE",
"305 1293 OFFCURVE",
"305 1241 CURVE SMOOTH",
"305 221 LINE SMOOTH",
"305 135 OFFCURVE",
"301 72 OFFCURVE",
"266 54 CURVE SMOOTH",
"249 45 OFFCURVE",
"224 41 OFFCURVE",
"190 41 CURVE SMOOTH",
"102 41 LINE",
"102 0 LINE",
"569 0 LINE",
"569 41 LINE"
);
}
);
width = 1347;
},
{
layerId = "8C5547AF-2EE0-40C3-888E-C5581C9C595C";
paths = (
{
closed = 1;
nodes = (
"569 66 LINE SMOOTH",
"474 66 OFFCURVE",
"426 86 OFFCURVE",
"426 227 CURVE SMOOTH",
"426 504 LINE",
"647 731 LINE",
"1057 197 LINE SMOOTH",
"1138 90 OFFCURVE",
"1189 36 OFFCURVE",
"1265 16 CURVE SMOOTH",
"1302 5 OFFCURVE",
"1352 0 OFFCURVE",
"1415 0 CURVE SMOOTH",
"1434 0 LINE",
"1434 70 LINE",
"1429 70 LINE SMOOTH",
"1364 70 OFFCURVE",
"1306 115 OFFCURVE",
"1210 236 CURVE SMOOTH",
"743 840 LINE",
"1063 1208 LINE SMOOTH",
"1170 1331 OFFCURVE",
"1222 1396 OFFCURVE",
"1323 1399 CURVE",
"1323 1462 LINE",
"930 1462 LINE",
"930 1399 LINE",
"965 1399 OFFCURVE",
"992 1397 OFFCURVE",
"1010 1392 CURVE SMOOTH",
"1027 1387 OFFCURVE",
"1036 1376 OFFCURVE",
"1036 1360 CURVE SMOOTH",
"1036 1342 OFFCURVE",
"1028 1320 OFFCURVE",
"1012 1293 CURVE SMOOTH",
"995 1266 OFFCURVE",
"964 1226 OFFCURVE",
"917 1171 CURVE SMOOTH",
"426 596 LINE",
"426 1235 LINE SMOOTH",
"426 1376 OFFCURVE",
"474 1397 OFFCURVE",
"569 1397 CURVE SMOOTH",
"625 1397 LINE",
"625 1462 LINE",
"88 1462 LINE",
"88 1397 LINE",
"143 1397 LINE SMOOTH",
"239 1397 OFFCURVE",
"287 1375 OFFCURVE",
"287 1239 CURVE SMOOTH",
"287 223 LINE SMOOTH",
"287 84 OFFCURVE",
"239 66 OFFCURVE",
"143 66 CURVE SMOOTH",
"88 66 LINE",
"88 0 LINE",
"627 0 LINE",
"627 66 LINE"
);
}
);
width = 1394;
},
{
layerId = "7FEA46FF-516C-4946-9F17-9EEA76F5F564";
paths = (
{
closed = 1;
nodes = (
"479 1350 OFFCURVE",
"546 1376 OFFCURVE",
"647 1376 CURVE SMOOTH",
"674 1376 LINE",
"674 1462 LINE",
"78 1462 LINE",
"78 1376 LINE",
"104 1376 LINE SMOOTH",
"203 1376 OFFCURVE",
"272 1352 OFFCURVE",
"272 1237 CURVE SMOOTH",
"272 223 LINE SMOOTH",
"272 109 OFFCURVE",
"205 86 OFFCURVE",
"104 86 CURVE SMOOTH",
"78 86 LINE",
"78 0 LINE",
"674 0 LINE",
"674 86 LINE",
"647 86 LINE SMOOTH",
"546 86 OFFCURVE",
"479 112 OFFCURVE",
"479 233 CURVE SMOOTH",
"479 549 LINE",
"653 690 LINE",
"1006 184 LINE SMOOTH",
"1057 111 OFFCURVE",
"1096 65 OFFCURVE",
"1156 37 CURVE SMOOTH",
"1216 9 OFFCURVE",
"1299 0 OFFCURVE",
"1436 0 CURVE SMOOTH",
"1458 0 LINE",
"1458 86 LINE",
"1454 86 LINE SMOOTH",
"1378 86 OFFCURVE",
"1308 142 OFFCURVE",
"1229 250 CURVE SMOOTH",
"797 852 LINE",
"1094 1186 LINE SMOOTH",
"1188 1292 OFFCURVE",
"1271 1378 OFFCURVE",
"1368 1378 CURVE",
"1368 1462 LINE",
"915 1462 LINE",
"915 1378 LINE",
"949 1378 OFFCURVE",
"974 1375 OFFCURVE",
"991 1369 CURVE SMOOTH",
"1008 1362 OFFCURVE",
"1016 1350 OFFCURVE",
"1016 1333 CURVE SMOOTH",
"1016 1285 OFFCURVE",
"975 1220 OFFCURVE",
"903 1137 CURVE SMOOTH",
"479 651 LINE",
"479 1229 LINE SMOOTH"
);
}
);
width = 1434;
},
{
layerId = "3CCD85FA-69E6-46C4-A32D-64775BF55ABF";
paths = (
{
closed = 1;
nodes = (
"571 1326 OFFCURVE",
"608 1354 OFFCURVE",
"678 1354 CURVE SMOOTH",
"764 1354 LINE",
"764 1462 LINE",
"57 1462 LINE",
"57 1354 LINE",
"143 1354 LINE SMOOTH",
"212 1354 OFFCURVE",
"248 1326 OFFCURVE",
"248 1229 CURVE SMOOTH",
"248 231 LINE SMOOTH",
"248 134 OFFCURVE",
"213 109 OFFCURVE",
"143 109 CURVE SMOOTH",
"57 109 LINE",
"57 0 LINE",
"764 0 LINE",
"764 109 LINE",
"678 109 LINE SMOOTH",
"608 109 OFFCURVE",
"571 137 OFFCURVE",
"571 242 CURVE SMOOTH",
"571 588 LINE",
"662 659 LINE",
"938 188 LINE SMOOTH",
"975 126 OFFCURVE",
"1013 76 OFFCURVE",
"1076 46 CURVE SMOOTH",
"1119 25 OFFCURVE",
"1177 12 OFFCURVE",
"1256 5 CURVE SMOOTH",
"1295 2 OFFCURVE",
"1341 0 OFFCURVE",
"1393 0 CURVE SMOOTH",
"1503 0 LINE",
"1503 109 LINE",
"1495 109 LINE SMOOTH",
"1398 109 OFFCURVE",
"1334 158 OFFCURVE",
"1262 274 CURVE SMOOTH",
"881 879 LINE",
"1151 1176 LINE SMOOTH",
"1242 1278 OFFCURVE",
"1333 1356 OFFCURVE",
"1446 1356 CURVE",
"1446 1462 LINE",
"891 1462 LINE",
"891 1356 LINE",
"975 1356 OFFCURVE",
"1006 1341 OFFCURVE",
"1006 1296 CURVE SMOOTH",
"1006 1232 OFFCURVE",
"965 1170 OFFCURVE",
"889 1090 CURVE SMOOTH",
"571 743 LINE",
"571 1221 LINE SMOOTH"
);
}
);
width = 1503;
},
{
layerId = "6A9350D6-C757-41BD-9D0D-806F72644A83";
paths = (
{
closed = 1;
nodes = (
"741 125 LINE SMOOTH",
"686 125 OFFCURVE",
"641 160 OFFCURVE",
"641 223 CURVE SMOOTH",
"641 596 LINE",
"686 625 LINE",
"903 268 LINE SMOOTH",
"966 164 OFFCURVE",
"1018 98 OFFCURVE",
"1090 58 CURVE SMOOTH",
"1161 17 OFFCURVE",
"1255 0 OFFCURVE",
"1403 0 CURVE SMOOTH",
"1599 0 LINE",
"1599 125 LINE",
"1587 125 LINE SMOOTH",
"1524 125 OFFCURVE",
"1481 145 OFFCURVE",
"1437 197 CURVE SMOOTH",
"1414 223 OFFCURVE",
"1387 259 OFFCURVE",
"1356 305 CURVE SMOOTH",
"956 891 LINE",
"1227 1167 LINE SMOOTH",
"1319 1263 OFFCURVE",
"1413 1339 OFFCURVE",
"1536 1339 CURVE",
"1536 1462 LINE",
"915 1462 LINE",
"915 1339 LINE",
"1011 1339 OFFCURVE",
"1042 1320 OFFCURVE",
"1042 1268 CURVE SMOOTH",
"1042 1196 OFFCURVE",
"1000 1139 OFFCURVE",
"915 1047 CURVE SMOOTH",
"641 741 LINE",
"641 1239 LINE SMOOTH",
"641 1304 OFFCURVE",
"668 1337 OFFCURVE",
"721 1337 CURVE SMOOTH",
"791 1337 LINE",
"791 1462 LINE",
"43 1462 LINE",
"43 1337 LINE",
"143 1337 LINE SMOOTH",
"195 1337 OFFCURVE",
"231 1301 OFFCURVE",
"231 1241 CURVE SMOOTH",
"231 227 LINE SMOOTH",
"231 159 OFFCURVE",
"186 125 OFFCURVE",
"131 125 CURVE SMOOTH",
"43 125 LINE",
"43 0 LINE",
"791 0 LINE",
"791 125 LINE"
);
}
);
width = 1599;
}
);
note = glyph46;
unicode = 004B;
},
{
glyphname = glyph47;
lastChange = "2021-04-16 11:25:06 +0000";
layers = (
{
layerId = "0DE963AB-769B-4021-B20D-45864FAF5663";
paths = (
{
closed = 1;
nodes = (
"1046 420 LINE",
"1036 193 LINE SMOOTH",
"1031 81 OFFCURVE",
"1020 51 OFFCURVE",
"913 51 CURVE SMOOTH",
"362 51 LINE",
"362 1241 LINE SMOOTH",
"362 1327 OFFCURVE",
"365 1392 OFFCURVE",
"401 1409 CURVE SMOOTH",
"418 1417 OFFCURVE",
"443 1421 OFFCURVE",
"477 1421 CURVE SMOOTH",
"559 1421 LINE",
"559 1462 LINE",
"102 1462 LINE",
"102 1421 LINE",
"190 1421 LINE SMOOTH",
"258 1421 OFFCURVE",
"288 1410 OFFCURVE",
"298 1358 CURVE SMOOTH",
"303 1332 OFFCURVE",
"305 1293 OFFCURVE",
"305 1241 CURVE SMOOTH",
"305 221 LINE SMOOTH",
"305 135 OFFCURVE",
"301 72 OFFCURVE",
"266 54 CURVE SMOOTH",
"249 45 OFFCURVE",
"224 41 OFFCURVE",
"190 41 CURVE SMOOTH",
"102 41 LINE",
"102 0 LINE",
"1073 0 LINE",
"1087 420 LINE"
);
}
);
width = 1193;
},
{
layerId = "8C5547AF-2EE0-40C3-888E-C5581C9C595C";
paths = (
{
closed = 1;
nodes = (
"1067 430 LINE",
"1051 244 LINE SMOOTH",
"1042 145 OFFCURVE",
"1012 80 OFFCURVE",
"897 80 CURVE SMOOTH",
"426 80 LINE",
"426 1239 LINE SMOOTH",
"426 1375 OFFCURVE",
"477 1397 OFFCURVE",
"569 1397 CURVE SMOOTH",
"623 1397 LINE",
"623 1462 LINE",
"88 1462 LINE",
"88 1397 LINE",
"143 1397 LINE SMOOTH",
"239 1397 OFFCURVE",
"287 1376 OFFCURVE",
"287 1235 CURVE SMOOTH",
"287 227 LINE SMOOTH",
"287 86 OFFCURVE",
"239 66 OFFCURVE",
"143 66 CURVE SMOOTH",
"88 66 LINE",
"88 0 LINE",
"1128 0 LINE",
"1143 430 LINE"
);
}
);
width = 1239;
},
{
layerId = "7FEA46FF-516C-4946-9F17-9EEA76F5F564";
paths = (
{
closed = 1;
nodes = (
"1083 440 LINE",
"1063 287 LINE SMOOTH",
"1051 190 OFFCURVE",
"999 102 OFFCURVE",
"883 102 CURVE SMOOTH",
"479 102 LINE",
"479 1237 LINE SMOOTH",
"479 1352 OFFCURVE",
"548 1376 OFFCURVE",
"647 1376 CURVE SMOOTH",
"674 1376 LINE",
"674 1462 LINE",
"78 1462 LINE",
"78 1376 LINE",
"104 1376 LINE SMOOTH",
"207 1376 OFFCURVE",
"272 1349 OFFCURVE",
"272 1229 CURVE SMOOTH",
"272 233 LINE SMOOTH",
"272 113 OFFCURVE",
"207 86 OFFCURVE",
"104 86 CURVE SMOOTH",
"78 86 LINE",
"78 0 LINE",
"1176 0 LINE",
"1190 440 LINE"
);
}
);
width = 1276;
},
{
layerId = "3CCD85FA-69E6-46C4-A32D-64775BF55ABF";
paths = (
{
closed = 1;
nodes = (
"1157 457 LINE",
"1124 303 LINE SMOOTH",
"1100 187 OFFCURVE",
"1050 125 OFFCURVE",
"954 125 CURVE SMOOTH",
"573 125 LINE",
"573 1229 LINE SMOOTH",
"573 1327 OFFCURVE",
"611 1354 OFFCURVE",
"678 1354 CURVE SMOOTH",
"764 1354 LINE",
"764 1462 LINE",
"57 1462 LINE",
"57 1354 LINE",
"143 1354 LINE SMOOTH",
"214 1354 OFFCURVE",
"248 1325 OFFCURVE",
"248 1221 CURVE SMOOTH",
"248 242 LINE SMOOTH",
"248 138 OFFCURVE",
"214 109 OFFCURVE",
"143 109 CURVE SMOOTH",
"57 109 LINE",
"57 0 LINE",
"1257 0 LINE",
"1272 457 LINE"
);
}
);
width = 1339;
},
{
layerId = "6A9350D6-C757-41BD-9D0D-806F72644A83";
paths = (
{
closed = 1;
nodes = (
"1212 469 LINE",
"1169 315 LINE SMOOTH",
"1134 182 OFFCURVE",
"1081 141 OFFCURVE",
"1008 141 CURVE SMOOTH",
"643 141 LINE",
"643 1237 LINE SMOOTH",
"643 1302 OFFCURVE",
"658 1337 OFFCURVE",
"731 1337 CURVE SMOOTH",
"831 1337 LINE",
"831 1462 LINE",
"43 1462 LINE",
"43 1337 LINE",
"135 1337 LINE SMOOTH",
"190 1337 OFFCURVE",
"231 1304 OFFCURVE",
"231 1233 CURVE SMOOTH",
"231 223 LINE SMOOTH",
"231 160 OFFCURVE",
"189 125 OFFCURVE",
"152 125 CURVE SMOOTH",
"43 125 LINE",
"43 0 LINE",
"1319 0 LINE",
"1333 469 LINE"
);
}
);
width = 1386;
}
);
note = glyph47;
unicode = 004C;
},
{
glyphname = glyph48;
lastChange = "2021-04-16 11:25:06 +0000";
layers = (
{
layerId = "0DE963AB-769B-4021-B20D-45864FAF5663";
paths = (
{
closed = 1;
nodes = (
"471 41 LINE SMOOTH",
"402 41 OFFCURVE",
"372 53 OFFCURVE",
"363 105 CURVE SMOOTH",
"358 130 OFFCURVE",
"356 169 OFFCURVE",
"356 221 CURVE SMOOTH",
"356 1358 LINE",
"890 0 LINE",
"964 0 LINE",
"1501 1370 LINE",
"1501 221 LINE SMOOTH",
"1501 135 OFFCURVE",
"1497 72 OFFCURVE",
"1462 54 CURVE SMOOTH",
"1445 45 OFFCURVE",
"1420 41 OFFCURVE",
"1386 41 CURVE SMOOTH",
"1273 41 LINE",
"1273 0 LINE",
"1757 0 LINE",
"1757 41 LINE",
"1673 41 LINE SMOOTH",
"1605 41 OFFCURVE",
"1574 53 OFFCURVE",
"1565 105 CURVE SMOOTH",
"1560 130 OFFCURVE",
"1558 169 OFFCURVE",
"1558 221 CURVE SMOOTH",
"1558 1241 LINE SMOOTH",
"1558 1327 OFFCURVE",
"1561 1392 OFFCURVE",
"1597 1409 CURVE SMOOTH",
"1614 1417 OFFCURVE",
"1639 1421 OFFCURVE",
"1673 1421 CURVE SMOOTH",
"1757 1421 LINE",
"1757 1462 LINE",
"1476 1462 LINE",
"927 63 LINE",
"376 1462 LINE",
"102 1462 LINE",
"102 1421 LINE",
"190 1421 LINE SMOOTH",
"258 1421 OFFCURVE",
"288 1410 OFFCURVE",
"298 1358 CURVE SMOOTH",
"303 1332 OFFCURVE",
"305 1293 OFFCURVE",
"305 1241 CURVE SMOOTH",
"305 221 LINE SMOOTH",
"305 135 OFFCURVE",
"301 72 OFFCURVE",
"266 54 CURVE SMOOTH",
"249 45 OFFCURVE",
"224 41 OFFCURVE",
"190 41 CURVE SMOOTH",
"102 41 LINE",
"102 0 LINE",
"538 0 LINE",
"538 41 LINE"
);
}
);
width = 1859;
},
{
layerId = "8C5547AF-2EE0-40C3-888E-C5581C9C595C";
paths = (
{
closed = 1;
nodes = (
"512 66 LINE SMOOTH",
"413 66 OFFCURVE",
"379 86 OFFCURVE",
"379 227 CURVE SMOOTH",
"379 1329 LINE",
"881 0 LINE",
"975 0 LINE",
"1474 1337 LINE",
"1474 217 LINE",
"1469 84 OFFCURVE",
"1437 66 OFFCURVE",
"1341 66 CURVE SMOOTH",
"1288 66 LINE",
"1288 0 LINE",
"1804 0 LINE",
"1804 66 LINE",
"1751 66 LINE SMOOTH",
"1655 66 OFFCURVE",
"1608 86 OFFCURVE",
"1608 227 CURVE SMOOTH",
"1608 1235 LINE SMOOTH",
"1608 1376 OFFCURVE",
"1655 1397 OFFCURVE",
"1751 1397 CURVE SMOOTH",
"1804 1397 LINE",
"1804 1462 LINE",
"1429 1462 LINE",
"950 188 LINE",
"469 1462 LINE",
"88 1462 LINE",
"88 1397 LINE",
"143 1397 LINE SMOOTH",
"239 1397 OFFCURVE",
"287 1375 OFFCURVE",
"287 1239 CURVE SMOOTH",
"287 223 LINE SMOOTH",
"287 84 OFFCURVE",
"239 66 OFFCURVE",
"143 66 CURVE SMOOTH",
"88 66 LINE",
"88 0 LINE",
"545 0 LINE",
"545 66 LINE"
);
}
);
width = 1892;
},
{
layerId = "7FEA46FF-516C-4946-9F17-9EEA76F5F564";
paths = (
{
closed = 1;
nodes = (
"1817 86 LINE SMOOTH",
"1714 86 OFFCURVE",
"1649 113 OFFCURVE",
"1649 233 CURVE SMOOTH",
"1649 1229 LINE SMOOTH",
"1649 1349 OFFCURVE",
"1714 1376 OFFCURVE",
"1817 1376 CURVE SMOOTH",
"1843 1376 LINE",
"1843 1462 LINE",
"1389 1462 LINE",
"969 291 LINE",
"545 1462 LINE",
"78 1462 LINE",
"78 1376 LINE",
"104 1376 LINE SMOOTH",
"203 1376 OFFCURVE",
"272 1352 OFFCURVE",
"272 1237 CURVE SMOOTH",
"272 223 LINE SMOOTH",
"272 109 OFFCURVE",
"205 86 OFFCURVE",
"104 86 CURVE SMOOTH",
"78 86 LINE",
"78 0 LINE",
"551 0 LINE",
"551 86 LINE",
"545 86 LINE SMOOTH",
"444 86 OFFCURVE",
"397 113 OFFCURVE",
"397 233 CURVE SMOOTH",
"397 1305 LINE",
"872 0 LINE",
"983 0 LINE",
"1452 1309 LINE",
"1452 215 LINE",
"1447 108 OFFCURVE",
"1399 86 OFFCURVE",
"1305 86 CURVE SMOOTH",
"1298 86 LINE",
"1298 0 LINE",
"1843 0 LINE",
"1843 86 LINE"
);
}
);
width = 1921;
},
{
layerId = "3CCD85FA-69E6-46C4-A32D-64775BF55ABF";
paths = (
{
closed = 1;
nodes = (
"1806 109 LINE SMOOTH",
"1737 109 OFFCURVE",
"1702 138 OFFCURVE",
"1702 242 CURVE SMOOTH",
"1702 1221 LINE SMOOTH",
"1702 1325 OFFCURVE",
"1737 1354 OFFCURVE",
"1806 1354 CURVE SMOOTH",
"1892 1354 LINE",
"1892 1462 LINE",
"1313 1462 LINE",
"987 473 LINE",
"647 1462 LINE",
"57 1462 LINE",
"57 1354 LINE",
"143 1354 LINE SMOOTH",
"212 1354 OFFCURVE",
"248 1326 OFFCURVE",
"248 1229 CURVE SMOOTH",
"248 231 LINE SMOOTH",
"248 134 OFFCURVE",
"213 109 OFFCURVE",
"143 109 CURVE SMOOTH",
"57 109 LINE",
"57 0 LINE",
"565 0 LINE",
"565 109 LINE",
"553 109 LINE SMOOTH",
"452 109 OFFCURVE",
"401 130 OFFCURVE",
"401 242 CURVE SMOOTH",
"401 1260 LINE",
"834 0 LINE",
"973 0 LINE",
"1386 1260 LINE",
"1386 223 LINE SMOOTH",
"1386 127 OFFCURVE",
"1347 109 OFFCURVE",
"1257 109 CURVE SMOOTH",
"1237 109 LINE",
"1237 0 LINE",
"1892 0 LINE",
"1892 109 LINE"
);
}
);
width = 1950;
},
{
layerId = "6A9350D6-C757-41BD-9D0D-806F72644A83";
paths = (
{
closed = 1;
nodes = (
"559 125 LINE SMOOTH",
"460 125 OFFCURVE",
"405 139 OFFCURVE",
"405 248 CURVE SMOOTH",
"405 1227 LINE",
"805 0 LINE",
"967 0 LINE",
"1339 1223 LINE",
"1339 250 LINE SMOOTH",
"1339 157 OFFCURVE",
"1307 125 OFFCURVE",
"1223 125 CURVE SMOOTH",
"1192 125 LINE",
"1192 0 LINE",
"1929 0 LINE",
"1929 125 LINE",
"1841 125 LINE SMOOTH",
"1776 125 OFFCURVE",
"1743 157 OFFCURVE",
"1743 221 CURVE SMOOTH",
"1743 1239 LINE SMOOTH",
"1743 1302 OFFCURVE",
"1785 1337 OFFCURVE",
"1821 1337 CURVE SMOOTH",
"1929 1337 LINE",
"1929 1462 LINE",
"1257 1462 LINE",
"1001 608 LINE",
"723 1462 LINE",
"43 1462 LINE",
"43 1337 LINE",
"143 1337 LINE SMOOTH",
"187 1337 OFFCURVE",
"231 1301 OFFCURVE",
"231 1225 CURVE SMOOTH",
"231 238 LINE SMOOTH",
"231 158 OFFCURVE",
"187 125 OFFCURVE",
"111 125 CURVE SMOOTH",
"43 125 LINE",
"43 0 LINE",
"578 0 LINE",
"578 125 LINE"
);
}
);
width = 1970;
}
);
note = glyph48;
unicode = 004D;
},
{
glyphname = glyph49;
lastChange = "2021-04-16 11:25:06 +0000";
layers = (
{
layerId = "0DE963AB-769B-4021-B20D-45864FAF5663";
paths = (
{
closed = 1;
nodes = (
"471 41 LINE SMOOTH",
"402 41 OFFCURVE",
"372 53 OFFCURVE",
"363 105 CURVE SMOOTH",
"358 130 OFFCURVE",
"356 169 OFFCURVE",
"356 221 CURVE SMOOTH",
"356 1337 LINE",
"1161 0 LINE",
"1212 0 LINE",
"1212 1241 LINE SMOOTH",
"1212 1327 OFFCURVE",
"1215 1392 OFFCURVE",
"1251 1409 CURVE SMOOTH",
"1268 1417 OFFCURVE",
"1293 1421 OFFCURVE",
"1327 1421 CURVE SMOOTH",
"1411 1421 LINE",
"1411 1462 LINE",
"962 1462 LINE",
"962 1421 LINE",
"1046 1421 LINE SMOOTH",
"1114 1421 OFFCURVE",
"1144 1410 OFFCURVE",
"1154 1358 CURVE SMOOTH",
"1159 1332 OFFCURVE",
"1161 1293 OFFCURVE",
"1161 1241 CURVE SMOOTH",
"1161 113 LINE",
"348 1462 LINE",
"102 1462 LINE",
"102 1421 LINE",
"190 1421 LINE SMOOTH",
"258 1421 OFFCURVE",
"288 1410 OFFCURVE",
"298 1358 CURVE SMOOTH",
"303 1332 OFFCURVE",
"305 1293 OFFCURVE",
"305 1241 CURVE SMOOTH",
"305 221 LINE SMOOTH",
"305 135 OFFCURVE",
"301 72 OFFCURVE",
"266 54 CURVE SMOOTH",
"249 45 OFFCURVE",
"224 41 OFFCURVE",
"190 41 CURVE SMOOTH",
"102 41 LINE",
"102 0 LINE",
"555 0 LINE",
"555 41 LINE"
);
}
);
width = 1497;
},
{
layerId = "8C5547AF-2EE0-40C3-888E-C5581C9C595C";
paths = (
{
closed = 1;
nodes = (
"522 66 LINE SMOOTH",
"426 66 OFFCURVE",
"379 86 OFFCURVE",
"379 227 CURVE SMOOTH",
"379 1251 LINE",
"1163 0 LINE",
"1266 0 LINE",
"1266 1235 LINE SMOOTH",
"1266 1376 OFFCURVE",
"1313 1397 OFFCURVE",
"1409 1397 CURVE SMOOTH",
"1462 1397 LINE",
"1462 1462 LINE",
"979 1462 LINE",
"979 1397 LINE",
"1030 1397 LINE SMOOTH",
"1126 1397 OFFCURVE",
"1175 1375 OFFCURVE",
"1175 1239 CURVE SMOOTH",
"1175 231 LINE",
"405 1462 LINE",
"88 1462 LINE",
"88 1397 LINE",
"143 1397 LINE SMOOTH",
"239 1397 OFFCURVE",
"287 1375 OFFCURVE",
"287 1239 CURVE SMOOTH",
"287 227 LINE SMOOTH",
"287 86 OFFCURVE",
"239 66 OFFCURVE",
"143 66 CURVE SMOOTH",
"88 66 LINE",
"88 0 LINE",
"575 0 LINE",
"575 66 LINE"
);
}
);
width = 1531;
},
{
layerId = "7FEA46FF-516C-4946-9F17-9EEA76F5F564";
paths = (
{
closed = 1;
nodes = (
"1311 1349 OFFCURVE",
"1376 1376 OFFCURVE",
"1479 1376 CURVE SMOOTH",
"1505 1376 LINE",
"1505 1462 LINE",
"991 1462 LINE",
"991 1376 LINE",
"1018 1376 LINE SMOOTH",
"1117 1376 OFFCURVE",
"1186 1352 OFFCURVE",
"1186 1237 CURVE SMOOTH",
"1186 330 LINE",
"453 1462 LINE",
"78 1462 LINE",
"78 1376 LINE",
"104 1376 LINE SMOOTH",
"203 1376 OFFCURVE",
"272 1352 OFFCURVE",
"272 1237 CURVE SMOOTH",
"272 233 LINE SMOOTH",
"272 113 OFFCURVE",
"207 86 OFFCURVE",
"104 86 CURVE SMOOTH",
"78 86 LINE",
"78 0 LINE",
"592 0 LINE",
"592 86 LINE",
"565 86 LINE SMOOTH",
"464 86 OFFCURVE",
"397 112 OFFCURVE",
"397 233 CURVE SMOOTH",
"397 1180 LINE",
"1165 0 LINE",
"1311 0 LINE",
"1311 1229 LINE SMOOTH"
);
}
);
width = 1563;
},
{
layerId = "3CCD85FA-69E6-46C4-A32D-64775BF55ABF";
paths = (
{
closed = 1;
nodes = (
"1389 1325 OFFCURVE",
"1424 1354 OFFCURVE",
"1493 1354 CURVE SMOOTH",
"1579 1354 LINE",
"1579 1462 LINE",
"1044 1462 LINE",
"1044 1354 LINE",
"1130 1354 LINE SMOOTH",
"1197 1354 OFFCURVE",
"1235 1326 OFFCURVE",
"1235 1229 CURVE SMOOTH",
"1235 440 LINE",
"512 1462 LINE",
"57 1462 LINE",
"57 1354 LINE",
"143 1354 LINE SMOOTH",
"210 1354 OFFCURVE",
"248 1326 OFFCURVE",
"248 1229 CURVE SMOOTH",
"248 242 LINE SMOOTH",
"248 138 OFFCURVE",
"213 109 OFFCURVE",
"143 109 CURVE SMOOTH",
"57 109 LINE",
"57 0 LINE",
"592 0 LINE",
"592 109 LINE",
"506 109 LINE SMOOTH",
"438 109 OFFCURVE",
"401 138 OFFCURVE",
"401 242 CURVE SMOOTH",
"401 1128 LINE",
"1200 0 LINE",
"1389 0 LINE",
"1389 1221 LINE SMOOTH"
);
}
);
width = 1614;
},
{
layerId = "6A9350D6-C757-41BD-9D0D-806F72644A83";
paths = (
{
closed = 1;
nodes = (
"504 125 LINE SMOOTH",
"433 125 OFFCURVE",
"405 139 OFFCURVE",
"405 248 CURVE SMOOTH",
"405 1092 LINE",
"1227 0 LINE",
"1446 0 LINE",
"1446 1214 LINE SMOOTH",
"1446 1302 OFFCURVE",
"1483 1337 OFFCURVE",
"1546 1337 CURVE SMOOTH",
"1634 1337 LINE",
"1634 1462 LINE",
"1085 1462 LINE",
"1085 1337 LINE",
"1173 1337 LINE SMOOTH",
"1228 1337 OFFCURVE",
"1272 1307 OFFCURVE",
"1272 1223 CURVE SMOOTH",
"1272 522 LINE",
"557 1462 LINE",
"43 1462 LINE",
"43 1337 LINE",
"129 1337 LINE SMOOTH",
"181 1337 OFFCURVE",
"231 1323 OFFCURVE",
"231 1223 CURVE SMOOTH",
"231 248 LINE SMOOTH",
"231 139 OFFCURVE",
"184 125 OFFCURVE",
"111 125 CURVE SMOOTH",
"43 125 LINE",
"43 0 LINE",
"592 0 LINE",
"592 125 LINE"
);
}
);
width = 1650;
}
);
note = glyph49;
unicode = 004E;
},
{
glyphname = glyph50;
lastChange = "2021-04-16 11:25:06 +0000";
layers = (
{
layerId = "0DE963AB-769B-4021-B20D-45864FAF5663";
paths = (
{
closed = 1;
nodes = (
"978 -20 OFFCURVE",
"1145 109 OFFCURVE",
"1224 336 CURVE SMOOTH",
"1263 449 OFFCURVE",
"1283 582 OFFCURVE",
"1283 733 CURVE SMOOTH",
"1283 1050 OFFCURVE",
"1209 1277 OFFCURVE",
"1040 1396 CURVE SMOOTH",
"955 1455 OFFCURVE",
"843 1485 OFFCURVE",
"704 1485 CURVE SMOOTH",
"321 1485 OFFCURVE",
"118 1214 OFFCURVE",
"118 735 CURVE SMOOTH",
"118 258 OFFCURVE",
"311 -20 OFFCURVE",
"702 -20 CURVE SMOOTH"
);
},
{
closed = 1;
nodes = (
"353 31 OFFCURVE",
"175 293 OFFCURVE",
"175 733 CURVE SMOOTH",
"175 1173 OFFCURVE",
"352 1434 OFFCURVE",
"704 1434 CURVE SMOOTH",
"957 1434 OFFCURVE",
"1107 1320 OFFCURVE",
"1175 1111 CURVE SMOOTH",
"1209 1006 OFFCURVE",
"1226 880 OFFCURVE",
"1226 733 CURVE SMOOTH",
"1226 444 OFFCURVE",
"1155 229 OFFCURVE",
"1003 116 CURVE SMOOTH",
"926 59 OFFCURVE",
"826 31 OFFCURVE",
"702 31 CURVE SMOOTH"
);
}
);
width = 1404;
},
{
layerId = "8C5547AF-2EE0-40C3-888E-C5581C9C595C";
paths = (
{
closed = 1;
nodes = (
"1008 -20 OFFCURVE",
"1192 112 OFFCURVE",
"1282 337 CURVE SMOOTH",
"1327 450 OFFCURVE",
"1349 582 OFFCURVE",
"1349 733 CURVE SMOOTH",
"1349 1197 OFFCURVE",
"1147 1485 OFFCURVE",
"734 1485 CURVE SMOOTH",
"459 1485 OFFCURVE",
"276 1359 OFFCURVE",
"185 1135 CURVE SMOOTH",
"139 1023 OFFCURVE",
"116 890 OFFCURVE",
"116 735 CURVE SMOOTH",
"116 424 OFFCURVE",
"205 195 OFFCURVE",
"389 72 CURVE SMOOTH",
"480 11 OFFCURVE",
"595 -20 OFFCURVE",
"732 -20 CURVE SMOOTH"
);
},
{
closed = 1;
nodes = (
"411 63 OFFCURVE",
"266 313 OFFCURVE",
"266 733 CURVE SMOOTH",
"266 1154 OFFCURVE",
"410 1401 OFFCURVE",
"734 1401 CURVE SMOOTH",
"961 1401 OFFCURVE",
"1092 1293 OFFCURVE",
"1152 1094 CURVE SMOOTH",
"1182 994 OFFCURVE",
"1197 874 OFFCURVE",
"1197 733 CURVE SMOOTH",
"1197 454 OFFCURVE",
"1139 250 OFFCURVE",
"1003 143 CURVE SMOOTH",
"934 90 OFFCURVE",
"844 63 OFFCURVE",
"732 63 CURVE SMOOTH"
);
}
);
width = 1468;
},
{
layerId = "7FEA46FF-516C-4946-9F17-9EEA76F5F564";
paths = (
{
closed = 1;
nodes = (
"1403 961 OFFCURVE",
"1346 1148 OFFCURVE",
"1237 1280 CURVE SMOOTH",
"1128 1411 OFFCURVE",
"969 1485 OFFCURVE",
"762 1485 CURVE SMOOTH",
"545 1485 OFFCURVE",
"382 1411 OFFCURVE",
"275 1280 CURVE SMOOTH",
"168 1149 OFFCURVE",
"115 962 OFFCURVE",
"115 735 CURVE SMOOTH",
"115 508 OFFCURVE",
"168 319 OFFCURVE",
"275 187 CURVE SMOOTH",
"382 55 OFFCURVE",
"543 -20 OFFCURVE",
"760 -20 CURVE SMOOTH",
"967 -20 OFFCURVE",
"1128 55 OFFCURVE",
"1237 187 CURVE SMOOTH",
"1346 319 OFFCURVE",
"1403 508 OFFCURVE",
"1403 733 CURVE SMOOTH"
);
},
{
closed = 1;
nodes = (
"342 936 OFFCURVE",
"370 1097 OFFCURVE",
"438 1206 CURVE SMOOTH",
"505 1315 OFFCURVE",
"610 1374 OFFCURVE",
"762 1374 CURVE SMOOTH",
"914 1374 OFFCURVE",
"1017 1315 OFFCURVE",
"1083 1206 CURVE SMOOTH",
"1149 1097 OFFCURVE",
"1176 936 OFFCURVE",
"1176 733 CURVE SMOOTH",
"1176 530 OFFCURVE",
"1149 370 OFFCURVE",
"1083 260 CURVE SMOOTH",
"1017 150 OFFCURVE",
"912 90 OFFCURVE",
"760 90 CURVE SMOOTH",
"608 90 OFFCURVE",
"504 150 OFFCURVE",
"437 260 CURVE SMOOTH",
"370 370 OFFCURVE",
"342 530 OFFCURVE",
"342 733 CURVE SMOOTH"
);
}
);
width = 1520;
},
{
layerId = "3CCD85FA-69E6-46C4-A32D-64775BF55ABF";
paths = (
{
closed = 1;
nodes = (
"1499 961 OFFCURVE",
"1437 1148 OFFCURVE",
"1320 1280 CURVE SMOOTH",
"1203 1411 OFFCURVE",
"1030 1485 OFFCURVE",
"809 1485 CURVE SMOOTH",
"574 1485 OFFCURVE",
"401 1411 OFFCURVE",
"286 1280 CURVE SMOOTH",
"170 1149 OFFCURVE",
"113 962 OFFCURVE",
"113 735 CURVE SMOOTH",
"113 508 OFFCURVE",
"170 319 OFFCURVE",
"285 187 CURVE SMOOTH",
"400 55 OFFCURVE",
"574 -20 OFFCURVE",
"807 -20 CURVE SMOOTH",
"1030 -20 OFFCURVE",
"1202 55 OFFCURVE",
"1320 187 CURVE SMOOTH",
"1438 319 OFFCURVE",
"1499 508 OFFCURVE",
"1499 733 CURVE SMOOTH"
);
},
{
closed = 1;
nodes = (
"457 929 OFFCURVE",
"481 1084 OFFCURVE",
"537 1190 CURVE SMOOTH",
"593 1296 OFFCURVE",
"681 1352 OFFCURVE",
"809 1352 CURVE SMOOTH",
"936 1352 OFFCURVE",
"1022 1296 OFFCURVE",
"1077 1190 CURVE SMOOTH",
"1132 1084 OFFCURVE",
"1155 929 OFFCURVE",
"1155 733 CURVE SMOOTH",
"1155 537 OFFCURVE",
"1132 383 OFFCURVE",
"1077 277 CURVE SMOOTH",
"1022 171 OFFCURVE",
"935 113 OFFCURVE",
"807 113 CURVE SMOOTH",
"680 113 OFFCURVE",
"593 171 OFFCURVE",
"537 277 CURVE SMOOTH",
"481 383 OFFCURVE",
"457 537 OFFCURVE",
"457 733 CURVE SMOOTH"
);
}
);
width = 1612;
},
{
layerId = "6A9350D6-C757-41BD-9D0D-806F72644A83";
paths = (
{
closed = 1;
nodes = (
"1153 -20 OFFCURVE",
"1372 112 OFFCURVE",
"1484 337 CURVE SMOOTH",
"1540 450 OFFCURVE",
"1568 582 OFFCURVE",
"1568 733 CURVE SMOOTH",
"1568 1037 OFFCURVE",
"1454 1267 OFFCURVE",
"1239 1392 CURVE SMOOTH",
"1131 1454 OFFCURVE",
"999 1485 OFFCURVE",
"843 1485 CURVE SMOOTH",
"515 1485 OFFCURVE",
"299 1354 OFFCURVE",
"191 1131 CURVE SMOOTH",
"137 1019 OFFCURVE",
"110 887 OFFCURVE",
"110 735 CURVE SMOOTH",
"110 432 OFFCURVE",
"216 199 OFFCURVE",
"433 74 CURVE SMOOTH",
"541 11 OFFCURVE",
"677 -20 OFFCURVE",
"841 -20 CURVE SMOOTH"
);
},
{
closed = 1;
nodes = (
"622 129 OFFCURVE",
"540 350 OFFCURVE",
"540 733 CURVE SMOOTH",
"540 1116 OFFCURVE",
"622 1335 OFFCURVE",
"843 1335 CURVE SMOOTH",
"1062 1335 OFFCURVE",
"1138 1116 OFFCURVE",
"1138 733 CURVE SMOOTH",
"1138 350 OFFCURVE",
"1060 129 OFFCURVE",
"841 129 CURVE SMOOTH"
);
}
);
width = 1679;
}
);
note = glyph50;
unicode = 004F;
},
{
glyphname = glyph51;
lastChange = "2021-04-16 11:25:06 +0000";
layers = (
{
layerId = "0DE963AB-769B-4021-B20D-45864FAF5663";
paths = (
{
closed = 1;
nodes = (
"477 41 LINE SMOOTH",
"409 41 OFFCURVE",
"378 53 OFFCURVE",
"369 105 CURVE SMOOTH",
"364 130 OFFCURVE",
"362 169 OFFCURVE",
"362 221 CURVE SMOOTH",
"362 582 LINE",
"567 582 LINE SMOOTH",
"804 582 OFFCURVE",
"941 670 OFFCURVE",
"1001 809 CURVE SMOOTH",
"1031 878 OFFCURVE",
"1046 956 OFFCURVE",
"1046 1042 CURVE SMOOTH",
"1046 1307 OFFCURVE",
"920 1462 OFFCURVE",
"612 1462 CURVE SMOOTH",
"102 1462 LINE",
"102 1421 LINE",
"190 1421 LINE SMOOTH",
"258 1421 OFFCURVE",
"288 1410 OFFCURVE",
"298 1358 CURVE SMOOTH",
"303 1332 OFFCURVE",
"305 1293 OFFCURVE",
"305 1241 CURVE SMOOTH",
"305 221 LINE SMOOTH",
"305 135 OFFCURVE",
"301 72 OFFCURVE",
"266 54 CURVE SMOOTH",
"249 45 OFFCURVE",
"224 41 OFFCURVE",
"190 41 CURVE SMOOTH",
"102 41 LINE",
"102 0 LINE",
"600 0 LINE",
"600 41 LINE"
);
},
{
closed = 1;
nodes = (
"880 1411 OFFCURVE",
"989 1278 OFFCURVE",
"989 1042 CURVE SMOOTH",
"989 895 OFFCURVE",
"946 764 OFFCURVE",
"823 689 CURVE SMOOTH",
"762 652 OFFCURVE",
"676 633 OFFCURVE",
"565 633 CURVE SMOOTH",
"362 633 LINE",
"362 1411 LINE",
"612 1411 LINE SMOOTH"
);
}
);
width = 1150;
},
{
layerId = "8C5547AF-2EE0-40C3-888E-C5581C9C595C";
paths = (
{
closed = 1;
nodes = (
"569 66 LINE SMOOTH",
"477 66 OFFCURVE",
"426 84 OFFCURVE",
"426 223 CURVE SMOOTH",
"426 575 LINE",
"590 575 LINE SMOOTH",
"846 575 OFFCURVE",
"992 667 OFFCURVE",
"1057 808 CURVE SMOOTH",
"1090 878 OFFCURVE",
"1106 955 OFFCURVE",
"1106 1038 CURVE SMOOTH",
"1106 1303 OFFCURVE",
"963 1462 OFFCURVE",
"635 1462 CURVE SMOOTH",
"88 1462 LINE",
"88 1397 LINE",
"143 1397 LINE SMOOTH",
"239 1397 OFFCURVE",
"287 1375 OFFCURVE",
"287 1239 CURVE SMOOTH",
"287 227 LINE SMOOTH",
"287 86 OFFCURVE",
"239 66 OFFCURVE",
"143 66 CURVE SMOOTH",
"88 66 LINE",
"88 0 LINE",
"663 0 LINE",
"663 66 LINE"
);
},
{
closed = 1;
nodes = (
"865 1384 OFFCURVE",
"960 1266 OFFCURVE",
"960 1034 CURVE SMOOTH",
"960 791 OFFCURVE",
"865 651 OFFCURVE",
"577 651 CURVE SMOOTH",
"426 651 LINE",
"426 1384 LINE",
"616 1384 LINE SMOOTH"
);
}
);
width = 1198;
},
{
layerId = "7FEA46FF-516C-4946-9F17-9EEA76F5F564";
paths = (
{
closed = 1;
nodes = (
"647 86 LINE SMOOTH",
"546 86 OFFCURVE",
"479 109 OFFCURVE",
"479 223 CURVE SMOOTH",
"479 569 LINE",
"608 569 LINE SMOOTH",
"811 569 OFFCURVE",
"948 625 OFFCURVE",
"1035 711 CURVE SMOOTH",
"1122 797 OFFCURVE",
"1157 913 OFFCURVE",
"1157 1034 CURVE SMOOTH",
"1157 1167 OFFCURVE",
"1117 1274 OFFCURVE",
"1034 1348 CURVE SMOOTH",
"951 1422 OFFCURVE",
"825 1462 OFFCURVE",
"653 1462 CURVE SMOOTH",
"78 1462 LINE",
"78 1376 LINE",
"104 1376 LINE SMOOTH",
"203 1376 OFFCURVE",
"272 1352 OFFCURVE",
"272 1237 CURVE SMOOTH",
"272 233 LINE SMOOTH",
"272 113 OFFCURVE",
"207 86 OFFCURVE",
"104 86 CURVE SMOOTH",
"78 86 LINE",
"78 0 LINE",
"715 0 LINE",
"715 86 LINE"
);
},
{
closed = 1;
nodes = (
"734 1364 OFFCURVE",
"813 1337 OFFCURVE",
"864 1281 CURVE SMOOTH",
"915 1225 OFFCURVE",
"936 1141 OFFCURVE",
"936 1026 CURVE SMOOTH",
"936 897 OFFCURVE",
"911 807 OFFCURVE",
"855 749 CURVE SMOOTH",
"799 691 OFFCURVE",
"712 666 OFFCURVE",
"588 666 CURVE SMOOTH",
"479 666 LINE",
"479 1364 LINE",
"618 1364 LINE SMOOTH"
);
}
);
width = 1237;
},
{
layerId = "3CCD85FA-69E6-46C4-A32D-64775BF55ABF";
paths = (
{
closed = 1;
nodes = (
"1245 1163 OFFCURVE",
"1200 1270 OFFCURVE",
"1108 1346 CURVE SMOOTH",
"1015 1421 OFFCURVE",
"875 1462 OFFCURVE",
"686 1462 CURVE SMOOTH",
"57 1462 LINE",
"57 1354 LINE",
"143 1354 LINE SMOOTH",
"212 1354 OFFCURVE",
"248 1326 OFFCURVE",
"248 1229 CURVE SMOOTH",
"248 242 LINE SMOOTH",
"248 138 OFFCURVE",
"214 109 OFFCURVE",
"143 109 CURVE SMOOTH",
"57 109 LINE",
"57 0 LINE",
"805 0 LINE",
"805 109 LINE",
"680 109 LINE SMOOTH",
"611 109 OFFCURVE",
"571 134 OFFCURVE",
"571 231 CURVE SMOOTH",
"571 559 LINE",
"641 559 LINE SMOOTH",
"862 559 OFFCURVE",
"1013 614 OFFCURVE",
"1109 701 CURVE SMOOTH",
"1205 788 OFFCURVE",
"1245 905 OFFCURVE",
"1245 1028 CURVE SMOOTH"
);
},
{
closed = 1;
nodes = (
"743 1341 OFFCURVE",
"805 1315 OFFCURVE",
"845 1263 CURVE SMOOTH",
"884 1210 OFFCURVE",
"901 1129 OFFCURVE",
"901 1020 CURVE SMOOTH",
"901 897 OFFCURVE",
"881 812 OFFCURVE",
"837 757 CURVE SMOOTH",
"792 702 OFFCURVE",
"722 678 OFFCURVE",
"621 678 CURVE SMOOTH",
"571 678 LINE",
"571 1341 LINE",
"651 1341 LINE SMOOTH"
);
}
);
width = 1307;
},
{
layerId = "6A9350D6-C757-41BD-9D0D-806F72644A83";
paths = (
{
closed = 1;
nodes = (
"735 125 LINE SMOOTH",
"683 125 OFFCURVE",
"641 137 OFFCURVE",
"641 238 CURVE SMOOTH",
"641 551 LINE",
"686 551 LINE SMOOTH",
"1011 551 OFFCURVE",
"1199 638 OFFCURVE",
"1287 782 CURVE SMOOTH",
"1330 853 OFFCURVE",
"1352 934 OFFCURVE",
"1352 1024 CURVE SMOOTH",
"1352 1316 OFFCURVE",
"1158 1462 OFFCURVE",
"731 1462 CURVE SMOOTH",
"43 1462 LINE",
"43 1337 LINE",
"135 1337 LINE SMOOTH",
"179 1337 OFFCURVE",
"231 1323 OFFCURVE",
"231 1223 CURVE SMOOTH",
"231 248 LINE SMOOTH",
"231 139 OFFCURVE",
"182 125 OFFCURVE",
"125 125 CURVE SMOOTH",
"43 125 LINE",
"43 0 LINE",
"872 0 LINE",
"872 125 LINE"
);
},
{
closed = 1;
nodes = (
"852 1325 OFFCURVE",
"926 1227 OFFCURVE",
"926 1016 CURVE SMOOTH",
"926 781 OFFCURVE",
"845 686 OFFCURVE",
"668 686 CURVE SMOOTH",
"639 686 LINE",
"639 1325 LINE",
"696 1325 LINE SMOOTH"
);
}
);
width = 1357;
}
);
note = glyph51;
unicode = 0050;
},
{
glyphname = glyph52;
lastChange = "2021-04-16 11:25:06 +0000";
layers = (
{
layerId = "0DE963AB-769B-4021-B20D-45864FAF5663";
paths = (
{
closed = 1;
nodes = (
"1081 -395 LINE SMOOTH",
"873 -395 OFFCURVE",
"766 -272 OFFCURVE",
"745 -20 CURVE",
"1105 1 OFFCURVE",
"1283 264 OFFCURVE",
"1283 733 CURVE SMOOTH",
"1283 1212 OFFCURVE",
"1119 1485 OFFCURVE",
"704 1485 CURVE SMOOTH",
"436 1485 OFFCURVE",
"264 1354 OFFCURVE",
"181 1131 CURVE SMOOTH",
"139 1019 OFFCURVE",
"118 887 OFFCURVE",
"118 735 CURVE SMOOTH",
"118 247 OFFCURVE",
"314 -9 OFFCURVE",
"687 -20 CURVE",
"702 -199 OFFCURVE",
"758 -307 OFFCURVE",
"836 -367 CURVE SMOOTH",
"914 -427 OFFCURVE",
"1008 -446 OFFCURVE",
"1099 -446 CURVE SMOOTH",
"1113 -446 LINE",
"1113 -395 LINE"
);
},
{
closed = 1;
nodes = (
"349 31 OFFCURVE",
"175 297 OFFCURVE",
"175 733 CURVE SMOOTH",
"175 1004 OFFCURVE",
"246 1221 OFFCURVE",
"400 1343 CURVE SMOOTH",
"477 1404 OFFCURVE",
"578 1434 OFFCURVE",
"704 1434 CURVE SMOOTH",
"957 1434 OFFCURVE",
"1107 1320 OFFCURVE",
"1175 1111 CURVE SMOOTH",
"1209 1006 OFFCURVE",
"1226 880 OFFCURVE",
"1226 733 CURVE SMOOTH",
"1226 290 OFFCURVE",
"1067 31 OFFCURVE",
"702 31 CURVE SMOOTH"
);
}
);
width = 1404;
},
{
layerId = "8C5547AF-2EE0-40C3-888E-C5581C9C595C";
paths = (
{
closed = 1;
nodes = (
"1146 -385 LINE SMOOTH",
"961 -385 OFFCURVE",
"848 -279 OFFCURVE",
"827 -14 CURVE",
"1168 29 OFFCURVE",
"1349 302 OFFCURVE",
"1349 733 CURVE SMOOTH",
"1349 1197 OFFCURVE",
"1147 1485 OFFCURVE",
"734 1485 CURVE SMOOTH",
"454 1485 OFFCURVE",
"274 1354 OFFCURVE",
"184 1131 CURVE SMOOTH",
"139 1019 OFFCURVE",
"116 887 OFFCURVE",
"116 735 CURVE SMOOTH",
"116 282 OFFCURVE",
"306 9 OFFCURVE",
"679 -18 CURVE",
"692 -197 OFFCURVE",
"752 -308 OFFCURVE",
"836 -372 CURVE SMOOTH",
"919 -436 OFFCURVE",
"1023 -461 OFFCURVE",
"1124 -461 CURVE SMOOTH",
"1179 -461 LINE",
"1179 -385 LINE"
);
},
{
closed = 1;
nodes = (
"408 63 OFFCURVE",
"266 313 OFFCURVE",
"266 733 CURVE SMOOTH",
"266 1004 OFFCURVE",
"326 1210 OFFCURVE",
"464 1319 CURVE SMOOTH",
"533 1374 OFFCURVE",
"623 1401 OFFCURVE",
"734 1401 CURVE SMOOTH",
"961 1401 OFFCURVE",
"1092 1293 OFFCURVE",
"1152 1094 CURVE SMOOTH",
"1182 994 OFFCURVE",
"1197 874 OFFCURVE",
"1197 733 CURVE SMOOTH",
"1197 313 OFFCURVE",
"1065 63 OFFCURVE",
"732 63 CURVE SMOOTH"
);
}
);
width = 1468;
},
{
layerId = "7FEA46FF-516C-4946-9F17-9EEA76F5F564";
paths = (
{
closed = 1;
nodes = (
"1403 961 OFFCURVE",
"1346 1148 OFFCURVE",
"1237 1280 CURVE SMOOTH",
"1128 1411 OFFCURVE",
"969 1485 OFFCURVE",
"762 1485 CURVE SMOOTH",
"545 1485 OFFCURVE",
"382 1411 OFFCURVE",
"275 1280 CURVE SMOOTH",
"168 1149 OFFCURVE",
"115 962 OFFCURVE",
"115 735 CURVE SMOOTH",
"115 523 OFFCURVE",
"161 346 OFFCURVE",
"253 216 CURVE SMOOTH",
"345 86 OFFCURVE",
"484 4 OFFCURVE",
"672 -16 CURVE",
"685 -192 OFFCURVE",
"749 -306 OFFCURVE",
"837 -376 CURVE SMOOTH",
"925 -446 OFFCURVE",
"1037 -471 OFFCURVE",
"1145 -471 CURVE SMOOTH",
"1233 -471 LINE",
"1233 -375 LINE",
"1200 -375 LINE SMOOTH",
"1117 -375 OFFCURVE",
"1047 -353 OFFCURVE",
"995 -297 CURVE SMOOTH",
"943 -240 OFFCURVE",
"909 -148 OFFCURVE",
"897 -8 CURVE",
"1060 21 OFFCURVE",
"1187 107 OFFCURVE",
"1273 235 CURVE SMOOTH",
"1359 363 OFFCURVE",
"1403 533 OFFCURVE",
"1403 733 CURVE SMOOTH"
);
},
{
closed = 1;
nodes = (
"342 936 OFFCURVE",
"370 1097 OFFCURVE",
"438 1206 CURVE SMOOTH",
"505 1315 OFFCURVE",
"610 1374 OFFCURVE",
"762 1374 CURVE SMOOTH",
"914 1374 OFFCURVE",
"1017 1315 OFFCURVE",
"1083 1206 CURVE SMOOTH",
"1149 1097 OFFCURVE",
"1176 936 OFFCURVE",
"1176 733 CURVE SMOOTH",
"1176 530 OFFCURVE",
"1149 370 OFFCURVE",
"1083 260 CURVE SMOOTH",
"1017 150 OFFCURVE",
"912 90 OFFCURVE",
"760 90 CURVE SMOOTH",
"608 90 OFFCURVE",
"504 150 OFFCURVE",
"437 260 CURVE SMOOTH",
"370 370 OFFCURVE",
"342 530 OFFCURVE",
"342 733 CURVE SMOOTH"
);
}
);
width = 1520;
},
{
layerId = "3CCD85FA-69E6-46C4-A32D-64775BF55ABF";
paths = (
{
closed = 1;
nodes = (
"1499 961 OFFCURVE",
"1437 1148 OFFCURVE",
"1320 1280 CURVE SMOOTH",
"1203 1411 OFFCURVE",
"1030 1485 OFFCURVE",
"809 1485 CURVE SMOOTH",
"574 1485 OFFCURVE",
"401 1411 OFFCURVE",
"286 1280 CURVE SMOOTH",
"170 1149 OFFCURVE",
"113 962 OFFCURVE",
"113 735 CURVE SMOOTH",
"113 534 OFFCURVE",
"157 362 OFFCURVE",
"248 234 CURVE SMOOTH",
"339 106 OFFCURVE",
"475 20 OFFCURVE",
"659 -8 CURVE",
"672 -181 OFFCURVE",
"742 -302 OFFCURVE",
"839 -380 CURVE SMOOTH",
"935 -458 OFFCURVE",
"1059 -492 OFFCURVE",
"1182 -492 CURVE SMOOTH",
"1329 -492 LINE",
"1329 -373 LINE",
"1296 -373 LINE SMOOTH",
"1228 -373 OFFCURVE",
"1161 -355 OFFCURVE",
"1107 -300 CURVE SMOOTH",
"1053 -244 OFFCURVE",
"1013 -151 OFFCURVE",
"1001 0 CURVE",
"1162 39 OFFCURVE",
"1287 127 OFFCURVE",
"1371 252 CURVE SMOOTH",
"1455 377 OFFCURVE",
"1499 541 OFFCURVE",
"1499 733 CURVE SMOOTH"
);
},
{
closed = 1;
nodes = (
"457 929 OFFCURVE",
"481 1084 OFFCURVE",
"537 1190 CURVE SMOOTH",
"593 1296 OFFCURVE",
"681 1352 OFFCURVE",
"809 1352 CURVE SMOOTH",
"936 1352 OFFCURVE",
"1022 1296 OFFCURVE",
"1077 1190 CURVE SMOOTH",
"1132 1084 OFFCURVE",
"1155 929 OFFCURVE",
"1155 733 CURVE SMOOTH",
"1155 537 OFFCURVE",
"1132 383 OFFCURVE",
"1077 277 CURVE SMOOTH",
"1022 171 OFFCURVE",
"935 113 OFFCURVE",
"807 113 CURVE SMOOTH",
"680 113 OFFCURVE",
"593 171 OFFCURVE",
"537 277 CURVE SMOOTH",
"481 383 OFFCURVE",
"457 537 OFFCURVE",
"457 733 CURVE SMOOTH"
);
}
);
width = 1612;
},
{
layerId = "6A9350D6-C757-41BD-9D0D-806F72644A83";
paths = (
{
closed = 1;
nodes = (
"1365 -356 LINE SMOOTH",
"1308 -356 OFFCURVE",
"1244 -342 OFFCURVE",
"1187 -293 CURVE SMOOTH",
"1130 -244 OFFCURVE",
"1088 -153 OFFCURVE",
"1077 6 CURVE",
"1396 99 OFFCURVE",
"1568 362 OFFCURVE",
"1568 733 CURVE SMOOTH",
"1568 1037 OFFCURVE",
"1454 1267 OFFCURVE",
"1239 1392 CURVE SMOOTH",
"1131 1454 OFFCURVE",
"999 1485 OFFCURVE",
"843 1485 CURVE SMOOTH",
"515 1485 OFFCURVE",
"299 1354 OFFCURVE",
"191 1131 CURVE SMOOTH",
"137 1019 OFFCURVE",
"110 887 OFFCURVE",
"110 735 CURVE SMOOTH",
"110 344 OFFCURVE",
"285 69 OFFCURVE",
"649 -2 CURVE",
"668 -231 OFFCURVE",
"788 -372 OFFCURVE",
"952 -441 CURVE SMOOTH",
"1034 -475 OFFCURVE",
"1119 -492 OFFCURVE",
"1208 -492 CURVE SMOOTH",
"1398 -492 LINE",
"1398 -356 LINE"
);
},
{
closed = 1;
nodes = (
"622 129 OFFCURVE",
"540 350 OFFCURVE",
"540 733 CURVE SMOOTH",
"540 1116 OFFCURVE",
"622 1335 OFFCURVE",
"843 1335 CURVE SMOOTH",
"1062 1335 OFFCURVE",
"1138 1116 OFFCURVE",
"1138 733 CURVE SMOOTH",
"1138 350 OFFCURVE",
"1060 129 OFFCURVE",
"841 129 CURVE SMOOTH"
);
}
);
width = 1679;
}
);
note = glyph52;
unicode = 0051;
},
{
glyphname = glyph53;
lastChange = "2021-04-16 11:25:07 +0000";
layers = (
{
layerId = "0DE963AB-769B-4021-B20D-45864FAF5663";
paths = (
{
closed = 1;
nodes = (
"477 41 LINE SMOOTH",
"409 41 OFFCURVE",
"378 53 OFFCURVE",
"369 105 CURVE SMOOTH",
"364 130 OFFCURVE",
"362 169 OFFCURVE",
"362 221 CURVE SMOOTH",
"362 657 LINE",
"616 657 LINE",
"933 184 LINE",
"1000 92 OFFCURVE",
"1035 39 OFFCURVE",
"1095 17 CURVE SMOOTH",
"1125 6 OFFCURVE",
"1167 0 OFFCURVE",
"1220 0 CURVE SMOOTH",
"1228 0 LINE",
"1228 57 LINE",
"1206 57 LINE SMOOTH",
"1118 57 OFFCURVE",
"1067 94 OFFCURVE",
"983 217 CURVE SMOOTH",
"673 674 LINE",
"860 721 OFFCURVE",
"999 851 OFFCURVE",
"999 1092 CURVE SMOOTH",
"999 1359 OFFCURVE",
"859 1462 OFFCURVE",
"518 1462 CURVE SMOOTH",
"102 1462 LINE",
"102 1421 LINE",
"190 1421 LINE SMOOTH",
"258 1421 OFFCURVE",
"288 1410 OFFCURVE",
"298 1358 CURVE SMOOTH",
"303 1332 OFFCURVE",
"305 1293 OFFCURVE",
"305 1241 CURVE SMOOTH",
"305 221 LINE SMOOTH",
"305 135 OFFCURVE",
"301 72 OFFCURVE",
"266 54 CURVE SMOOTH",
"249 45 OFFCURVE",
"224 41 OFFCURVE",
"190 41 CURVE SMOOTH",
"102 41 LINE",
"102 0 LINE",
"559 0 LINE",
"559 41 LINE"
);
},
{
closed = 1;
nodes = (
"748 1411 OFFCURVE",
"860 1359 OFFCURVE",
"907 1264 CURVE SMOOTH",
"930 1216 OFFCURVE",
"942 1158 OFFCURVE",
"942 1090 CURVE SMOOTH",
"942 849 OFFCURVE",
"781 709 OFFCURVE",
"530 709 CURVE SMOOTH",
"362 709 LINE",
"362 1411 LINE",
"540 1411 LINE SMOOTH"
);
}
);
width = 1212;
},
{
layerId = "8C5547AF-2EE0-40C3-888E-C5581C9C595C";
paths = (
{
closed = 1;
nodes = (
"569 66 LINE SMOOTH",
"477 66 OFFCURVE",
"426 84 OFFCURVE",
"426 223 CURVE SMOOTH",
"426 651 LINE",
"635 651 LINE",
"930 184 LINE SMOOTH",
"993 87 OFFCURVE",
"1036 36 OFFCURVE",
"1113 16 CURVE SMOOTH",
"1152 5 OFFCURVE",
"1207 0 OFFCURVE",
"1278 0 CURVE SMOOTH",
"1298 0 LINE",
"1298 74 LINE",
"1284 74 LINE SMOOTH",
"1200 74 OFFCURVE",
"1141 121 OFFCURVE",
"1065 236 CURVE SMOOTH",
"772 684 LINE",
"881 717 OFFCURVE",
"980 781 OFFCURVE",
"1039 885 CURVE SMOOTH",
"1068 937 OFFCURVE",
"1083 1001 OFFCURVE",
"1083 1077 CURVE SMOOTH",
"1083 1345 OFFCURVE",
"928 1462 OFFCURVE",
"577 1462 CURVE SMOOTH",
"88 1462 LINE",
"88 1397 LINE",
"143 1397 LINE SMOOTH",
"239 1397 OFFCURVE",
"287 1375 OFFCURVE",
"287 1239 CURVE SMOOTH",
"287 223 LINE SMOOTH",
"287 84 OFFCURVE",
"239 66 OFFCURVE",
"143 66 CURVE SMOOTH",
"88 66 LINE",
"88 0 LINE",
"623 0 LINE",
"623 66 LINE"
);
},
{
closed = 1;
nodes = (
"851 1384 OFFCURVE",
"938 1286 OFFCURVE",
"938 1073 CURVE SMOOTH",
"938 849 OFFCURVE",
"825 727 OFFCURVE",
"582 727 CURVE SMOOTH",
"426 727 LINE",
"426 1384 LINE",
"584 1384 LINE SMOOTH"
);
}
);
width = 1284;
},
{
layerId = "7FEA46FF-516C-4946-9F17-9EEA76F5F564";
paths = (
{
closed = 1;
nodes = (
"926 718 OFFCURVE",
"1002 757 OFFCURVE",
"1059 817 CURVE SMOOTH",
"1116 877 OFFCURVE",
"1155 958 OFFCURVE",
"1155 1067 CURVE SMOOTH",
"1155 1331 OFFCURVE",
"984 1462 OFFCURVE",
"629 1462 CURVE SMOOTH",
"78 1462 LINE",
"78 1376 LINE",
"104 1376 LINE SMOOTH",
"203 1376 OFFCURVE",
"272 1352 OFFCURVE",
"272 1237 CURVE SMOOTH",
"272 223 LINE SMOOTH",
"272 109 OFFCURVE",
"205 86 OFFCURVE",
"104 86 CURVE SMOOTH",
"78 86 LINE",
"78 0 LINE",
"674 0 LINE",
"674 86 LINE",
"647 86 LINE SMOOTH",
"546 86 OFFCURVE",
"479 109 OFFCURVE",
"479 223 CURVE SMOOTH",
"479 645 LINE",
"649 645 LINE",
"926 184 LINE SMOOTH",
"973 107 OFFCURVE",
"1008 61 OFFCURVE",
"1065 34 CURVE SMOOTH",
"1122 7 OFFCURVE",
"1199 0 OFFCURVE",
"1327 0 CURVE SMOOTH",
"1356 0 LINE",
"1356 86 LINE",
"1350 86 LINE SMOOTH",
"1263 86 OFFCURVE",
"1204 141 OFFCURVE",
"1135 250 CURVE SMOOTH",
"854 694 LINE"
);
},
{
closed = 1;
nodes = (
"734 1364 OFFCURVE",
"813 1343 OFFCURVE",
"864 1295 CURVE SMOOTH",
"915 1246 OFFCURVE",
"936 1170 OFFCURVE",
"936 1061 CURVE SMOOTH",
"936 954 OFFCURVE",
"917 874 OFFCURVE",
"869 821 CURVE SMOOTH",
"821 768 OFFCURVE",
"743 741 OFFCURVE",
"623 741 CURVE SMOOTH",
"479 741 LINE",
"479 1364 LINE",
"618 1364 LINE SMOOTH"
);
}
);
width = 1343;
},
{
layerId = "3CCD85FA-69E6-46C4-A32D-64775BF55ABF";
paths = (
{
closed = 1;
nodes = (
"764 109 LINE",
"676 109 LINE SMOOTH",
"609 109 OFFCURVE",
"571 135 OFFCURVE",
"571 231 CURVE SMOOTH",
"571 635 LINE",
"707 635 LINE",
"950 184 LINE SMOOTH",
"993 108 OFFCURVE",
"1040 62 OFFCURVE",
"1109 35 CURVE SMOOTH",
"1177 7 OFFCURVE",
"1266 0 OFFCURVE",
"1389 0 CURVE SMOOTH",
"1456 0 LINE",
"1456 109 LINE",
"1448 109 LINE SMOOTH",
"1365 109 OFFCURVE",
"1306 170 OFFCURVE",
"1243 276 CURVE SMOOTH",
"999 696 LINE",
"1068 724 OFFCURVE",
"1138 766 OFFCURVE",
"1191 829 CURVE SMOOTH",
"1243 892 OFFCURVE",
"1278 975 OFFCURVE",
"1278 1083 CURVE SMOOTH",
"1278 1330 OFFCURVE",
"1104 1462 OFFCURVE",
"717 1462 CURVE SMOOTH",
"57 1462 LINE",
"57 1354 LINE",
"143 1354 LINE SMOOTH",
"210 1354 OFFCURVE",
"248 1326 OFFCURVE",
"248 1229 CURVE SMOOTH",
"248 231 LINE SMOOTH",
"248 135 OFFCURVE",
"210 109 OFFCURVE",
"143 109 CURVE SMOOTH",
"57 109 LINE",
"57 0 LINE",
"764 0 LINE"
);
},
{
closed = 1;
nodes = (
"773 1341 OFFCURVE",
"836 1322 OFFCURVE",
"876 1276 CURVE SMOOTH",
"916 1230 OFFCURVE",
"934 1159 OFFCURVE",
"934 1055 CURVE SMOOTH",
"934 955 OFFCURVE",
"919 880 OFFCURVE",
"881 830 CURVE SMOOTH",
"843 780 OFFCURVE",
"781 754 OFFCURVE",
"686 754 CURVE SMOOTH",
"571 754 LINE",
"571 1341 LINE",
"682 1341 LINE SMOOTH"
);
}
);
width = 1448;
},
{
layerId = "6A9350D6-C757-41BD-9D0D-806F72644A83";
paths = (
{
closed = 1;
nodes = (
"741 125 LINE SMOOTH",
"681 125 OFFCURVE",
"641 137 OFFCURVE",
"641 238 CURVE SMOOTH",
"641 627 LINE",
"750 627 LINE",
"965 184 LINE SMOOTH",
"1041 32 OFFCURVE",
"1209 0 OFFCURVE",
"1446 0 CURVE SMOOTH",
"1542 0 LINE",
"1542 125 LINE",
"1528 125 LINE SMOOTH",
"1460 125 OFFCURVE",
"1416 178 OFFCURVE",
"1341 303 CURVE SMOOTH",
"1108 698 LINE",
"1215 729 OFFCURVE",
"1306 782 OFFCURVE",
"1359 883 CURVE SMOOTH",
"1386 933 OFFCURVE",
"1399 997 OFFCURVE",
"1399 1075 CURVE SMOOTH",
"1399 1231 OFFCURVE",
"1327 1350 OFFCURVE",
"1147 1414 CURVE SMOOTH",
"1057 1446 OFFCURVE",
"935 1462 OFFCURVE",
"782 1462 CURVE SMOOTH",
"43 1462 LINE",
"43 1337 LINE",
"121 1337 LINE SMOOTH",
"176 1337 OFFCURVE",
"231 1312 OFFCURVE",
"231 1223 CURVE SMOOTH",
"231 238 LINE SMOOTH",
"231 137 OFFCURVE",
"173 125 OFFCURVE",
"121 125 CURVE SMOOTH",
"43 125 LINE",
"43 0 LINE",
"791 0 LINE",
"791 125 LINE"
);
},
{
closed = 1;
nodes = (
"882 1325 OFFCURVE",
"963 1247 OFFCURVE",
"963 1051 CURVE SMOOTH",
"963 856 OFFCURVE",
"892 762 OFFCURVE",
"733 762 CURVE SMOOTH",
"641 762 LINE",
"641 1325 LINE",
"729 1325 LINE SMOOTH"
);
}
);
width = 1542;
}
);
note = glyph53;
unicode = 0052;
},
{
glyphname = glyph54;
lastChange = "2021-04-16 11:25:07 +0000";
layers = (
{
layerId = "0DE963AB-769B-4021-B20D-45864FAF5663";
paths = (
{
closed = 1;
nodes = (
"777 -20 OFFCURVE",
"894 135 OFFCURVE",
"894 346 CURVE SMOOTH",
"894 507 OFFCURVE",
"818 603 OFFCURVE",
"706 676 CURVE SMOOTH",
"650 713 OFFCURVE",
"591 749 OFFCURVE",
"530 786 CURVE SMOOTH",
"415 853 OFFCURVE",
"333 911 OFFCURVE",
"293 989 CURVE SMOOTH",
"272 1028 OFFCURVE",
"262 1076 OFFCURVE",
"262 1135 CURVE SMOOTH",
"262 1304 OFFCURVE",
"361 1432 OFFCURVE",
"554 1432 CURVE SMOOTH",
"733 1432 OFFCURVE",
"835 1355 OFFCURVE",
"835 1178 CURVE",
"864 1178 OFFCURVE",
"878 1204 OFFCURVE",
"878 1257 CURVE SMOOTH",
"878 1384 OFFCURVE",
"745 1483 OFFCURVE",
"556 1483 CURVE SMOOTH",
"415 1483 OFFCURVE",
"304 1417 OFFCURVE",
"247 1314 CURVE SMOOTH",
"218 1263 OFFCURVE",
"204 1206 OFFCURVE",
"204 1145 CURVE SMOOTH",
"204 1008 OFFCURVE",
"244 921 OFFCURVE",
"334 848 CURVE SMOOTH",
"379 811 OFFCURVE",
"437 772 OFFCURVE",
"509 731 CURVE SMOOTH",
"665 644 OFFCURVE",
"758 574 OFFCURVE",
"803 490 CURVE SMOOTH",
"826 447 OFFCURVE",
"837 399 OFFCURVE",
"837 344 CURVE SMOOTH",
"837 159 OFFCURVE",
"745 31 OFFCURVE",
"534 31 CURVE SMOOTH",
"318 31 OFFCURVE",
"196 135 OFFCURVE",
"196 340 CURVE",
"169 340 OFFCURVE",
"153 307 OFFCURVE",
"153 258 CURVE SMOOTH",
"153 165 OFFCURVE",
"207 75 OFFCURVE",
"320 21 CURVE SMOOTH",
"377 -7 OFFCURVE",
"448 -20 OFFCURVE",
"534 -20 CURVE SMOOTH"
);
}
);
width = 1003;
},
{
layerId = "8C5547AF-2EE0-40C3-888E-C5581C9C595C";
paths = (
{
closed = 1;
nodes = (
"796 -20 OFFCURVE",
"958 134 OFFCURVE",
"958 371 CURVE SMOOTH",
"958 520 OFFCURVE",
"887 618 OFFCURVE",
"775 694 CURVE SMOOTH",
"719 731 OFFCURVE",
"655 768 OFFCURVE",
"583 803 CURVE SMOOTH",
"443 868 OFFCURVE",
"359 923 OFFCURVE",
"319 1000 CURVE SMOOTH",
"298 1038 OFFCURVE",
"288 1085 OFFCURVE",
"288 1141 CURVE SMOOTH",
"288 1293 OFFCURVE",
"381 1403 OFFCURVE",
"558 1403 CURVE SMOOTH",
"733 1403 OFFCURVE",
"810 1298 OFFCURVE",
"810 1147 CURVE",
"878 1147 OFFCURVE",
"919 1184 OFFCURVE",
"919 1255 CURVE SMOOTH",
"919 1376 OFFCURVE",
"781 1483 OFFCURVE",
"562 1483 CURVE SMOOTH",
"405 1483 OFFCURVE",
"278 1420 OFFCURVE",
"210 1313 CURVE SMOOTH",
"176 1260 OFFCURVE",
"159 1197 OFFCURVE",
"159 1126 CURVE SMOOTH",
"159 982 OFFCURVE",
"206 884 OFFCURVE",
"308 805 CURVE SMOOTH",
"359 765 OFFCURVE",
"424 727 OFFCURVE",
"503 690 CURVE SMOOTH",
"662 617 OFFCURVE",
"751 555 OFFCURVE",
"793 477 CURVE SMOOTH",
"814 438 OFFCURVE",
"824 392 OFFCURVE",
"824 340 CURVE SMOOTH",
"824 165 OFFCURVE",
"721 57 OFFCURVE",
"528 57 CURVE SMOOTH",
"323 57 OFFCURVE",
"225 192 OFFCURVE",
"222 375 CURVE",
"159 375 OFFCURVE",
"122 329 OFFCURVE",
"122 264 CURVE SMOOTH",
"122 105 OFFCURVE",
"253 -20 OFFCURVE",
"517 -20 CURVE SMOOTH"
);
}
);
width = 1062;
},
{
layerId = "7FEA46FF-516C-4946-9F17-9EEA76F5F564";
paths = (
{
closed = 1;
nodes = (
"659 -20 OFFCURVE",
"785 17 OFFCURVE",
"873 88 CURVE SMOOTH",
"961 159 OFFCURVE",
"1010 262 OFFCURVE",
"1010 391 CURVE SMOOTH",
"1010 496 OFFCURVE",
"974 578 OFFCURVE",
"909 646 CURVE SMOOTH",
"844 713 OFFCURVE",
"749 766 OFFCURVE",
"629 815 CURVE SMOOTH",
"510 863 OFFCURVE",
"431 906 OFFCURVE",
"381 956 CURVE SMOOTH",
"331 1006 OFFCURVE",
"311 1066 OFFCURVE",
"311 1147 CURVE SMOOTH",
"311 1291 OFFCURVE",
"407 1380 OFFCURVE",
"561 1380 CURVE SMOOTH",
"725 1380 OFFCURVE",
"791 1258 OFFCURVE",
"791 1120 CURVE",
"890 1120 OFFCURVE",
"952 1165 OFFCURVE",
"952 1253 CURVE SMOOTH",
"952 1313 OFFCURVE",
"917 1370 OFFCURVE",
"852 1413 CURVE SMOOTH",
"787 1456 OFFCURVE",
"692 1483 OFFCURVE",
"569 1483 CURVE SMOOTH",
"440 1483 OFFCURVE",
"328 1449 OFFCURVE",
"248 1386 CURVE SMOOTH",
"168 1322 OFFCURVE",
"121 1229 OFFCURVE",
"121 1112 CURVE SMOOTH",
"121 1000 OFFCURVE",
"151 912 OFFCURVE",
"214 840 CURVE SMOOTH",
"277 767 OFFCURVE",
"371 709 OFFCURVE",
"498 657 CURVE SMOOTH",
"618 608 OFFCURVE",
"697 565 OFFCURVE",
"746 517 CURVE SMOOTH",
"795 468 OFFCURVE",
"815 413 OFFCURVE",
"815 338 CURVE SMOOTH",
"815 171 OFFCURVE",
"706 80 OFFCURVE",
"522 80 CURVE SMOOTH",
"426 80 OFFCURVE",
"359 119 OFFCURVE",
"315 179 CURVE SMOOTH",
"271 239 OFFCURVE",
"250 321 OFFCURVE",
"246 406 CURVE",
"151 406 OFFCURVE",
"98 351 OFFCURVE",
"98 268 CURVE SMOOTH",
"98 183 OFFCURVE",
"133 110 OFFCURVE",
"202 60 CURVE SMOOTH",
"270 10 OFFCURVE",
"373 -20 OFFCURVE",
"506 -20 CURVE SMOOTH"
);
}
);
width = 1114;
},
{
layerId = "3CCD85FA-69E6-46C4-A32D-64775BF55ABF";
paths = (
{
closed = 1;
nodes = (
"712 -20 OFFCURVE",
"850 26 OFFCURVE",
"947 105 CURVE SMOOTH",
"1044 184 OFFCURVE",
"1098 296 OFFCURVE",
"1098 428 CURVE SMOOTH",
"1098 528 OFFCURVE",
"1071 609 OFFCURVE",
"1008 678 CURVE SMOOTH",
"944 746 OFFCURVE",
"847 805 OFFCURVE",
"707 862 CURVE SMOOTH",
"568 918 OFFCURVE",
"485 965 OFFCURVE",
"435 1014 CURVE SMOOTH",
"385 1062 OFFCURVE",
"369 1112 OFFCURVE",
"369 1169 CURVE SMOOTH",
"369 1290 OFFCURVE",
"457 1358 OFFCURVE",
"571 1358 CURVE SMOOTH",
"721 1358 OFFCURVE",
"788 1203 OFFCURVE",
"788 1075 CURVE",
"942 1075 OFFCURVE",
"1040 1139 OFFCURVE",
"1040 1245 CURVE SMOOTH",
"1040 1312 OFFCURVE",
"1006 1371 OFFCURVE",
"935 1414 CURVE SMOOTH",
"863 1457 OFFCURVE",
"755 1483 OFFCURVE",
"604 1483 CURVE SMOOTH",
"460 1483 OFFCURVE",
"334 1443 OFFCURVE",
"245 1371 CURVE SMOOTH",
"156 1299 OFFCURVE",
"102 1196 OFFCURVE",
"102 1071 CURVE SMOOTH",
"102 971 OFFCURVE",
"126 888 OFFCURVE",
"186 816 CURVE SMOOTH",
"246 744 OFFCURVE",
"342 684 OFFCURVE",
"485 625 CURVE SMOOTH",
"600 577 OFFCURVE",
"686 538 OFFCURVE",
"743 492 CURVE SMOOTH",
"799 446 OFFCURVE",
"827 393 OFFCURVE",
"827 324 CURVE SMOOTH",
"827 193 OFFCURVE",
"726 102 OFFCURVE",
"573 102 CURVE SMOOTH",
"492 102 OFFCURVE",
"421 132 OFFCURVE",
"372 192 CURVE SMOOTH",
"323 251 OFFCURVE",
"293 340 OFFCURVE",
"293 457 CURVE",
"168 457 OFFCURVE",
"61 401 OFFCURVE",
"61 266 CURVE SMOOTH",
"61 199 OFFCURVE",
"90 128 OFFCURVE",
"164 73 CURVE SMOOTH",
"238 18 OFFCURVE",
"357 -20 OFFCURVE",
"541 -20 CURVE SMOOTH"
);
}
);
width = 1200;
},
{
layerId = "6A9350D6-C757-41BD-9D0D-806F72644A83";
paths = (
{
closed = 1;
nodes = (
"825 -20 OFFCURVE",
"1008 62 OFFCURVE",
"1105 199 CURVE SMOOTH",
"1153 267 OFFCURVE",
"1177 345 OFFCURVE",
"1177 434 CURVE SMOOTH",
"1177 565 OFFCURVE",
"1137 670 OFFCURVE",
"1021 765 CURVE SMOOTH",
"963 812 OFFCURVE",
"882 856 OFFCURVE",
"778 897 CURVE SMOOTH",
"677 938 OFFCURVE",
"601 975 OFFCURVE",
"548 1009 CURVE SMOOTH",
"443 1076 OFFCURVE",
"416 1131 OFFCURVE",
"416 1186 CURVE SMOOTH",
"416 1295 OFFCURVE",
"495 1341 OFFCURVE",
"596 1341 CURVE SMOOTH",
"691 1341 OFFCURVE",
"761 1272 OFFCURVE",
"797 1180 CURVE SMOOTH",
"814 1133 OFFCURVE",
"823 1087 OFFCURVE",
"823 1042 CURVE",
"1042 1042 OFFCURVE",
"1120 1121 OFFCURVE",
"1120 1225 CURVE SMOOTH",
"1120 1306 OFFCURVE",
"1055 1392 OFFCURVE",
"916 1444 CURVE SMOOTH",
"846 1470 OFFCURVE",
"756 1483 OFFCURVE",
"645 1483 CURVE SMOOTH",
"437 1483 OFFCURVE",
"263 1411 OFFCURVE",
"167 1286 CURVE SMOOTH",
"118 1223 OFFCURVE",
"94 1148 OFFCURVE",
"94 1061 CURVE SMOOTH",
"94 941 OFFCURVE",
"135 831 OFFCURVE",
"250 736 CURVE SMOOTH",
"307 688 OFFCURVE",
"388 643 OFFCURVE",
"491 600 CURVE SMOOTH",
"712 509 OFFCURVE",
"852 445 OFFCURVE",
"852 313 CURVE SMOOTH",
"852 218 OFFCURVE",
"768 119 OFFCURVE",
"627 119 CURVE SMOOTH",
"531 119 OFFCURVE",
"430 163 OFFCURVE",
"368 272 CURVE SMOOTH",
"337 327 OFFCURVE",
"321 401 OFFCURVE",
"321 494 CURVE",
"229 494 OFFCURVE",
"142 472 OFFCURVE",
"89 406 CURVE SMOOTH",
"62 373 OFFCURVE",
"49 325 OFFCURVE",
"49 264 CURVE SMOOTH",
"49 212 OFFCURVE",
"73 142 OFFCURVE",
"150 82 CURVE SMOOTH",
"226 22 OFFCURVE",
"361 -20 OFFCURVE",
"581 -20 CURVE SMOOTH"
);
}
);
width = 1239;
}
);
note = glyph54;
unicode = 0053;
},
{
glyphname = glyph55;
lastChange = "2021-04-16 11:25:07 +0000";
layers = (
{
layerId = "0DE963AB-769B-4021-B20D-45864FAF5663";
paths = (
{
closed = 1;
nodes = (
"714 41 LINE SMOOTH",
"646 41 OFFCURVE",
"616 53 OFFCURVE",
"607 105 CURVE SMOOTH",
"602 130 OFFCURVE",
"600 169 OFFCURVE",
"600 221 CURVE SMOOTH",
"600 1411 LINE",
"911 1411 LINE SMOOTH",
"1018 1411 OFFCURVE",
"1031 1382 OFFCURVE",
"1036 1270 CURVE SMOOTH",
"1042 1153 LINE",
"1083 1153 LINE",
"1071 1462 LINE",
"77 1462 LINE",
"65 1153 LINE",
"106 1153 LINE",
"112 1270 LINE SMOOTH",
"117 1382 OFFCURVE",
"130 1411 OFFCURVE",
"237 1411 CURVE SMOOTH",
"542 1411 LINE",
"542 221 LINE SMOOTH",
"542 135 OFFCURVE",
"539 72 OFFCURVE",
"504 54 CURVE SMOOTH",
"487 45 OFFCURVE",
"462 41 OFFCURVE",
"427 41 CURVE SMOOTH",
"294 41 LINE",
"294 0 LINE",
"845 0 LINE",
"845 41 LINE"
);
}
);
width = 1153;
},
{
layerId = "8C5547AF-2EE0-40C3-888E-C5581C9C595C";
paths = (
{
closed = 1;
nodes = (
"815 66 LINE SMOOTH",
"716 66 OFFCURVE",
"669 86 OFFCURVE",
"669 227 CURVE SMOOTH",
"669 1382 LINE",
"919 1382 LINE SMOOTH",
"1036 1382 OFFCURVE",
"1061 1328 OFFCURVE",
"1069 1227 CURVE SMOOTH",
"1077 1126 LINE",
"1155 1126 LINE",
"1143 1462 LINE",
"63 1462 LINE",
"51 1126 LINE",
"129 1126 LINE",
"137 1227 LINE SMOOTH",
"145 1328 OFFCURVE",
"173 1382 OFFCURVE",
"284 1382 CURVE SMOOTH",
"532 1382 LINE",
"532 223 LINE SMOOTH",
"532 84 OFFCURVE",
"483 66 OFFCURVE",
"387 66 CURVE SMOOTH",
"301 66 LINE",
"301 0 LINE",
"899 0 LINE",
"899 66 LINE"
);
}
);
width = 1208;
},
{
layerId = "7FEA46FF-516C-4946-9F17-9EEA76F5F564";
paths = (
{
closed = 1;
nodes = (
"1044 1360 OFFCURVE",
"1086 1291 OFFCURVE",
"1098 1192 CURVE SMOOTH",
"1108 1104 LINE",
"1214 1104 LINE",
"1204 1462 LINE",
"51 1462 LINE",
"41 1104 LINE",
"147 1104 LINE",
"158 1192 LINE SMOOTH",
"170 1290 OFFCURVE",
"211 1360 OFFCURVE",
"326 1360 CURVE SMOOTH",
"522 1360 LINE",
"522 223 LINE SMOOTH",
"522 109 OFFCURVE",
"455 86 OFFCURVE",
"354 86 CURVE SMOOTH",
"307 86 LINE",
"307 0 LINE",
"944 0 LINE",
"944 86 LINE",
"897 86 LINE SMOOTH",
"796 86 OFFCURVE",
"729 112 OFFCURVE",
"729 233 CURVE SMOOTH",
"729 1360 LINE",
"928 1360 LINE SMOOTH"
);
}
);
width = 1255;
},
{
layerId = "3CCD85FA-69E6-46C4-A32D-64775BF55ABF";
paths = (
{
closed = 1;
nodes = (
"1113 1337 OFFCURVE",
"1154 1289 OFFCURVE",
"1165 1192 CURVE SMOOTH",
"1180 1065 LINE",
"1317 1065 LINE",
"1307 1462 LINE",
"31 1462 LINE",
"20 1065 LINE",
"158 1065 LINE",
"172 1192 LINE SMOOTH",
"183 1289 OFFCURVE",
"224 1337 OFFCURVE",
"342 1337 CURVE SMOOTH",
"506 1337 LINE",
"506 242 LINE SMOOTH",
"506 138 OFFCURVE",
"472 109 OFFCURVE",
"401 109 CURVE SMOOTH",
"315 109 LINE",
"315 0 LINE",
"1022 0 LINE",
"1022 109 LINE",
"936 109 LINE SMOOTH",
"866 109 OFFCURVE",
"831 138 OFFCURVE",
"831 242 CURVE SMOOTH",
"831 1337 LINE",
"995 1337 LINE SMOOTH"
);
}
);
width = 1337;
},
{
layerId = "6A9350D6-C757-41BD-9D0D-806F72644A83";
paths = (
{
closed = 1;
nodes = (
"1034 125 LINE SMOOTH",
"958 125 OFFCURVE",
"907 139 OFFCURVE",
"907 248 CURVE SMOOTH",
"907 1321 LINE",
"1046 1321 LINE SMOOTH",
"1170 1321 OFFCURVE",
"1205 1283 OFFCURVE",
"1216 1192 CURVE SMOOTH",
"1233 1036 LINE",
"1392 1036 LINE",
"1382 1462 LINE",
"16 1462 LINE",
"6 1036 LINE",
"166 1036 LINE",
"184 1192 LINE SMOOTH",
"195 1283 OFFCURVE",
"231 1321 OFFCURVE",
"354 1321 CURVE SMOOTH",
"493 1321 LINE",
"493 256 LINE SMOOTH",
"493 141 OFFCURVE",
"446 125 OFFCURVE",
"366 125 CURVE SMOOTH",
"301 125 LINE",
"301 0 LINE",
"1100 0 LINE",
"1100 125 LINE"
);
}
);
width = 1396;
}
);
note = glyph55;
unicode = 0054;
},
{
glyphname = glyph56;
lastChange = "2021-04-16 11:25:07 +0000";
layers = (
{
layerId = "0DE963AB-769B-4021-B20D-45864FAF5663";
paths = (
{
closed = 1;
nodes = (
"908 -20 OFFCURVE",
"1045 67 OFFCURVE",
"1114 208 CURVE SMOOTH",
"1148 278 OFFCURVE",
"1165 357 OFFCURVE",
"1165 446 CURVE SMOOTH",
"1165 1241 LINE SMOOTH",
"1165 1327 OFFCURVE",
"1168 1392 OFFCURVE",
"1204 1409 CURVE SMOOTH",
"1220 1417 OFFCURVE",
"1245 1421 OFFCURVE",
"1279 1421 CURVE SMOOTH",
"1359 1421 LINE",
"1359 1462 LINE",
"909 1462 LINE",
"909 1421 LINE",
"993 1421 LINE SMOOTH",
"1061 1421 OFFCURVE",
"1091 1410 OFFCURVE",
"1100 1358 CURVE SMOOTH",
"1105 1332 OFFCURVE",
"1107 1293 OFFCURVE",
"1107 1241 CURVE SMOOTH",
"1107 449 LINE SMOOTH",
"1107 293 OFFCURVE",
"1050 162 OFFCURVE",
"927 87 CURVE SMOOTH",
"866 50 OFFCURVE",
"787 31 OFFCURVE",
"692 31 CURVE SMOOTH",
"437 31 OFFCURVE",
"282 157 OFFCURVE",
"282 430 CURVE SMOOTH",
"282 1241 LINE SMOOTH",
"282 1327 OFFCURVE",
"285 1392 OFFCURVE",
"321 1409 CURVE SMOOTH",
"337 1417 OFFCURVE",
"362 1421 OFFCURVE",
"397 1421 CURVE SMOOTH",
"483 1421 LINE",
"483 1462 LINE",
"26 1462 LINE",
"26 1421 LINE",
"110 1421 LINE SMOOTH",
"178 1421 OFFCURVE",
"208 1410 OFFCURVE",
"218 1358 CURVE SMOOTH",
"223 1332 OFFCURVE",
"225 1293 OFFCURVE",
"225 1241 CURVE SMOOTH",
"225 438 LINE SMOOTH",
"225 214 OFFCURVE",
"308 85 OFFCURVE",
"449 25 CURVE SMOOTH",
"519 -5 OFFCURVE",
"601 -20 OFFCURVE",
"696 -20 CURVE SMOOTH"
);
}
);
width = 1390;
},
{
layerId = "8C5547AF-2EE0-40C3-888E-C5581C9C595C";
paths = (
{
closed = 1;
nodes = (
"1043 -20 OFFCURVE",
"1208 162 OFFCURVE",
"1208 430 CURVE SMOOTH",
"1208 1235 LINE SMOOTH",
"1208 1376 OFFCURVE",
"1255 1397 OFFCURVE",
"1351 1397 CURVE SMOOTH",
"1402 1397 LINE",
"1402 1462 LINE",
"917 1462 LINE",
"917 1397 LINE",
"970 1397 LINE SMOOTH",
"1063 1397 OFFCURVE",
"1113 1375 OFFCURVE",
"1113 1239 CURVE SMOOTH",
"1113 434 LINE SMOOTH",
"1113 298 OFFCURVE",
"1062 182 OFFCURVE",
"951 118 CURVE SMOOTH",
"896 86 OFFCURVE",
"824 70 OFFCURVE",
"737 70 CURVE SMOOTH",
"513 70 OFFCURVE",
"364 177 OFFCURVE",
"364 430 CURVE SMOOTH",
"364 1235 LINE SMOOTH",
"364 1376 OFFCURVE",
"412 1397 OFFCURVE",
"507 1397 CURVE SMOOTH",
"560 1397 LINE",
"560 1462 LINE",
"28 1462 LINE",
"28 1397 LINE",
"81 1397 LINE SMOOTH",
"177 1397 OFFCURVE",
"225 1375 OFFCURVE",
"225 1239 CURVE SMOOTH",
"225 440 LINE SMOOTH",
"225 107 OFFCURVE",
"415 -20 OFFCURVE",
"720 -20 CURVE SMOOTH"
);
}
);
width = 1433;
},
{
layerId = "7FEA46FF-516C-4946-9F17-9EEA76F5F564";
paths = (
{
closed = 1;
nodes = (
"904 -20 OFFCURVE",
"1030 21 OFFCURVE",
"1115 97 CURVE SMOOTH",
"1199 172 OFFCURVE",
"1243 282 OFFCURVE",
"1243 418 CURVE SMOOTH",
"1243 1229 LINE SMOOTH",
"1243 1350 OFFCURVE",
"1310 1376 OFFCURVE",
"1411 1376 CURVE SMOOTH",
"1438 1376 LINE",
"1438 1462 LINE",
"924 1462 LINE",
"924 1376 LINE",
"950 1376 LINE SMOOTH",
"1049 1376 OFFCURVE",
"1118 1352 OFFCURVE",
"1118 1237 CURVE SMOOTH",
"1118 422 LINE SMOOTH",
"1118 329 OFFCURVE",
"1091 249 OFFCURVE",
"1035 193 CURVE SMOOTH",
"978 136 OFFCURVE",
"893 102 OFFCURVE",
"774 102 CURVE SMOOTH",
"674 102 OFFCURVE",
"589 125 OFFCURVE",
"529 177 CURVE SMOOTH",
"468 229 OFFCURVE",
"432 311 OFFCURVE",
"432 430 CURVE SMOOTH",
"432 1229 LINE SMOOTH",
"432 1350 OFFCURVE",
"499 1376 OFFCURVE",
"600 1376 CURVE SMOOTH",
"627 1376 LINE",
"627 1462 LINE",
"31 1462 LINE",
"31 1376 LINE",
"57 1376 LINE SMOOTH",
"156 1376 OFFCURVE",
"225 1352 OFFCURVE",
"225 1237 CURVE SMOOTH",
"225 442 LINE SMOOTH",
"225 275 OFFCURVE",
"273 161 OFFCURVE",
"362 87 CURVE SMOOTH",
"450 13 OFFCURVE",
"580 -20 OFFCURVE",
"741 -20 CURVE SMOOTH"
);
}
);
width = 1468;
},
{
layerId = "3CCD85FA-69E6-46C4-A32D-64775BF55ABF";
paths = (
{
closed = 1;
nodes = (
"961 1354 LINE",
"1047 1354 LINE SMOOTH",
"1115 1354 OFFCURVE",
"1151 1326 OFFCURVE",
"1151 1229 CURVE SMOOTH",
"1151 426 LINE SMOOTH",
"1151 322 OFFCURVE",
"1122 246 OFFCURVE",
"1071 197 CURVE SMOOTH",
"1019 148 OFFCURVE",
"945 125 OFFCURVE",
"854 125 CURVE SMOOTH",
"761 125 OFFCURVE",
"685 144 OFFCURVE",
"632 192 CURVE SMOOTH",
"579 239 OFFCURVE",
"549 315 OFFCURVE",
"549 430 CURVE SMOOTH",
"549 1221 LINE SMOOTH",
"549 1325 OFFCURVE",
"584 1354 OFFCURVE",
"653 1354 CURVE SMOOTH",
"739 1354 LINE",
"739 1462 LINE",
"33 1462 LINE",
"33 1354 LINE",
"121 1354 LINE SMOOTH",
"187 1354 OFFCURVE",
"225 1325 OFFCURVE",
"225 1229 CURVE SMOOTH",
"225 446 LINE SMOOTH",
"225 278 OFFCURVE",
"278 162 OFFCURVE",
"375 87 CURVE SMOOTH",
"472 12 OFFCURVE",
"614 -20 OFFCURVE",
"793 -20 CURVE SMOOTH",
"972 -20 OFFCURVE",
"1100 22 OFFCURVE",
"1184 98 CURVE SMOOTH",
"1267 174 OFFCURVE",
"1305 285 OFFCURVE",
"1305 422 CURVE SMOOTH",
"1305 1221 LINE SMOOTH",
"1305 1325 OFFCURVE",
"1340 1354 OFFCURVE",
"1409 1354 CURVE SMOOTH",
"1497 1354 LINE",
"1497 1462 LINE",
"961 1462 LINE"
);
}
);
width = 1530;
},
{
layerId = "6A9350D6-C757-41BD-9D0D-806F72644A83";
paths = (
{
closed = 1;
nodes = (
"1067 -20 OFFCURVE",
"1222 63 OFFCURVE",
"1295 203 CURVE SMOOTH",
"1331 272 OFFCURVE",
"1349 353 OFFCURVE",
"1349 444 CURVE SMOOTH",
"1349 1214 LINE SMOOTH",
"1349 1323 OFFCURVE",
"1407 1337 OFFCURVE",
"1480 1337 CURVE SMOOTH",
"1541 1337 LINE",
"1541 1462 LINE",
"988 1462 LINE",
"988 1337 LINE",
"1048 1337 LINE SMOOTH",
"1121 1337 OFFCURVE",
"1175 1323 OFFCURVE",
"1175 1223 CURVE SMOOTH",
"1175 449 LINE SMOOTH",
"1175 298 OFFCURVE",
"1123 211 OFFCURVE",
"1044 171 CURVE SMOOTH",
"1004 151 OFFCURVE",
"960 141 OFFCURVE",
"913 141 CURVE SMOOTH",
"734 141 OFFCURVE",
"634 206 OFFCURVE",
"634 430 CURVE SMOOTH",
"634 1214 LINE SMOOTH",
"634 1323 OFFCURVE",
"692 1337 OFFCURVE",
"763 1337 CURVE SMOOTH",
"822 1337 LINE",
"822 1462 LINE",
"34 1462 LINE",
"34 1337 LINE",
"93 1337 LINE SMOOTH",
"165 1337 OFFCURVE",
"224 1323 OFFCURVE",
"224 1223 CURVE SMOOTH",
"224 449 LINE SMOOTH",
"224 225 OFFCURVE",
"330 90 OFFCURVE",
"506 27 CURVE SMOOTH",
"594 -4 OFFCURVE",
"695 -20 OFFCURVE",
"810 -20 CURVE SMOOTH"
);
}
);
width = 1574;
}
);
note = glyph56;
unicode = 0055;
},
{
glyphname = glyph57;
lastChange = "2021-04-16 11:25:07 +0000";
layers = (
{
layerId = "0DE963AB-769B-4021-B20D-45864FAF5663";
paths = (
{
closed = 1;
nodes = (
"1164 1410 OFFCURVE",
"1180 1421 OFFCURVE",
"1270 1421 CURVE SMOOTH",
"1321 1421 LINE",
"1321 1462 LINE",
"879 1462 LINE",
"879 1421 LINE",
"965 1421 LINE SMOOTH",
"1015 1421 OFFCURVE",
"1046 1416 OFFCURVE",
"1059 1407 CURVE SMOOTH",
"1071 1398 OFFCURVE",
"1077 1383 OFFCURVE",
"1077 1364 CURVE SMOOTH",
"1077 1323 OFFCURVE",
"1034 1205 OFFCURVE",
"1020 1161 CURVE SMOOTH",
"795 500 LINE SMOOTH",
"751 371 OFFCURVE",
"721 281 OFFCURVE",
"697 198 CURVE SMOOTH",
"684 156 OFFCURVE",
"672 114 OFFCURVE",
"659 72 CURVE",
"622 192 OFFCURVE",
"579 316 OFFCURVE",
"516 500 CURVE SMOOTH",
"285 1161 LINE",
"270 1218 OFFCURVE",
"227 1312 OFFCURVE",
"227 1364 CURVE SMOOTH",
"227 1383 OFFCURVE",
"233 1398 OFFCURVE",
"245 1407 CURVE SMOOTH",
"256 1416 OFFCURVE",
"288 1421 OFFCURVE",
"340 1421 CURVE SMOOTH",
"440 1421 LINE",
"440 1462 LINE",
"0 1462 LINE",
"0 1421 LINE",
"35 1421 LINE SMOOTH",
"127 1421 OFFCURVE",
"137 1410 OFFCURVE",
"168 1323 CURVE SMOOTH",
"629 0 LINE",
"688 0 LINE",
"1137 1323 LINE SMOOTH"
);
}
);
width = 1320;
},
{
layerId = "8C5547AF-2EE0-40C3-888E-C5581C9C595C";
paths = (
{
closed = 1;
nodes = (
"1190 1342 OFFCURVE",
"1209 1375 OFFCURVE",
"1242 1388 CURVE SMOOTH",
"1258 1394 OFFCURVE",
"1281 1397 OFFCURVE",
"1311 1397 CURVE SMOOTH",
"1354 1397 LINE",
"1354 1462 LINE",
"881 1462 LINE",
"881 1397 LINE",
"946 1397 LINE SMOOTH",
"1039 1397 OFFCURVE",
"1071 1372 OFFCURVE",
"1071 1317 CURVE SMOOTH",
"1071 1281 OFFCURVE",
"1047 1211 OFFCURVE",
"1034 1176 CURVE SMOOTH",
"809 520 LINE SMOOTH",
"757 361 OFFCURVE",
"724 253 OFFCURVE",
"696 141 CURVE",
"667 250 OFFCURVE",
"634 371 OFFCURVE",
"582 520 CURVE SMOOTH",
"352 1184 LINE",
"347 1203 OFFCURVE",
"340 1225 OFFCURVE",
"331 1252 CURVE SMOOTH",
"322 1279 OFFCURVE",
"317 1300 OFFCURVE",
"317 1317 CURVE SMOOTH",
"317 1372 OFFCURVE",
"344 1397 OFFCURVE",
"436 1397 CURVE SMOOTH",
"508 1397 LINE",
"508 1462 LINE",
"0 1462 LINE",
"0 1397 LINE",
"31 1397 LINE SMOOTH",
"115 1397 OFFCURVE",
"139 1380 OFFCURVE",
"170 1292 CURVE SMOOTH",
"621 0 LINE",
"729 0 LINE",
"1165 1266 LINE SMOOTH"
);
}
);
width = 1353;
},
{
layerId = "7FEA46FF-516C-4946-9F17-9EEA76F5F564";
paths = (
{
closed = 1;
nodes = (
"1229 1338 OFFCURVE",
"1255 1376 OFFCURVE",
"1343 1376 CURVE SMOOTH",
"1382 1376 LINE",
"1382 1462 LINE",
"883 1462 LINE",
"883 1376 LINE",
"930 1376 LINE SMOOTH",
"1021 1376 OFFCURVE",
"1065 1347 OFFCURVE",
"1065 1276 CURVE SMOOTH",
"1065 1253 OFFCURVE",
"1058 1221 OFFCURVE",
"1047 1188 CURVE SMOOTH",
"821 537 LINE SMOOTH",
"776 409 OFFCURVE",
"748 300 OFFCURVE",
"727 201 CURVE",
"704 300 OFFCURVE",
"676 416 OFFCURVE",
"635 537 CURVE SMOOTH",
"410 1202 LINE SMOOTH",
"399 1233 OFFCURVE",
"393 1255 OFFCURVE",
"393 1278 CURVE SMOOTH",
"393 1346 OFFCURVE",
"433 1376 OFFCURVE",
"516 1376 CURVE SMOOTH",
"563 1376 LINE",
"563 1462 LINE",
"0 1462 LINE",
"0 1376 LINE",
"27 1376 LINE SMOOTH",
"108 1376 OFFCURVE",
"144 1350 OFFCURVE",
"172 1268 CURVE SMOOTH",
"614 0 LINE",
"764 0 LINE",
"1188 1217 LINE SMOOTH"
);
}
);
width = 1382;
},
{
layerId = "3CCD85FA-69E6-46C4-A32D-64775BF55ABF";
paths = (
{
closed = 1;
nodes = (
"901 1354 LINE",
"1008 1354 LINE SMOOTH",
"1057 1354 OFFCURVE",
"1090 1329 OFFCURVE",
"1090 1284 CURVE SMOOTH",
"1090 1262 OFFCURVE",
"1074 1209 OFFCURVE",
"1065 1184 CURVE SMOOTH",
"854 561 LINE SMOOTH",
"833 495 OFFCURVE",
"794 367 OFFCURVE",
"786 319 CURVE",
"779 384 OFFCURVE",
"748 512 OFFCURVE",
"729 567 CURVE SMOOTH",
"520 1198 LINE SMOOTH",
"512 1221 OFFCURVE",
"502 1259 OFFCURVE",
"502 1286 CURVE SMOOTH",
"502 1334 OFFCURVE",
"540 1354 OFFCURVE",
"582 1354 CURVE SMOOTH",
"676 1354 LINE",
"676 1462 LINE",
"0 1462 LINE",
"0 1354 LINE",
"47 1354 LINE SMOOTH",
"96 1354 OFFCURVE",
"150 1325 OFFCURVE",
"174 1255 CURVE SMOOTH",
"610 0 LINE",
"815 0 LINE",
"1233 1204 LINE SMOOTH",
"1267 1305 OFFCURVE",
"1287 1354 OFFCURVE",
"1331 1354 CURVE SMOOTH",
"1430 1354 LINE",
"1430 1462 LINE",
"901 1462 LINE"
);
}
);
width = 1430;
},
{
layerId = "6A9350D6-C757-41BD-9D0D-806F72644A83";
paths = (
{
closed = 1;
nodes = (
"1306 1316 OFFCURVE",
"1333 1337 OFFCURVE",
"1393 1337 CURVE SMOOTH",
"1464 1337 LINE",
"1464 1462 LINE",
"936 1462 LINE",
"936 1337 LINE",
"1053 1337 LINE SMOOTH",
"1093 1337 OFFCURVE",
"1108 1316 OFFCURVE",
"1108 1296 CURVE SMOOTH",
"1108 1267 OFFCURVE",
"1092 1220 OFFCURVE",
"1073 1163 CURVE SMOOTH",
"879 580 LINE SMOOTH",
"862 533 OFFCURVE",
"839 444 OFFCURVE",
"834 397 CURVE",
"829 447 OFFCURVE",
"807 556 OFFCURVE",
"799 590 CURVE",
"606 1184 LINE SMOOTH",
"595 1219 OFFCURVE",
"582 1263 OFFCURVE",
"582 1292 CURVE SMOOTH",
"582 1322 OFFCURVE",
"602 1337 OFFCURVE",
"641 1337 CURVE SMOOTH",
"739 1337 LINE",
"739 1462 LINE",
"0 1462 LINE",
"0 1337 LINE",
"61 1337 LINE SMOOTH",
"102 1337 OFFCURVE",
"152 1318 OFFCURVE",
"176 1247 CURVE SMOOTH",
"608 0 LINE",
"852 0 LINE",
"1266 1196 LINE SMOOTH"
);
}
);
width = 1464;
}
);
note = glyph57;
unicode = 0056;
},
{
glyphname = glyph58;
lastChange = "2021-04-16 11:25:07 +0000";
layers = (
{
layerId = "0DE963AB-769B-4021-B20D-45864FAF5663";
paths = (
{
closed = 1;
nodes = (
"1397 0 LINE",
"1454 0 LINE",
"1862 1321 LINE SMOOTH",
"1889 1410 OFFCURVE",
"1906 1421 OFFCURVE",
"1995 1421 CURVE SMOOTH",
"2052 1421 LINE",
"2052 1462 LINE",
"1618 1462 LINE",
"1618 1421 LINE",
"1690 1421 LINE SMOOTH",
"1740 1421 OFFCURVE",
"1771 1416 OFFCURVE",
"1784 1407 CURVE SMOOTH",
"1796 1398 OFFCURVE",
"1802 1383 OFFCURVE",
"1802 1364 CURVE SMOOTH",
"1802 1336 OFFCURVE",
"1790 1295 OFFCURVE",
"1767 1219 CURVE SMOOTH",
"1524 420 LINE",
"1485 303 OFFCURVE",
"1451 172 OFFCURVE",
"1432 84 CURVE",
"1421 136 OFFCURVE",
"1408 189 OFFCURVE",
"1394 244 CURVE SMOOTH",
"1379 299 OFFCURVE",
"1363 359 OFFCURVE",
"1346 426 CURVE SMOOTH",
"1069 1462 LINE",
"1012 1462 LINE",
"725 387 LINE SMOOTH",
"710 331 OFFCURVE",
"697 281 OFFCURVE",
"688 236 CURVE SMOOTH",
"679 191 OFFCURVE",
"668 139 OFFCURVE",
"655 82 CURVE",
"640 140 OFFCURVE",
"616 233 OFFCURVE",
"603 278 CURVE SMOOTH",
"594 309 OFFCURVE",
"584 345 OFFCURVE",
"571 387 CURVE SMOOTH",
"315 1219 LINE SMOOTH",
"303 1258 OFFCURVE",
"294 1289 OFFCURVE",
"288 1311 CURVE SMOOTH",
"282 1332 OFFCURVE",
"279 1350 OFFCURVE",
"279 1364 CURVE SMOOTH",
"279 1383 OFFCURVE",
"285 1398 OFFCURVE",
"297 1407 CURVE SMOOTH",
"309 1416 OFFCURVE",
"340 1421 OFFCURVE",
"391 1421 CURVE SMOOTH",
"475 1421 LINE",
"475 1462 LINE",
"43 1462 LINE",
"43 1421 LINE",
"88 1421 LINE SMOOTH",
"178 1421 OFFCURVE",
"198 1410 OFFCURVE",
"221 1323 CURVE",
"627 0 LINE",
"684 0 LINE",
"1038 1370 LINE"
);
}
);
width = 2091;
},
{
layerId = "8C5547AF-2EE0-40C3-888E-C5581C9C595C";
paths = (
{
closed = 1;
nodes = (
"1398 0 LINE",
"1525 0 LINE",
"1900 1264 LINE SMOOTH",
"1932 1381 OFFCURVE",
"1961 1397 OFFCURVE",
"2045 1397 CURVE SMOOTH",
"2092 1397 LINE",
"2092 1462 LINE",
"1621 1462 LINE",
"1621 1397 LINE",
"1681 1397 LINE SMOOTH",
"1776 1397 OFFCURVE",
"1806 1372 OFFCURVE",
"1806 1317 CURVE SMOOTH",
"1806 1303 OFFCURVE",
"1803 1285 OFFCURVE",
"1797 1264 CURVE SMOOTH",
"1790 1242 OFFCURVE",
"1784 1218 OFFCURVE",
"1777 1192 CURVE SMOOTH",
"1568 483 LINE SMOOTH",
"1529 358 OFFCURVE",
"1501 240 OFFCURVE",
"1482 147 CURVE",
"1461 246 OFFCURVE",
"1430 363 OFFCURVE",
"1394 500 CURVE SMOOTH",
"1128 1454 LINE",
"1021 1454 LINE",
"759 487 LINE SMOOTH",
"724 364 OFFCURVE",
"704 256 OFFCURVE",
"681 147 CURVE",
"654 256 OFFCURVE",
"631 350 OFFCURVE",
"595 475 CURVE SMOOTH",
"376 1210 LINE SMOOTH",
"360 1262 OFFCURVE",
"350 1292 OFFCURVE",
"350 1317 CURVE SMOOTH",
"350 1372 OFFCURVE",
"379 1397 OFFCURVE",
"468 1397 CURVE SMOOTH",
"532 1397 LINE",
"532 1462 LINE",
"28 1462 LINE",
"28 1397 LINE",
"65 1397 LINE SMOOTH",
"149 1397 OFFCURVE",
"177 1380 OFFCURVE",
"204 1292 CURVE SMOOTH",
"593 0 LINE",
"722 0 LINE",
"1054 1249 LINE"
);
}
);
width = 2119;
},
{
layerId = "7FEA46FF-516C-4946-9F17-9EEA76F5F564";
paths = (
{
closed = 1;
nodes = (
"752 437 OFFCURVE",
"725 308 OFFCURVE",
"705 201 CURVE",
"682 300 OFFCURVE",
"651 423 OFFCURVE",
"616 547 CURVE SMOOTH",
"428 1202 LINE",
"417 1243 LINE SMOOTH",
"414 1255 OFFCURVE",
"412 1267 OFFCURVE",
"412 1278 CURVE SMOOTH",
"412 1346 OFFCURVE",
"452 1376 OFFCURVE",
"535 1376 CURVE SMOOTH",
"582 1376 LINE",
"582 1462 LINE",
"18 1462 LINE",
"18 1376 LINE",
"45 1376 LINE SMOOTH",
"128 1376 OFFCURVE",
"164 1351 OFFCURVE",
"190 1268 CURVE SMOOTH",
"565 0 LINE",
"754 0 LINE",
"1067 1147 LINE",
"1401 0 LINE",
"1585 0 LINE",
"1931 1217 LINE SMOOTH",
"1967 1339 OFFCURVE",
"1998 1376 OFFCURVE",
"2087 1376 CURVE SMOOTH",
"2126 1376 LINE",
"2126 1462 LINE",
"1626 1462 LINE",
"1626 1376 LINE",
"1673 1376 LINE SMOOTH",
"1764 1376 OFFCURVE",
"1808 1347 OFFCURVE",
"1808 1276 CURVE SMOOTH",
"1808 1258 OFFCURVE",
"1793 1199 OFFCURVE",
"1786 1169 CURVE",
"1606 537 LINE SMOOTH",
"1569 405 OFFCURVE",
"1544 300 OFFCURVE",
"1524 201 CURVE",
"1505 296 OFFCURVE",
"1475 425 OFFCURVE",
"1436 561 CURVE SMOOTH",
"1180 1448 LINE",
"1032 1448 LINE",
"788 569 LINE SMOOTH"
);
}
);
width = 2144;
},
{
layerId = "3CCD85FA-69E6-46C4-A32D-64775BF55ABF";
paths = (
{
closed = 1;
nodes = (
"793 491 OFFCURVE",
"771 418 OFFCURVE",
"752 330 CURVE",
"742 414 OFFCURVE",
"698 580 OFFCURVE",
"672 672 CURVE SMOOTH",
"535 1145 LINE SMOOTH",
"524 1182 OFFCURVE",
"514 1232 OFFCURVE",
"514 1255 CURVE SMOOTH",
"514 1323 OFFCURVE",
"554 1354 OFFCURVE",
"637 1354 CURVE SMOOTH",
"684 1354 LINE",
"684 1462 LINE",
"0 1462 LINE",
"0 1354 LINE",
"27 1354 LINE SMOOTH",
"106 1354 OFFCURVE",
"149 1328 OFFCURVE",
"172 1245 CURVE SMOOTH",
"547 0 LINE",
"801 0 LINE",
"1096 961 LINE",
"1440 0 LINE",
"1673 0 LINE",
"1991 1194 LINE SMOOTH",
"2025 1317 OFFCURVE",
"2057 1354 OFFCURVE",
"2146 1354 CURVE SMOOTH",
"2185 1354 LINE",
"2185 1462 LINE",
"1651 1462 LINE",
"1651 1354 LINE",
"1698 1354 LINE SMOOTH",
"1789 1354 OFFCURVE",
"1829 1328 OFFCURVE",
"1829 1257 CURVE SMOOTH",
"1829 1236 OFFCURVE",
"1817 1177 OFFCURVE",
"1810 1147 CURVE SMOOTH",
"1702 705 LINE SMOOTH",
"1686 640 OFFCURVE",
"1671 569 OFFCURVE",
"1657 503 CURVE SMOOTH",
"1645 449 OFFCURVE",
"1629 367 OFFCURVE",
"1620 326 CURVE",
"1608 390 OFFCURVE",
"1558 563 OFFCURVE",
"1520 666 CURVE SMOOTH",
"1237 1448 LINE",
"1087 1448 LINE",
"817 571 LINE SMOOTH"
);
}
);
width = 2185;
},
{
layerId = "6A9350D6-C757-41BD-9D0D-806F72644A83";
paths = (
{
closed = 1;
nodes = (
"1420 0 LINE",
"1719 0 LINE",
"2036 1178 LINE SMOOTH",
"2075 1311 OFFCURVE",
"2112 1337 OFFCURVE",
"2192 1337 CURVE SMOOTH",
"2231 1337 LINE",
"2231 1462 LINE",
"1669 1462 LINE",
"1669 1337 LINE",
"1717 1337 LINE SMOOTH",
"1806 1337 OFFCURVE",
"1841 1311 OFFCURVE",
"1841 1243 CURVE SMOOTH",
"1841 1208 OFFCURVE",
"1822 1136 OFFCURVE",
"1809 1081 CURVE SMOOTH",
"1731 776 LINE SMOOTH",
"1715 711 OFFCURVE",
"1684 595 OFFCURVE",
"1668 523 CURVE SMOOTH",
"1658 480 OFFCURVE",
"1650 445 OFFCURVE",
"1645 416 CURVE",
"1629 500 OFFCURVE",
"1600 615 OFFCURVE",
"1559 743 CURVE SMOOTH",
"1331 1448 LINE",
"1121 1448 LINE",
"856 668 LINE SMOOTH",
"824 569 OFFCURVE",
"803 500 OFFCURVE",
"787 424 CURVE",
"776 503 OFFCURVE",
"752 595 OFFCURVE",
"729 680 CURVE SMOOTH",
"615 1102 LINE SMOOTH",
"603 1146 OFFCURVE",
"590 1218 OFFCURVE",
"590 1239 CURVE SMOOTH",
"590 1304 OFFCURVE",
"631 1337 OFFCURVE",
"713 1337 CURVE SMOOTH",
"760 1337 LINE",
"760 1462 LINE",
"-12 1462 LINE",
"-12 1337 LINE",
"15 1337 LINE SMOOTH",
"94 1337 OFFCURVE",
"133 1316 OFFCURVE",
"160 1229 CURVE SMOOTH",
"535 0 LINE",
"836 0 LINE",
"1131 907 LINE"
);
}
);
width = 2215;
}
);
note = glyph58;
unicode = 0057;
},
{
glyphname = glyph59;
lastChange = "2021-04-16 11:25:07 +0000";
layers = (
{
layerId = "0DE963AB-769B-4021-B20D-45864FAF5663";
paths = (
{
closed = 1;
nodes = (
"360 41 LINE SMOOTH",
"323 41 OFFCURVE",
"301 45 OFFCURVE",
"293 52 CURVE SMOOTH",
"284 59 OFFCURVE",
"280 69 OFFCURVE",
"280 82 CURVE SMOOTH",
"280 98 OFFCURVE",
"287 120 OFFCURVE",
"301 147 CURVE SMOOTH",
"314 174 OFFCURVE",
"340 223 OFFCURVE",
"377 293 CURVE SMOOTH",
"590 696 LINE",
"835 246 LINE SMOOTH",
"861 199 OFFCURVE",
"880 164 OFFCURVE",
"892 141 CURVE SMOOTH",
"903 118 OFFCURVE",
"909 98 OFFCURVE",
"909 82 CURVE SMOOTH",
"909 69 OFFCURVE",
"905 59 OFFCURVE",
"898 52 CURVE SMOOTH",
"890 45 OFFCURVE",
"869 41 OFFCURVE",
"835 41 CURVE SMOOTH",
"757 41 LINE",
"757 0 LINE",
"1155 0 LINE",
"1155 41 LINE",
"1106 41 LINE SMOOTH",
"1046 41 OFFCURVE",
"1021 46 OFFCURVE",
"1001 74 CURVE SMOOTH",
"990 87 OFFCURVE",
"977 109 OFFCURVE",
"960 139 CURVE SMOOTH",
"618 756 LINE",
"917 1327 LINE SMOOTH",
"957 1409 OFFCURVE",
"975 1421 OFFCURVE",
"1063 1421 CURVE SMOOTH",
"1124 1421 LINE",
"1124 1462 LINE",
"717 1462 LINE",
"717 1421 LINE",
"790 1421 LINE SMOOTH",
"825 1421 OFFCURVE",
"847 1417 OFFCURVE",
"855 1410 CURVE SMOOTH",
"862 1403 OFFCURVE",
"866 1393 OFFCURVE",
"866 1380 CURVE SMOOTH",
"866 1364 OFFCURVE",
"860 1345 OFFCURVE",
"849 1322 CURVE SMOOTH",
"837 1299 OFFCURVE",
"824 1273 OFFCURVE",
"809 1243 CURVE SMOOTH",
"585 815 LINE",
"354 1245 LINE SMOOTH",
"318 1308 OFFCURVE",
"297 1348 OFFCURVE",
"297 1380 CURVE SMOOTH",
"297 1393 OFFCURVE",
"301 1403 OFFCURVE",
"309 1410 CURVE SMOOTH",
"317 1417 OFFCURVE",
"340 1421 OFFCURVE",
"377 1421 CURVE SMOOTH",
"436 1421 LINE",
"436 1462 LINE",
"37 1462 LINE",
"37 1421 LINE",
"100 1421 LINE SMOOTH",
"190 1421 OFFCURVE",
"198 1409 OFFCURVE",
"245 1325 CURVE SMOOTH",
"555 758 LINE",
"231 137 LINE SMOOTH",
"188 54 OFFCURVE",
"173 41 OFFCURVE",
"84 41 CURVE SMOOTH",
"12 41 LINE",
"12 0 LINE",
"463 0 LINE",
"463 41 LINE"
);
}
);
width = 1167;
},
{
layerId = "8C5547AF-2EE0-40C3-888E-C5581C9C595C";
paths = (
{
closed = 1;
nodes = (
"436 66 LINE SMOOTH",
"393 66 OFFCURVE",
"364 70 OFFCURVE",
"349 79 CURVE SMOOTH",
"333 88 OFFCURVE",
"325 101 OFFCURVE",
"325 119 CURVE SMOOTH",
"325 156 OFFCURVE",
"352 206 OFFCURVE",
"399 289 CURVE SMOOTH",
"620 655 LINE",
"841 272 LINE",
"898 174 LINE SMOOTH",
"908 155 OFFCURVE",
"913 137 OFFCURVE",
"913 121 CURVE SMOOTH",
"913 85 OFFCURVE",
"886 66 OFFCURVE",
"813 66 CURVE SMOOTH",
"772 66 LINE",
"772 0 LINE",
"1253 0 LINE",
"1253 66 LINE",
"1216 66 LINE SMOOTH",
"1145 66 OFFCURVE",
"1114 85 OFFCURVE",
"1061 170 CURVE SMOOTH",
"700 780 LINE",
"997 1274 LINE SMOOTH",
"1060 1375 OFFCURVE",
"1088 1397 OFFCURVE",
"1175 1397 CURVE SMOOTH",
"1212 1397 LINE",
"1212 1462 LINE",
"782 1462 LINE",
"782 1397 LINE",
"819 1397 LINE SMOOTH",
"887 1397 OFFCURVE",
"913 1383 OFFCURVE",
"913 1346 CURVE SMOOTH",
"913 1310 OFFCURVE",
"889 1266 OFFCURVE",
"860 1214 CURVE SMOOTH",
"653 860 LINE",
"446 1219 LINE SMOOTH",
"407 1287 OFFCURVE",
"393 1315 OFFCURVE",
"393 1346 CURVE SMOOTH",
"393 1361 OFFCURVE",
"399 1373 OFFCURVE",
"412 1383 CURVE SMOOTH",
"424 1392 OFFCURVE",
"451 1397 OFFCURVE",
"493 1397 CURVE SMOOTH",
"524 1397 LINE",
"524 1462 LINE",
"41 1462 LINE",
"41 1397 LINE",
"84 1397 LINE SMOOTH",
"157 1397 OFFCURVE",
"197 1377 OFFCURVE",
"245 1294 CURVE SMOOTH",
"571 737 LINE",
"237 188 LINE SMOOTH",
"177 91 OFFCURVE",
"146 66 OFFCURVE",
"53 66 CURVE SMOOTH",
"14 66 LINE",
"14 0 LINE",
"485 0 LINE",
"485 66 LINE"
);
}
);
width = 1267;
},
{
layerId = "7FEA46FF-516C-4946-9F17-9EEA76F5F564";
paths = (
{
closed = 1;
nodes = (
"954 1280 OFFCURVE",
"934 1239 OFFCURVE",
"903 1192 CURVE SMOOTH",
"709 897 LINE",
"524 1196 LINE SMOOTH",
"487 1254 OFFCURVE",
"475 1285 OFFCURVE",
"475 1317 CURVE SMOOTH",
"475 1358 OFFCURVE",
"512 1376 OFFCURVE",
"592 1376 CURVE SMOOTH",
"598 1376 LINE",
"598 1462 LINE",
"43 1462 LINE",
"43 1376 LINE",
"70 1376 LINE SMOOTH",
"131 1376 OFFCURVE",
"197 1347 OFFCURVE",
"246 1268 CURVE SMOOTH",
"584 719 LINE",
"242 229 LINE SMOOTH",
"172 129 OFFCURVE",
"130 86 OFFCURVE",
"29 86 CURVE SMOOTH",
"16 86 LINE",
"16 0 LINE",
"504 0 LINE",
"504 86 LINE",
"498 86 LINE SMOOTH",
"407 86 OFFCURVE",
"365 103 OFFCURVE",
"365 150 CURVE SMOOTH",
"365 191 OFFCURVE",
"396 253 OFFCURVE",
"418 285 CURVE SMOOTH",
"645 621 LINE",
"848 295 LINE SMOOTH",
"893 222 OFFCURVE",
"915 190 OFFCURVE",
"915 154 CURVE SMOOTH",
"915 109 OFFCURVE",
"874 86 OFFCURVE",
"793 86 CURVE SMOOTH",
"782 86 LINE",
"782 0 LINE",
"1335 0 LINE",
"1335 86 LINE",
"1309 86 LINE SMOOTH",
"1257 86 OFFCURVE",
"1205 115 OFFCURVE",
"1145 195 CURVE",
"768 801 LINE",
"1065 1229 LINE SMOOTH",
"1136 1332 OFFCURVE",
"1183 1376 OFFCURVE",
"1268 1376 CURVE SMOOTH",
"1286 1376 LINE",
"1286 1462 LINE",
"838 1462 LINE",
"838 1376 LINE",
"844 1376 LINE SMOOTH",
"905 1376 OFFCURVE",
"954 1366 OFFCURVE",
"954 1317 CURVE SMOOTH"
);
}
);
width = 1352;
},
{
layerId = "3CCD85FA-69E6-46C4-A32D-64775BF55ABF";
paths = (
{
closed = 1;
nodes = (
"1071 1257 OFFCURVE",
"1040 1206 OFFCURVE",
"1016 1169 CURVE",
"838 920 LINE",
"668 1174 LINE SMOOTH",
"637 1221 OFFCURVE",
"614 1266 OFFCURVE",
"614 1294 CURVE SMOOTH",
"614 1335 OFFCURVE",
"655 1354 OFFCURVE",
"735 1354 CURVE SMOOTH",
"741 1354 LINE",
"741 1462 LINE",
"63 1462 LINE",
"63 1354 LINE",
"90 1354 LINE SMOOTH",
"181 1354 OFFCURVE",
"220 1318 OFFCURVE",
"266 1245 CURVE SMOOTH",
"604 719 LINE",
"246 252 LINE SMOOTH",
"181 166 OFFCURVE",
"129 109 OFFCURVE",
"33 109 CURVE SMOOTH",
"20 109 LINE",
"20 0 LINE",
"537 0 LINE",
"537 109 LINE",
"530 109 LINE SMOOTH",
"439 109 OFFCURVE",
"406 133 OFFCURVE",
"406 178 CURVE SMOOTH",
"406 221 OFFCURVE",
"434 268 OFFCURVE",
"459 303 CURVE SMOOTH",
"680 602 LINE",
"868 317 LINE SMOOTH",
"918 245 OFFCURVE",
"936 212 OFFCURVE",
"936 176 CURVE SMOOTH",
"936 131 OFFCURVE",
"895 109 OFFCURVE",
"813 109 CURVE SMOOTH",
"803 109 LINE",
"803 0 LINE",
"1479 0 LINE",
"1479 109 LINE",
"1452 109 LINE SMOOTH",
"1401 109 OFFCURVE",
"1341 133 OFFCURVE",
"1288 217 CURVE SMOOTH",
"911 801 LINE",
"1208 1206 LINE SMOOTH",
"1279 1306 OFFCURVE",
"1326 1354 OFFCURVE",
"1411 1354 CURVE SMOOTH",
"1430 1354 LINE",
"1430 1462 LINE",
"950 1462 LINE",
"950 1354 LINE",
"956 1354 LINE SMOOTH",
"1019 1354 OFFCURVE",
"1071 1344 OFFCURVE",
"1071 1294 CURVE SMOOTH"
);
}
);
width = 1499;
},
{
layerId = "6A9350D6-C757-41BD-9D0D-806F72644A83";
paths = (
{
closed = 1;
nodes = (
"550 125 LINE SMOOTH",
"461 125 OFFCURVE",
"434 152 OFFCURVE",
"434 199 CURVE SMOOTH",
"434 242 OFFCURVE",
"462 282 OFFCURVE",
"487 317 CURVE",
"704 588 LINE",
"882 334 LINE SMOOTH",
"913 291 OFFCURVE",
"933 261 OFFCURVE",
"940 243 CURVE SMOOTH",
"947 224 OFFCURVE",
"950 208 OFFCURVE",
"950 193 CURVE SMOOTH",
"950 148 OFFCURVE",
"909 125 OFFCURVE",
"827 125 CURVE SMOOTH",
"817 125 LINE",
"817 0 LINE",
"1583 0 LINE",
"1583 125 LINE",
"1556 125 LINE SMOOTH",
"1504 125 OFFCURVE",
"1447 152 OFFCURVE",
"1392 233 CURVE SMOOTH",
"1015 801 LINE",
"1312 1190 LINE SMOOTH",
"1395 1299 OFFCURVE",
"1436 1337 OFFCURVE",
"1515 1337 CURVE SMOOTH",
"1533 1337 LINE",
"1533 1462 LINE",
"1032 1462 LINE",
"1032 1337 LINE",
"1042 1337 LINE SMOOTH",
"1105 1337 OFFCURVE",
"1157 1327 OFFCURVE",
"1157 1278 CURVE SMOOTH",
"1157 1239 OFFCURVE",
"1120 1184 OFFCURVE",
"1097 1153 CURVE SMOOTH",
"931 936 LINE",
"772 1157 LINE SMOOTH",
"744 1193 OFFCURVE",
"716 1241 OFFCURVE",
"716 1272 CURVE SMOOTH",
"716 1288 OFFCURVE",
"724 1303 OFFCURVE",
"739 1317 CURVE SMOOTH",
"754 1330 OFFCURVE",
"785 1337 OFFCURVE",
"833 1337 CURVE SMOOTH",
"845 1337 LINE",
"845 1462 LINE",
"77 1462 LINE",
"77 1337 LINE",
"104 1337 LINE SMOOTH",
"211 1337 OFFCURVE",
"233 1297 OFFCURVE",
"280 1229 CURVE SMOOTH",
"618 719 LINE",
"247 268 LINE SMOOTH",
"184 192 OFFCURVE",
"133 125 OFFCURVE",
"34 125 CURVE SMOOTH",
"22 125 LINE",
"22 0 LINE",
"559 0 LINE",
"559 125 LINE"
);
}
);
width = 1607;
}
);
note = glyph59;
unicode = 0058;
},
{
glyphname = glyph60;
lastChange = "2021-04-16 11:25:07 +0000";
layers = (
{
layerId = "0DE963AB-769B-4021-B20D-45864FAF5663";
paths = (
{
closed = 1;
nodes = (
"701 41 LINE SMOOTH",
"633 41 OFFCURVE",
"604 53 OFFCURVE",
"594 105 CURVE SMOOTH",
"589 130 OFFCURVE",
"586 169 OFFCURVE",
"586 221 CURVE SMOOTH",
"586 729 LINE",
"955 1335 LINE SMOOTH",
"1002 1412 OFFCURVE",
"1014 1421 OFFCURVE",
"1102 1421 CURVE SMOOTH",
"1119 1421 LINE",
"1119 1462 LINE",
"726 1462 LINE",
"726 1421 LINE",
"826 1421 LINE SMOOTH",
"860 1421 OFFCURVE",
"882 1418 OFFCURVE",
"891 1411 CURVE SMOOTH",
"900 1404 OFFCURVE",
"904 1396 OFFCURVE",
"904 1386 CURVE SMOOTH",
"904 1362 OFFCURVE",
"886 1332 OFFCURVE",
"859 1288 CURVE SMOOTH",
"666 971 LINE SMOOTH",
"640 927 OFFCURVE",
"618 890 OFFCURVE",
"599 859 CURVE SMOOTH",
"580 828 OFFCURVE",
"565 803 OFFCURVE",
"556 782 CURVE",
"533 822 OFFCURVE",
"508 863 OFFCURVE",
"482 905 CURVE SMOOTH",
"456 946 OFFCURVE",
"430 988 OFFCURVE",
"404 1030 CURVE SMOOTH",
"242 1288 LINE SMOOTH",
"215 1332 OFFCURVE",
"195 1362 OFFCURVE",
"195 1386 CURVE SMOOTH",
"195 1396 OFFCURVE",
"200 1404 OFFCURVE",
"209 1411 CURVE SMOOTH",
"218 1418 OFFCURVE",
"239 1421 OFFCURVE",
"273 1421 CURVE SMOOTH",
"340 1421 LINE",
"340 1462 LINE",
"-22 1462 LINE",
"-22 1421 LINE",
"-4 1421 LINE SMOOTH",
"88 1421 OFFCURVE",
"92 1411 OFFCURVE",
"146 1333 CURVE",
"529 725 LINE",
"529 221 LINE SMOOTH",
"529 135 OFFCURVE",
"526 72 OFFCURVE",
"490 54 CURVE SMOOTH",
"473 45 OFFCURVE",
"448 41 OFFCURVE",
"414 41 CURVE SMOOTH",
"314 41 LINE",
"314 0 LINE",
"799 0 LINE",
"799 41 LINE"
);
}
);
width = 1103;
},
{
layerId = "8C5547AF-2EE0-40C3-888E-C5581C9C595C";
paths = (
{
closed = 1;
nodes = (
"818 66 LINE SMOOTH",
"722 66 OFFCURVE",
"674 86 OFFCURVE",
"674 227 CURVE SMOOTH",
"674 664 LINE",
"1031 1270 LINE SMOOTH",
"1091 1374 OFFCURVE",
"1119 1397 OFFCURVE",
"1190 1397 CURVE SMOOTH",
"1211 1397 LINE",
"1211 1462 LINE",
"758 1462 LINE",
"758 1397 LINE",
"836 1397 LINE SMOOTH",
"912 1397 OFFCURVE",
"938 1375 OFFCURVE",
"938 1331 CURVE SMOOTH",
"938 1301 OFFCURVE",
"925 1264 OFFCURVE",
"899 1221 CURVE SMOOTH",
"740 948 LINE SMOOTH",
"691 864 OFFCURVE",
"644 784 OFFCURVE",
"623 735 CURVE",
"590 803 OFFCURVE",
"547 890 OFFCURVE",
"498 975 CURVE SMOOTH",
"342 1241 LINE SMOOTH",
"321 1277 OFFCURVE",
"299 1313 OFFCURVE",
"299 1346 CURVE SMOOTH",
"299 1361 OFFCURVE",
"304 1373 OFFCURVE",
"315 1383 CURVE SMOOTH",
"325 1392 OFFCURVE",
"348 1397 OFFCURVE",
"385 1397 CURVE SMOOTH",
"457 1397 LINE",
"457 1462 LINE",
"-16 1462 LINE",
"-16 1397 LINE",
"7 1397 LINE SMOOTH",
"86 1397 OFFCURVE",
"107 1375 OFFCURVE",
"154 1298 CURVE SMOOTH",
"535 662 LINE",
"535 223 LINE SMOOTH",
"535 84 OFFCURVE",
"487 66 OFFCURVE",
"392 66 CURVE SMOOTH",
"320 66 LINE",
"320 0 LINE",
"889 0 LINE",
"889 66 LINE"
);
}
);
width = 1200;
},
{
layerId = "7FEA46FF-516C-4946-9F17-9EEA76F5F564";
paths = (
{
closed = 1;
nodes = (
"915 86 LINE SMOOTH",
"813 86 OFFCURVE",
"748 113 OFFCURVE",
"748 233 CURVE SMOOTH",
"748 610 LINE",
"1092 1217 LINE SMOOTH",
"1152 1322 OFFCURVE",
"1196 1376 OFFCURVE",
"1262 1376 CURVE SMOOTH",
"1286 1376 LINE",
"1286 1462 LINE",
"786 1462 LINE",
"786 1376 LINE",
"846 1376 LINE SMOOTH",
"925 1376 OFFCURVE",
"969 1346 OFFCURVE",
"969 1286 CURVE SMOOTH",
"969 1253 OFFCURVE",
"959 1210 OFFCURVE",
"932 1163 CURVE SMOOTH",
"801 928 LINE SMOOTH",
"762 858 OFFCURVE",
"699 746 OFFCURVE",
"678 694 CURVE",
"655 758 OFFCURVE",
"623 844 OFFCURVE",
"575 928 CURVE SMOOTH",
"424 1202 LINE SMOOTH",
"408 1231 OFFCURVE",
"387 1272 OFFCURVE",
"387 1311 CURVE SMOOTH",
"387 1354 OFFCURVE",
"410 1376 OFFCURVE",
"477 1376 CURVE SMOOTH",
"553 1376 LINE",
"553 1462 LINE",
"-10 1462 LINE",
"-10 1376 LINE",
"16 1376 LINE SMOOTH",
"88 1376 OFFCURVE",
"119 1342 OFFCURVE",
"162 1268 CURVE SMOOTH",
"541 610 LINE",
"541 223 LINE SMOOTH",
"541 109 OFFCURVE",
"474 86 OFFCURVE",
"373 86 CURVE SMOOTH",
"326 86 LINE",
"326 0 LINE",
"963 0 LINE",
"963 86 LINE"
);
}
);
width = 1280;
},
{
layerId = "3CCD85FA-69E6-46C4-A32D-64775BF55ABF";
paths = (
{
closed = 1;
nodes = (
"991 109 LINE SMOOTH",
"917 109 OFFCURVE",
"877 128 OFFCURVE",
"877 236 CURVE SMOOTH",
"877 516 LINE",
"1225 1194 LINE SMOOTH",
"1281 1306 OFFCURVE",
"1304 1354 OFFCURVE",
"1380 1354 CURVE SMOOTH",
"1419 1354 LINE",
"1419 1462 LINE",
"883 1462 LINE",
"883 1354 LINE",
"930 1354 LINE SMOOTH",
"1021 1354 OFFCURVE",
"1065 1324 OFFCURVE",
"1065 1253 CURVE SMOOTH",
"1065 1230 OFFCURVE",
"1059 1190 OFFCURVE",
"1030 1130 CURVE SMOOTH",
"911 885 LINE SMOOTH",
"866 793 OFFCURVE",
"829 707 OFFCURVE",
"801 635 CURVE",
"778 699 OFFCURVE",
"754 761 OFFCURVE",
"711 848 CURVE SMOOTH",
"559 1149 LINE SMOOTH",
"543 1184 OFFCURVE",
"528 1227 OFFCURVE",
"528 1262 CURVE SMOOTH",
"528 1318 OFFCURVE",
"568 1354 OFFCURVE",
"651 1354 CURVE SMOOTH",
"686 1354 LINE",
"686 1462 LINE",
"0 1462 LINE",
"0 1354 LINE",
"27 1354 LINE SMOOTH",
"107 1354 OFFCURVE",
"133 1322 OFFCURVE",
"172 1245 CURVE SMOOTH",
"551 518 LINE",
"551 233 LINE SMOOTH",
"551 127 OFFCURVE",
"509 109 OFFCURVE",
"432 109 CURVE SMOOTH",
"336 109 LINE",
"336 0 LINE",
"1092 0 LINE",
"1092 109 LINE"
);
}
);
width = 1419;
},
{
layerId = "6A9350D6-C757-41BD-9D0D-806F72644A83";
paths = (
{
closed = 1;
nodes = (
"1089 125 LINE SMOOTH",
"1026 125 OFFCURVE",
"973 146 OFFCURVE",
"973 258 CURVE SMOOTH",
"973 467 LINE",
"1327 1180 LINE SMOOTH",
"1371 1264 OFFCURVE",
"1397 1307 OFFCURVE",
"1430 1324 CURVE SMOOTH",
"1446 1333 OFFCURVE",
"1467 1337 OFFCURVE",
"1493 1337 CURVE SMOOTH",
"1517 1337 LINE",
"1517 1462 LINE",
"954 1462 LINE",
"954 1337 LINE",
"993 1337 LINE SMOOTH",
"1092 1337 OFFCURVE",
"1136 1305 OFFCURVE",
"1136 1229 CURVE SMOOTH",
"1136 1222 OFFCURVE",
"1134 1209 OFFCURVE",
"1131 1189 CURVE SMOOTH",
"1128 1169 OFFCURVE",
"1119 1141 OFFCURVE",
"1104 1106 CURVE SMOOTH",
"993 874 LINE SMOOTH",
"952 787 OFFCURVE",
"914 702 OFFCURVE",
"887 629 CURVE",
"864 692 OFFCURVE",
"848 736 OFFCURVE",
"811 809 CURVE SMOOTH",
"659 1110 LINE SMOOTH",
"638 1151 OFFCURVE",
"631 1194 OFFCURVE",
"631 1225 CURVE SMOOTH",
"631 1296 OFFCURVE",
"688 1337 OFFCURVE",
"776 1337 CURVE SMOOTH",
"784 1337 LINE",
"784 1462 LINE",
"8 1462 LINE",
"8 1337 LINE",
"35 1337 LINE SMOOTH",
"122 1337 OFFCURVE",
"139 1310 OFFCURVE",
"180 1229 CURVE SMOOTH",
"559 471 LINE",
"559 262 LINE SMOOTH",
"559 147 OFFCURVE",
"503 125 OFFCURVE",
"416 125 CURVE SMOOTH",
"344 125 LINE",
"344 0 LINE",
"1188 0 LINE",
"1188 125 LINE"
);
}
);
width = 1521;
}
);
note = glyph60;
unicode = 0059;
},
{
glyphname = glyph61;
lastChange = "2021-04-16 11:25:07 +0000";
layers = (
{
layerId = "0DE963AB-769B-4021-B20D-45864FAF5663";
paths = (
{
closed = 1;
nodes = (
"897 276 LINE",
"893 190 LINE SMOOTH",
"886 78 OFFCURVE",
"875 51 OFFCURVE",
"768 51 CURVE SMOOTH",
"127 51 LINE",
"921 1403 LINE",
"921 1462 LINE",
"106 1462 LINE",
"96 1186 LINE",
"137 1186 LINE",
"141 1270 LINE SMOOTH",
"146 1382 OFFCURVE",
"159 1411 OFFCURVE",
"266 1411 CURVE SMOOTH",
"860 1411 LINE",
"57 45 LINE",
"57 0 LINE",
"927 0 LINE",
"938 276 LINE"
);
}
);
width = 1019;
},
{
layerId = "8C5547AF-2EE0-40C3-888E-C5581C9C595C";
paths = (
{
closed = 1;
nodes = (
"964 322 LINE",
"956 233 LINE SMOOTH",
"948 136 OFFCURVE",
"921 80 OFFCURVE",
"806 80 CURVE SMOOTH",
"233 80 LINE",
"1015 1389 LINE",
"1015 1462 LINE",
"114 1462 LINE",
"104 1141 LINE",
"182 1141 LINE",
"188 1227 LINE SMOOTH",
"199 1328 OFFCURVE",
"222 1382 OFFCURVE",
"337 1382 CURVE SMOOTH",
"849 1382 LINE",
"65 66 LINE",
"65 0 LINE",
"1030 0 LINE",
"1040 322 LINE"
);
}
);
width = 1124;
},
{
layerId = "7FEA46FF-516C-4946-9F17-9EEA76F5F564";
paths = (
{
closed = 1;
nodes = (
"113 1104 LINE",
"219 1104 LINE",
"229 1192 LINE SMOOTH",
"241 1290 OFFCURVE",
"283 1360 OFFCURVE",
"397 1360 CURVE SMOOTH",
"842 1360 LINE",
"74 82 LINE",
"74 0 LINE",
"1116 0 LINE",
"1126 358 LINE",
"1020 358 LINE",
"1010 270 LINE SMOOTH",
"998 171 OFFCURVE",
"956 102 OFFCURVE",
"840 102 CURVE SMOOTH",
"324 102 LINE",
"1094 1378 LINE",
"1094 1462 LINE",
"123 1462 LINE"
);
}
);
width = 1212;
},
{
layerId = "3CCD85FA-69E6-46C4-A32D-64775BF55ABF";
paths = (
{
closed = 1;
nodes = (
"125 1040 LINE",
"272 1040 LINE",
"283 1151 LINE SMOOTH",
"294 1270 OFFCURVE",
"325 1337 OFFCURVE",
"451 1337 CURVE SMOOTH",
"854 1337 LINE",
"86 102 LINE",
"86 0 LINE",
"1264 0 LINE",
"1274 422 LINE",
"1126 422 LINE",
"1116 330 LINE SMOOTH",
"1104 211 OFFCURVE",
"1056 125 OFFCURVE",
"901 125 CURVE SMOOTH",
"459 125 LINE",
"1229 1358 LINE",
"1229 1462 LINE",
"135 1462 LINE"
);
}
);
width = 1364;
},
{
layerId = "6A9350D6-C757-41BD-9D0D-806F72644A83";
paths = (
{
closed = 1;
nodes = (
"1204 469 LINE",
"1194 373 LINE SMOOTH",
"1186 298 OFFCURVE",
"1166 223 OFFCURVE",
"1098 176 CURVE SMOOTH",
"1063 153 OFFCURVE",
"1013 141 OFFCURVE",
"946 141 CURVE SMOOTH",
"557 141 LINE",
"1327 1343 LINE",
"1327 1462 LINE",
"143 1462 LINE",
"133 993 LINE",
"311 993 LINE",
"321 1120 LINE SMOOTH",
"333 1249 OFFCURVE",
"356 1321 OFFCURVE",
"489 1321 CURVE SMOOTH",
"862 1321 LINE",
"94 117 LINE",
"94 0 LINE",
"1372 0 LINE",
"1382 469 LINE"
);
}
);
width = 1476;
}
);
note = glyph61;
unicode = 005A;
},
{
glyphname = glyph68;
lastChange = "2021-04-16 11:25:07 +0000";
layers = (
{
layerId = "0DE963AB-769B-4021-B20D-45864FAF5663";
paths = (
{
closed = 1;
nodes = (
"536 -20 OFFCURVE",
"631 41 OFFCURVE",
"692 114 CURVE SMOOTH",
"722 150 OFFCURVE",
"745 183 OFFCURVE",
"761 213 CURVE",
"765 213 LINE",
"778 0 LINE",
"954 0 LINE",
"954 41 LINE",
"939 41 LINE SMOOTH",
"866 41 OFFCURVE",
"837 57 OFFCURVE",
"828 109 CURVE SMOOTH",
"823 134 OFFCURVE",
"821 173 OFFCURVE",
"821 225 CURVE SMOOTH",
"821 791 LINE SMOOTH",
"821 984 OFFCURVE",
"735 1110 OFFCURVE",
"495 1110 CURVE SMOOTH",
"336 1110 OFFCURVE",
"257 1058 OFFCURVE",
"225 994 CURVE SMOOTH",
"208 962 OFFCURVE",
"200 932 OFFCURVE",
"200 903 CURVE SMOOTH",
"200 840 OFFCURVE",
"214 809 OFFCURVE",
"243 809 CURVE",
"243 965 OFFCURVE",
"292 1059 OFFCURVE",
"495 1059 CURVE SMOOTH",
"648 1059 OFFCURVE",
"720 1003 OFFCURVE",
"745 915 CURVE SMOOTH",
"757 870 OFFCURVE",
"763 819 OFFCURVE",
"763 760 CURVE SMOOTH",
"763 627 LINE",
"593 621 LINE SMOOTH",
"262 606 OFFCURVE",
"114 515 OFFCURVE",
"114 299 CURVE SMOOTH",
"114 80 OFFCURVE",
"242 -20 OFFCURVE",
"403 -20 CURVE SMOOTH"
);
},
{
closed = 1;
nodes = (
"296 31 OFFCURVE",
"226 86 OFFCURVE",
"195 167 CURVE SMOOTH",
"179 207 OFFCURVE",
"171 250 OFFCURVE",
"171 297 CURVE SMOOTH",
"171 406 OFFCURVE",
"215 489 OFFCURVE",
"336 535 CURVE SMOOTH",
"397 558 OFFCURVE",
"480 570 OFFCURVE",
"587 573 CURVE SMOOTH",
"763 580 LINE",
"763 348 LINE SMOOTH",
"763 259 OFFCURVE",
"695 150 OFFCURVE",
"590 82 CURVE SMOOTH",
"537 48 OFFCURVE",
"478 31 OFFCURVE",
"411 31 CURVE SMOOTH"
);
}
);
width = 1058;
},
{
layerId = "8C5547AF-2EE0-40C3-888E-C5581C9C595C";
paths = (
{
closed = 1;
nodes = (
"534 -20 OFFCURVE",
"613 27 OFFCURVE",
"672 92 CURVE SMOOTH",
"701 125 OFFCURVE",
"727 158 OFFCURVE",
"749 193 CURVE",
"759 193 LINE",
"784 0 LINE",
"1013 0 LINE",
"1013 66 LINE",
"1005 66 LINE SMOOTH",
"904 66 OFFCURVE",
"880 98 OFFCURVE",
"880 229 CURVE SMOOTH",
"880 776 LINE SMOOTH",
"880 1005 OFFCURVE",
"773 1114 OFFCURVE",
"528 1114 CURVE SMOOTH",
"309 1114 OFFCURVE",
"194 1028 OFFCURVE",
"194 913 CURVE SMOOTH",
"194 832 OFFCURVE",
"232 801 OFFCURVE",
"309 801 CURVE",
"309 896 OFFCURVE",
"326 967 OFFCURVE",
"388 1007 CURVE SMOOTH",
"419 1026 OFFCURVE",
"464 1036 OFFCURVE",
"524 1036 CURVE SMOOTH",
"655 1036 OFFCURVE",
"713 988 OFFCURVE",
"734 905 CURVE SMOOTH",
"744 863 OFFCURVE",
"749 815 OFFCURVE",
"749 762 CURVE SMOOTH",
"749 635 LINE",
"579 629 LINE SMOOTH",
"259 614 OFFCURVE",
"108 522 OFFCURVE",
"108 303 CURVE SMOOTH",
"108 82 OFFCURVE",
"239 -20 OFFCURVE",
"411 -20 CURVE SMOOTH"
);
},
{
closed = 1;
nodes = (
"302 72 OFFCURVE",
"241 164 OFFCURVE",
"241 297 CURVE SMOOTH",
"241 458 OFFCURVE",
"328 550 OFFCURVE",
"597 561 CURVE SMOOTH",
"749 567 LINE",
"749 371 LINE SMOOTH",
"749 267 OFFCURVE",
"694 170 OFFCURVE",
"602 114 CURVE SMOOTH",
"555 86 OFFCURVE",
"502 72 OFFCURVE",
"442 72 CURVE SMOOTH"
);
}
);
width = 1110;
},
{
layerId = "7FEA46FF-516C-4946-9F17-9EEA76F5F564";
paths = (
{
closed = 1;
nodes = (
"712 1016 OFFCURVE",
"739 920 OFFCURVE",
"739 764 CURVE SMOOTH",
"739 641 LINE",
"569 635 LINE SMOOTH",
"256 626 OFFCURVE",
"102 524 OFFCURVE",
"102 307 CURVE SMOOTH",
"102 195 OFFCURVE",
"136 114 OFFCURVE",
"193 60 CURVE SMOOTH",
"249 6 OFFCURVE",
"329 -20 OFFCURVE",
"420 -20 CURVE SMOOTH",
"584 -20 OFFCURVE",
"649 56 OFFCURVE",
"739 176 CURVE",
"756 176 LINE",
"788 0 LINE",
"1065 0 LINE",
"1065 86 LINE",
"1059 86 LINE SMOOTH",
"964 86 OFFCURVE",
"932 123 OFFCURVE",
"932 233 CURVE SMOOTH",
"932 764 LINE SMOOTH",
"932 895 OFFCURVE",
"901 983 OFFCURVE",
"838 1039 CURVE SMOOTH",
"775 1095 OFFCURVE",
"682 1118 OFFCURVE",
"557 1118 CURVE SMOOTH",
"456 1118 OFFCURVE",
"364 1104 OFFCURVE",
"297 1073 CURVE SMOOTH",
"229 1041 OFFCURVE",
"188 993 OFFCURVE",
"188 922 CURVE SMOOTH",
"188 827 OFFCURVE",
"249 793 OFFCURVE",
"362 793 CURVE",
"362 931 OFFCURVE",
"398 1016 OFFCURVE",
"549 1016 CURVE SMOOTH"
);
},
{
closed = 1;
nodes = (
"301 377 OFFCURVE",
"320 439 OFFCURVE",
"368 481 CURVE SMOOTH",
"416 523 OFFCURVE",
"492 546 OFFCURVE",
"608 551 CURVE SMOOTH",
"739 557 LINE",
"739 391 LINE SMOOTH",
"739 218 OFFCURVE",
"635 106 OFFCURVE",
"467 106 CURVE SMOOTH",
"354 106 OFFCURVE",
"301 169 OFFCURVE",
"301 297 CURVE SMOOTH"
);
}
);
width = 1153;
},
{
layerId = "3CCD85FA-69E6-46C4-A32D-64775BF55ABF";
paths = (
{
closed = 1;
nodes = (
"705 999 OFFCURVE",
"719 902 OFFCURVE",
"719 766 CURVE SMOOTH",
"719 653 LINE",
"551 647 LINE SMOOTH",
"244 638 OFFCURVE",
"92 536 OFFCURVE",
"92 313 CURVE SMOOTH",
"92 200 OFFCURVE",
"128 117 OFFCURVE",
"186 62 CURVE SMOOTH",
"244 6 OFFCURVE",
"323 -20 OFFCURVE",
"414 -20 CURVE SMOOTH",
"567 -20 OFFCURVE",
"625 28 OFFCURVE",
"719 141 CURVE",
"737 141 LINE",
"780 0 LINE",
"1161 0 LINE",
"1161 109 LINE",
"1153 109 LINE SMOOTH",
"1059 109 OFFCURVE",
"1030 146 OFFCURVE",
"1030 254 CURVE SMOOTH",
"1030 776 LINE SMOOTH",
"1030 904 OFFCURVE",
"994 991 OFFCURVE",
"923 1046 CURVE SMOOTH",
"851 1101 OFFCURVE",
"744 1124 OFFCURVE",
"600 1124 CURVE SMOOTH",
"484 1124 OFFCURVE",
"379 1109 OFFCURVE",
"303 1076 CURVE SMOOTH",
"226 1043 OFFCURVE",
"178 990 OFFCURVE",
"178 915 CURVE SMOOTH",
"178 815 OFFCURVE",
"271 778 OFFCURVE",
"455 778 CURVE",
"455 903 OFFCURVE",
"485 999 OFFCURVE",
"592 999 CURVE SMOOTH"
);
},
{
closed = 1;
nodes = (
"410 456 OFFCURVE",
"468 531 OFFCURVE",
"627 539 CURVE SMOOTH",
"719 545 LINE",
"719 391 LINE SMOOTH",
"719 239 OFFCURVE",
"649 129 OFFCURVE",
"526 129 CURVE SMOOTH",
"446 129 OFFCURVE",
"410 188 OFFCURVE",
"410 305 CURVE SMOOTH"
);
}
);
width = 1227;
},
{
layerId = "6A9350D6-C757-41BD-9D0D-806F72644A83";
paths = (
{
closed = 1;
nodes = (
"502 -20 OFFCURVE",
"564 -8 OFFCURVE",
"616 32 CURVE SMOOTH",
"641 51 OFFCURVE",
"670 79 OFFCURVE",
"701 115 CURVE",
"722 115 LINE",
"773 0 LINE",
"1230 0 LINE",
"1230 125 LINE",
"1222 125 LINE SMOOTH",
"1129 125 OFFCURVE",
"1101 156 OFFCURVE",
"1101 268 CURVE SMOOTH",
"1101 784 LINE SMOOTH",
"1101 1039 OFFCURVE",
"943 1128 OFFCURVE",
"630 1128 CURVE SMOOTH",
"461 1128 OFFCURVE",
"315 1101 OFFCURVE",
"232 1037 CURVE SMOOTH",
"190 1005 OFFCURVE",
"169 963 OFFCURVE",
"169 911 CURVE SMOOTH",
"169 860 OFFCURVE",
"195 823 OFFCURVE",
"248 801 CURVE SMOOTH",
"301 779 OFFCURVE",
"381 768 OFFCURVE",
"489 768 CURVE",
"489 841 OFFCURVE",
"499 895 OFFCURVE",
"518 932 CURVE SMOOTH",
"537 969 OFFCURVE",
"562 987 OFFCURVE",
"595 987 CURVE SMOOTH",
"630 987 OFFCURVE",
"657 969 OFFCURVE",
"675 934 CURVE SMOOTH",
"692 899 OFFCURVE",
"701 843 OFFCURVE",
"701 768 CURVE SMOOTH",
"701 662 LINE",
"536 655 LINE SMOOTH",
"232 644 OFFCURVE",
"83 544 OFFCURVE",
"83 317 CURVE SMOOTH",
"83 165 OFFCURVE",
"146 65 OFFCURVE",
"245 17 CURVE SMOOTH",
"294 -8 OFFCURVE",
"348 -20 OFFCURVE",
"407 -20 CURVE SMOOTH"
);
},
{
closed = 1;
nodes = (
"515 145 OFFCURVE",
"489 200 OFFCURVE",
"489 311 CURVE SMOOTH",
"489 451 OFFCURVE",
"525 522 OFFCURVE",
"640 530 CURVE SMOOTH",
"704 537 LINE",
"704 391 LINE SMOOTH",
"704 242 OFFCURVE",
"651 145 OFFCURVE",
"568 145 CURVE SMOOTH"
);
}
);
width = 1282;
}
);
note = glyph68;
unicode = 0061;
},
{
glyphname = glyph69;
lastChange = "2021-04-16 11:25:07 +0000";
layers = (
{
layerId = "0DE963AB-769B-4021-B20D-45864FAF5663";
paths = (
{
closed = 1;
nodes = (
"877 -20 OFFCURVE",
"1035 170 OFFCURVE",
"1035 547 CURVE SMOOTH",
"1035 943 OFFCURVE",
"917 1114 OFFCURVE",
"654 1114 CURVE SMOOTH",
"466 1114 OFFCURVE",
"349 1017 OFFCURVE",
"294 848 CURVE",
"288 848 LINE",
"296 941 OFFCURVE",
"298 1071 OFFCURVE",
"298 1147 CURVE SMOOTH",
"298 1556 LINE",
"40 1556 LINE",
"40 1516 LINE",
"103 1516 LINE SMOOTH",
"186 1516 OFFCURVE",
"221 1510 OFFCURVE",
"233 1466 CURVE SMOOTH",
"238 1443 OFFCURVE",
"241 1407 OFFCURVE",
"241 1356 CURVE SMOOTH",
"241 193 LINE SMOOTH",
"241 110 OFFCURVE",
"238 60 OFFCURVE",
"192 49 CURVE SMOOTH",
"170 44 OFFCURVE",
"134 41 OFFCURVE",
"83 41 CURVE SMOOTH",
"40 41 LINE",
"40 0 LINE",
"290 0 LINE",
"296 203 LINE",
"302 203 LINE",
"359 58 OFFCURVE",
"484 -20 OFFCURVE",
"640 -20 CURVE SMOOTH"
);
},
{
closed = 1;
nodes = (
"471 31 OFFCURVE",
"373 117 OFFCURVE",
"329 273 CURVE SMOOTH",
"307 350 OFFCURVE",
"296 443 OFFCURVE",
"296 551 CURVE SMOOTH",
"296 867 OFFCURVE",
"406 1063 OFFCURVE",
"646 1063 CURVE SMOOTH",
"886 1063 OFFCURVE",
"978 908 OFFCURVE",
"978 553 CURVE SMOOTH",
"978 220 OFFCURVE",
"859 31 OFFCURVE",
"648 31 CURVE SMOOTH"
);
}
);
width = 1167;
},
{
layerId = "8C5547AF-2EE0-40C3-888E-C5581C9C595C";
paths = (
{
closed = 1;
nodes = (
"944 -20 OFFCURVE",
"1095 161 OFFCURVE",
"1095 549 CURVE SMOOTH",
"1095 945 OFFCURVE",
"958 1116 OFFCURVE",
"693 1116 CURVE SMOOTH",
"521 1116 OFFCURVE",
"417 1027 OFFCURVE",
"360 883 CURVE",
"351 883 LINE",
"356 930 OFFCURVE",
"360 1002 OFFCURVE",
"361 1073 CURVE SMOOTH",
"362 1108 OFFCURVE",
"362 1139 OFFCURVE",
"362 1165 CURVE SMOOTH",
"362 1556 LINE",
"38 1556 LINE",
"38 1491 LINE",
"75 1491 LINE SMOOTH",
"182 1491 OFFCURVE",
"231 1476 OFFCURVE",
"231 1341 CURVE SMOOTH",
"231 215 LINE SMOOTH",
"231 82 OFFCURVE",
"184 66 OFFCURVE",
"67 66 CURVE SMOOTH",
"38 66 LINE",
"38 0 LINE",
"331 0 LINE",
"353 180 LINE",
"362 180 LINE",
"422 55 OFFCURVE",
"528 -20 OFFCURVE",
"687 -20 CURVE SMOOTH"
);
},
{
closed = 1;
nodes = (
"436 74 OFFCURVE",
"360 248 OFFCURVE",
"360 551 CURVE SMOOTH",
"360 856 OFFCURVE",
"447 1022 OFFCURVE",
"671 1022 CURVE SMOOTH",
"878 1022 OFFCURVE",
"960 873 OFFCURVE",
"960 553 CURVE SMOOTH",
"960 248 OFFCURVE",
"866 74 OFFCURVE",
"673 74 CURVE SMOOTH"
);
}
);
width = 1216;
},
{
layerId = "7FEA46FF-516C-4946-9F17-9EEA76F5F564";
paths = (
{
closed = 1;
nodes = (
"1145 747 OFFCURVE",
"1108 889 OFFCURVE",
"1037 982 CURVE SMOOTH",
"966 1074 OFFCURVE",
"862 1118 OFFCURVE",
"727 1118 CURVE SMOOTH",
"570 1118 OFFCURVE",
"477 1042 OFFCURVE",
"414 913 CURVE",
"406 913 LINE",
"407 947 OFFCURVE",
"409 980 OFFCURVE",
"410 1012 CURVE SMOOTH",
"413 1068 OFFCURVE",
"414 1133 OFFCURVE",
"414 1180 CURVE SMOOTH",
"414 1556 LINE",
"37 1556 LINE",
"37 1470 LINE",
"53 1470 LINE SMOOTH",
"152 1470 OFFCURVE",
"221 1446 OFFCURVE",
"221 1331 CURVE SMOOTH",
"221 233 LINE SMOOTH",
"221 112 OFFCURVE",
"155 86 OFFCURVE",
"53 86 CURVE SMOOTH",
"37 86 LINE",
"37 0 LINE",
"365 0 LINE",
"401 160 LINE",
"414 160 LINE",
"476 48 OFFCURVE",
"577 -20 OFFCURVE",
"727 -20 CURVE SMOOTH",
"862 -20 OFFCURVE",
"966 24 OFFCURVE",
"1037 117 CURVE SMOOTH",
"1108 210 OFFCURVE",
"1145 354 OFFCURVE",
"1145 551 CURVE SMOOTH"
);
},
{
closed = 1;
nodes = (
"783 987 OFFCURVE",
"847 951 OFFCURVE",
"888 879 CURVE SMOOTH",
"928 807 OFFCURVE",
"946 698 OFFCURVE",
"946 553 CURVE SMOOTH",
"946 409 OFFCURVE",
"928 299 OFFCURVE",
"888 224 CURVE SMOOTH",
"847 149 OFFCURVE",
"785 111 OFFCURVE",
"694 111 CURVE SMOOTH",
"586 111 OFFCURVE",
"517 149 OFFCURVE",
"474 224 CURVE SMOOTH",
"430 299 OFFCURVE",
"414 408 OFFCURVE",
"414 551 CURVE SMOOTH",
"414 699 OFFCURVE",
"430 808 OFFCURVE",
"473 880 CURVE SMOOTH",
"516 952 OFFCURVE",
"585 987 OFFCURVE",
"692 987 CURVE SMOOTH"
);
}
);
width = 1257;
},
{
layerId = "3CCD85FA-69E6-46C4-A32D-64775BF55ABF";
paths = (
{
closed = 1;
nodes = (
"1233 750 OFFCURVE",
"1197 893 OFFCURVE",
"1127 986 CURVE SMOOTH",
"1057 1078 OFFCURVE",
"954 1122 OFFCURVE",
"821 1122 CURVE SMOOTH",
"666 1122 OFFCURVE",
"573 1059 OFFCURVE",
"514 958 CURVE",
"500 958 LINE",
"503 989 OFFCURVE",
"505 1020 OFFCURVE",
"508 1050 CURVE SMOOTH",
"512 1101 OFFCURVE",
"516 1163 OFFCURVE",
"516 1206 CURVE SMOOTH",
"516 1556 LINE",
"35 1556 LINE",
"35 1448 LINE",
"43 1448 LINE SMOOTH",
"138 1448 OFFCURVE",
"205 1422 OFFCURVE",
"205 1311 CURVE SMOOTH",
"205 252 LINE SMOOTH",
"205 137 OFFCURVE",
"138 109 OFFCURVE",
"49 109 CURVE SMOOTH",
"35 109 LINE",
"35 0 LINE",
"424 0 LINE",
"481 160 LINE",
"500 160 LINE",
"562 48 OFFCURVE",
"663 -20 OFFCURVE",
"813 -20 CURVE SMOOTH",
"949 -20 OFFCURVE",
"1054 24 OFFCURVE",
"1125 118 CURVE SMOOTH",
"1196 212 OFFCURVE",
"1233 354 OFFCURVE",
"1233 553 CURVE SMOOTH"
);
},
{
closed = 1;
nodes = (
"794 971 OFFCURVE",
"843 937 OFFCURVE",
"873 868 CURVE SMOOTH",
"903 799 OFFCURVE",
"918 694 OFFCURVE",
"918 555 CURVE SMOOTH",
"918 419 OFFCURVE",
"903 315 OFFCURVE",
"873 242 CURVE SMOOTH",
"843 169 OFFCURVE",
"794 133 OFFCURVE",
"727 133 CURVE SMOOTH",
"646 133 OFFCURVE",
"592 170 OFFCURVE",
"560 242 CURVE SMOOTH",
"528 313 OFFCURVE",
"516 418 OFFCURVE",
"516 553 CURVE SMOOTH",
"516 694 OFFCURVE",
"528 799 OFFCURVE",
"560 868 CURVE SMOOTH",
"592 937 OFFCURVE",
"644 971 OFFCURVE",
"725 971 CURVE SMOOTH"
);
}
);
width = 1329;
},
{
layerId = "6A9350D6-C757-41BD-9D0D-806F72644A83";
paths = (
{
closed = 1;
nodes = (
"1149 -20 OFFCURVE",
"1296 156 OFFCURVE",
"1296 555 CURVE SMOOTH",
"1296 951 OFFCURVE",
"1153 1124 OFFCURVE",
"890 1124 CURVE SMOOTH",
"737 1124 OFFCURVE",
"642 1066 OFFCURVE",
"587 991 CURVE",
"573 991 LINE",
"584 1056 OFFCURVE",
"591 1150 OFFCURVE",
"591 1227 CURVE SMOOTH",
"591 1556 LINE",
"32 1556 LINE",
"32 1432 LINE",
"40 1432 LINE SMOOTH",
"128 1432 OFFCURVE",
"192 1408 OFFCURVE",
"192 1296 CURVE SMOOTH",
"192 266 LINE SMOOTH",
"192 185 OFFCURVE",
"159 146 OFFCURVE",
"112 134 CURVE SMOOTH",
"89 128 OFFCURVE",
"66 125 OFFCURVE",
"44 125 CURVE SMOOTH",
"32 125 LINE",
"32 0 LINE",
"466 0 LINE",
"542 160 LINE",
"558 160 LINE",
"618 53 OFFCURVE",
"717 -20 OFFCURVE",
"876 -20 CURVE SMOOTH"
);
},
{
closed = 1;
nodes = (
"687 150 OFFCURVE",
"644 185 OFFCURVE",
"623 255 CURVE SMOOTH",
"602 325 OFFCURVE",
"591 425 OFFCURVE",
"591 555 CURVE SMOOTH",
"591 692 OFFCURVE",
"602 793 OFFCURVE",
"623 859 CURVE SMOOTH",
"644 925 OFFCURVE",
"686 958 OFFCURVE",
"749 958 CURVE SMOOTH",
"801 958 OFFCURVE",
"839 925 OFFCURVE",
"862 858 CURVE SMOOTH",
"885 791 OFFCURVE",
"896 691 OFFCURVE",
"896 557 CURVE SMOOTH",
"896 426 OFFCURVE",
"885 325 OFFCURVE",
"862 255 CURVE SMOOTH",
"839 185 OFFCURVE",
"802 150 OFFCURVE",
"751 150 CURVE SMOOTH"
);
}
);
width = 1382;
}
);
note = glyph69;
unicode = 0062;
},
{
glyphname = glyph70;
lastChange = "2021-04-16 11:25:07 +0000";
layers = (
{
layerId = "0DE963AB-769B-4021-B20D-45864FAF5663";
paths = (
{
closed = 1;
nodes = (
"665 -20 OFFCURVE",
"760 33 OFFCURVE",
"808 96 CURVE SMOOTH",
"832 127 OFFCURVE",
"844 154 OFFCURVE",
"844 176 CURVE SMOOTH",
"844 199 OFFCURVE",
"838 218 OFFCURVE",
"827 233 CURVE",
"784 125 OFFCURVE",
"702 34 OFFCURVE",
"530 31 CURVE SMOOTH",
"524 31 LINE SMOOTH",
"465 31 OFFCURVE",
"410 50 OFFCURVE",
"361 88 CURVE SMOOTH",
"257 167 OFFCURVE",
"188 322 OFFCURVE",
"188 541 CURVE SMOOTH",
"188 797 OFFCURVE",
"248 945 OFFCURVE",
"351 1010 CURVE SMOOTH",
"402 1043 OFFCURVE",
"461 1059 OFFCURVE",
"528 1059 CURVE SMOOTH",
"643 1059 OFFCURVE",
"720 1010 OFFCURVE",
"758 941 CURVE SMOOTH",
"777 906 OFFCURVE",
"786 870 OFFCURVE",
"786 831 CURVE",
"821 834 OFFCURVE",
"838 853 OFFCURVE",
"838 887 CURVE SMOOTH",
"838 1004 OFFCURVE",
"725 1110 OFFCURVE",
"537 1110 CURVE SMOOTH",
"381 1110 OFFCURVE",
"252 1048 OFFCURVE",
"183 881 CURVE SMOOTH",
"148 798 OFFCURVE",
"131 684 OFFCURVE",
"131 539 CURVE SMOOTH",
"131 284 OFFCURVE",
"207 120 OFFCURVE",
"329 40 CURVE SMOOTH",
"390 0 OFFCURVE",
"457 -20 OFFCURVE",
"530 -20 CURVE SMOOTH"
);
}
);
width = 917;
},
{
layerId = "8C5547AF-2EE0-40C3-888E-C5581C9C595C";
paths = (
{
closed = 1;
nodes = (
"704 -20 OFFCURVE",
"802 28 OFFCURVE",
"851 89 CURVE SMOOTH",
"876 120 OFFCURVE",
"888 149 OFFCURVE",
"888 176 CURVE SMOOTH",
"888 206 OFFCURVE",
"879 229 OFFCURVE",
"861 246 CURVE",
"816 150 OFFCURVE",
"726 76 OFFCURVE",
"579 76 CURVE SMOOTH",
"574 76 LINE SMOOTH",
"475 76 OFFCURVE",
"398 115 OFFCURVE",
"341 193 CURVE SMOOTH",
"284 272 OFFCURVE",
"255 388 OFFCURVE",
"255 543 CURVE SMOOTH",
"255 791 OFFCURVE",
"307 931 OFFCURVE",
"396 991 CURVE SMOOTH",
"440 1021 OFFCURVE",
"491 1036 OFFCURVE",
"550 1036 CURVE SMOOTH",
"703 1036 OFFCURVE",
"763 926 OFFCURVE",
"763 803 CURVE",
"844 806 OFFCURVE",
"884 838 OFFCURVE",
"884 899 CURVE SMOOTH",
"884 987 OFFCURVE",
"819 1052 OFFCURVE",
"718 1088 CURVE SMOOTH",
"667 1105 OFFCURVE",
"613 1114 OFFCURVE",
"554 1114 CURVE SMOOTH",
"387 1114 OFFCURVE",
"254 1052 OFFCURVE",
"178 884 CURVE SMOOTH",
"139 800 OFFCURVE",
"120 686 OFFCURVE",
"120 541 CURVE SMOOTH",
"120 278 OFFCURVE",
"202 115 OFFCURVE",
"333 38 CURVE SMOOTH",
"398 -1 OFFCURVE",
"473 -20 OFFCURVE",
"556 -20 CURVE SMOOTH"
);
}
);
width = 966;
},
{
layerId = "7FEA46FF-516C-4946-9F17-9EEA76F5F564";
paths = (
{
closed = 1;
nodes = (
"696 -20 OFFCURVE",
"783 6 OFFCURVE",
"841 43 CURVE SMOOTH",
"899 80 OFFCURVE",
"928 129 OFFCURVE",
"928 176 CURVE SMOOTH",
"928 213 OFFCURVE",
"913 240 OFFCURVE",
"893 256 CURVE",
"846 172 OFFCURVE",
"748 113 OFFCURVE",
"621 113 CURVE SMOOTH",
"401 113 OFFCURVE",
"311 254 OFFCURVE",
"311 545 CURVE SMOOTH",
"311 728 OFFCURVE",
"336 846 OFFCURVE",
"381 918 CURVE SMOOTH",
"426 990 OFFCURVE",
"490 1016 OFFCURVE",
"569 1016 CURVE SMOOTH",
"703 1016 OFFCURVE",
"743 914 OFFCURVE",
"743 780 CURVE",
"864 780 OFFCURVE",
"926 814 OFFCURVE",
"926 909 CURVE SMOOTH",
"926 980 OFFCURVE",
"879 1032 OFFCURVE",
"811 1067 CURVE SMOOTH",
"743 1102 OFFCURVE",
"654 1118 OFFCURVE",
"569 1118 CURVE SMOOTH",
"440 1118 OFFCURVE",
"326 1084 OFFCURVE",
"244 995 CURVE SMOOTH",
"162 906 OFFCURVE",
"113 762 OFFCURVE",
"113 543 CURVE SMOOTH",
"113 342 OFFCURVE",
"161 202 OFFCURVE",
"244 111 CURVE SMOOTH",
"327 20 OFFCURVE",
"444 -20 OFFCURVE",
"580 -20 CURVE SMOOTH"
);
}
);
width = 1008;
},
{
layerId = "3CCD85FA-69E6-46C4-A32D-64775BF55ABF";
paths = (
{
closed = 1;
nodes = (
"743 -20 OFFCURVE",
"842 10 OFFCURVE",
"907 54 CURVE SMOOTH",
"971 97 OFFCURVE",
"1001 153 OFFCURVE",
"1001 205 CURVE SMOOTH",
"1001 242 OFFCURVE",
"985 279 OFFCURVE",
"952 299 CURVE",
"901 199 OFFCURVE",
"791 133 OFFCURVE",
"655 133 CURVE SMOOTH",
"483 133 OFFCURVE",
"412 270 OFFCURVE",
"412 547 CURVE SMOOTH",
"412 722 OFFCURVE",
"431 835 OFFCURVE",
"465 904 CURVE SMOOTH",
"499 973 OFFCURVE",
"546 999 OFFCURVE",
"606 999 CURVE SMOOTH",
"711 999 OFFCURVE",
"739 871 OFFCURVE",
"739 735 CURVE",
"846 735 OFFCURVE",
"912 757 OFFCURVE",
"952 789 CURVE SMOOTH",
"991 821 OFFCURVE",
"1004 865 OFFCURVE",
"1004 909 CURVE SMOOTH",
"1004 969 OFFCURVE",
"968 1023 OFFCURVE",
"900 1062 CURVE SMOOTH",
"832 1101 OFFCURVE",
"730 1124 OFFCURVE",
"598 1124 CURVE SMOOTH",
"457 1124 OFFCURVE",
"331 1089 OFFCURVE",
"241 1000 CURVE SMOOTH",
"151 911 OFFCURVE",
"96 766 OFFCURVE",
"96 545 CURVE SMOOTH",
"96 336 OFFCURVE",
"148 194 OFFCURVE",
"237 105 CURVE SMOOTH",
"326 16 OFFCURVE",
"453 -20 OFFCURVE",
"604 -20 CURVE SMOOTH"
);
}
);
width = 1079;
},
{
layerId = "6A9350D6-C757-41BD-9D0D-806F72644A83";
paths = (
{
closed = 1;
nodes = (
"829 -20 OFFCURVE",
"951 38 OFFCURVE",
"1010 115 CURVE SMOOTH",
"1039 153 OFFCURVE",
"1054 190 OFFCURVE",
"1054 225 CURVE SMOOTH",
"1054 264 OFFCURVE",
"1038 307 OFFCURVE",
"994 330 CURVE",
"949 229 OFFCURVE",
"832 147 OFFCURVE",
"679 147 CURVE SMOOTH",
"543 147 OFFCURVE",
"484 281 OFFCURVE",
"484 549 CURVE SMOOTH",
"484 661 OFFCURVE",
"490 749 OFFCURVE",
"503 813 CURVE SMOOTH",
"527 941 OFFCURVE",
"572 987 OFFCURVE",
"632 987 CURVE SMOOTH",
"684 987 OFFCURVE",
"713 929 OFFCURVE",
"725 843 CURVE SMOOTH",
"731 800 OFFCURVE",
"734 753 OFFCURVE",
"734 702 CURVE",
"923 702 OFFCURVE",
"1008 754 OFFCURVE",
"1038 819 CURVE SMOOTH",
"1053 852 OFFCURVE",
"1060 882 OFFCURVE",
"1060 909 CURVE SMOOTH",
"1060 981 OFFCURVE",
"1010 1052 OFFCURVE",
"882 1096 CURVE SMOOTH",
"817 1117 OFFCURVE",
"729 1128 OFFCURVE",
"618 1128 CURVE SMOOTH",
"418 1128 OFFCURVE",
"250 1064 OFFCURVE",
"155 896 CURVE SMOOTH",
"107 812 OFFCURVE",
"83 696 OFFCURVE",
"83 547 CURVE SMOOTH",
"83 258 OFFCURVE",
"178 99 OFFCURVE",
"339 31 CURVE SMOOTH",
"420 -3 OFFCURVE",
"514 -20 OFFCURVE",
"622 -20 CURVE SMOOTH"
);
}
);
width = 1132;
}
);
note = glyph70;
unicode = 0063;
},
{
glyphname = glyph71;
lastChange = "2021-04-16 11:25:07 +0000";
layers = (
{
layerId = "0DE963AB-769B-4021-B20D-45864FAF5663";
paths = (
{
closed = 1;
nodes = (
"724 -20 OFFCURVE",
"820 83 OFFCURVE",
"880 227 CURVE",
"885 227 LINE",
"893 0 LINE",
"1132 0 LINE",
"1132 41 LINE",
"1100 41 LINE SMOOTH",
"1013 41 OFFCURVE",
"962 43 OFFCURVE",
"950 89 CURVE SMOOTH",
"945 110 OFFCURVE",
"942 145 OFFCURVE",
"942 193 CURVE SMOOTH",
"942 1556 LINE",
"696 1556 LINE",
"696 1516 LINE",
"747 1516 LINE SMOOTH",
"830 1516 OFFCURVE",
"865 1510 OFFCURVE",
"877 1466 CURVE SMOOTH",
"882 1443 OFFCURVE",
"885 1407 OFFCURVE",
"885 1356 CURVE SMOOTH",
"885 1112 LINE SMOOTH",
"885 1055 OFFCURVE",
"886 980 OFFCURVE",
"889 903 CURVE",
"880 903 LINE",
"827 1034 OFFCURVE",
"707 1112 OFFCURVE",
"524 1112 CURVE SMOOTH",
"256 1112 OFFCURVE",
"135 907 OFFCURVE",
"135 547 CURVE SMOOTH",
"135 180 OFFCURVE",
"289 -20 OFFCURVE",
"541 -20 CURVE SMOOTH"
);
},
{
closed = 1;
nodes = (
"427 29 OFFCURVE",
"349 72 OFFCURVE",
"288 159 CURVE SMOOTH",
"224 248 OFFCURVE",
"192 376 OFFCURVE",
"192 541 CURVE SMOOTH",
"192 874 OFFCURVE",
"287 1061 OFFCURVE",
"530 1061 CURVE SMOOTH",
"803 1061 OFFCURVE",
"887 884 OFFCURVE",
"887 543 CURVE SMOOTH",
"887 228 OFFCURVE",
"768 34 OFFCURVE",
"528 29 CURVE SMOOTH",
"520 29 LINE SMOOTH"
);
}
);
width = 1167;
},
{
layerId = "8C5547AF-2EE0-40C3-888E-C5581C9C595C";
paths = (
{
closed = 1;
nodes = (
"703 -20 OFFCURVE",
"799 68 OFFCURVE",
"859 205 CURVE",
"865 205 LINE",
"882 0 LINE",
"1179 0 LINE",
"1179 66 LINE",
"1156 66 LINE SMOOTH",
"1039 66 OFFCURVE",
"992 80 OFFCURVE",
"992 211 CURVE SMOOTH",
"992 1556 LINE",
"675 1556 LINE",
"675 1491 LINE",
"708 1491 LINE SMOOTH",
"812 1491 OFFCURVE",
"861 1476 OFFCURVE",
"861 1341 CURVE SMOOTH",
"861 1141 LINE SMOOTH",
"861 1078 OFFCURVE",
"866 993 OFFCURVE",
"870 922 CURVE",
"859 922 LINE",
"802 1042 OFFCURVE",
"696 1116 OFFCURVE",
"528 1116 CURVE SMOOTH",
"257 1116 OFFCURVE",
"122 926 OFFCURVE",
"122 547 CURVE SMOOTH",
"122 167 OFFCURVE",
"271 -20 OFFCURVE",
"534 -20 CURVE SMOOTH"
);
},
{
closed = 1;
nodes = (
"452 74 OFFCURVE",
"381 113 OFFCURVE",
"332 192 CURVE SMOOTH",
"282 271 OFFCURVE",
"257 388 OFFCURVE",
"257 543 CURVE SMOOTH",
"257 851 OFFCURVE",
"340 1020 OFFCURVE",
"548 1020 CURVE SMOOTH",
"788 1020 OFFCURVE",
"863 856 OFFCURVE",
"863 545 CURVE SMOOTH",
"863 241 OFFCURVE",
"772 77 OFFCURVE",
"548 74 CURVE SMOOTH",
"543 74 LINE SMOOTH"
);
}
);
width = 1216;
},
{
layerId = "7FEA46FF-516C-4946-9F17-9EEA76F5F564";
paths = (
{
closed = 1;
nodes = (
"659 1470 LINE",
"676 1470 LINE SMOOTH",
"775 1470 OFFCURVE",
"844 1446 OFFCURVE",
"844 1331 CURVE SMOOTH",
"844 1163 LINE SMOOTH",
"844 1151 OFFCURVE",
"845 1133 OFFCURVE",
"846 1108 CURVE SMOOTH",
"847 1083 OFFCURVE",
"849 1057 OFFCURVE",
"850 1032 CURVE SMOOTH",
"856 938 LINE",
"844 938 LINE",
"782 1050 OFFCURVE",
"679 1118 OFFCURVE",
"530 1118 CURVE SMOOTH",
"395 1118 OFFCURVE",
"291 1074 OFFCURVE",
"220 981 CURVE SMOOTH",
"149 888 OFFCURVE",
"113 744 OFFCURVE",
"113 547 CURVE SMOOTH",
"113 351 OFFCURVE",
"149 209 OFFCURVE",
"220 117 CURVE SMOOTH",
"291 24 OFFCURVE",
"395 -20 OFFCURVE",
"530 -20 CURVE SMOOTH",
"685 -20 OFFCURVE",
"781 56 OFFCURVE",
"844 184 CURVE",
"852 184 LINE",
"874 0 LINE",
"1221 0 LINE",
"1221 86 LINE",
"1204 86 LINE SMOOTH",
"1105 86 OFFCURVE",
"1036 110 OFFCURVE",
"1036 225 CURVE SMOOTH",
"1036 1556 LINE",
"659 1556 LINE"
);
},
{
closed = 1;
nodes = (
"384 111 OFFCURVE",
"311 254 OFFCURVE",
"311 545 CURVE SMOOTH",
"311 688 OFFCURVE",
"329 798 OFFCURVE",
"370 873 CURVE SMOOTH",
"410 948 OFFCURVE",
"474 987 OFFCURVE",
"563 987 CURVE SMOOTH",
"671 987 OFFCURVE",
"741 948 OFFCURVE",
"785 874 CURVE SMOOTH",
"828 800 OFFCURVE",
"844 690 OFFCURVE",
"844 547 CURVE SMOOTH",
"844 399 OFFCURVE",
"828 290 OFFCURVE",
"785 218 CURVE SMOOTH",
"741 146 OFFCURVE",
"672 111 OFFCURVE",
"565 111 CURVE SMOOTH"
);
}
);
width = 1257;
},
{
layerId = "3CCD85FA-69E6-46C4-A32D-64775BF55ABF";
paths = (
{
closed = 1;
nodes = (
"629 1448 LINE",
"645 1448 LINE SMOOTH",
"743 1448 OFFCURVE",
"811 1429 OFFCURVE",
"811 1321 CURVE SMOOTH",
"811 1208 LINE SMOOTH",
"811 1184 OFFCURVE",
"817 1112 OFFCURVE",
"819 1065 CURVE SMOOTH",
"822 1032 OFFCURVE",
"824 996 OFFCURVE",
"827 958 CURVE",
"813 958 LINE",
"754 1059 OFFCURVE",
"651 1122 OFFCURVE",
"508 1122 CURVE SMOOTH",
"376 1122 OFFCURVE",
"273 1077 OFFCURVE",
"202 983 CURVE SMOOTH",
"131 889 OFFCURVE",
"94 744 OFFCURVE",
"94 547 CURVE SMOOTH",
"94 351 OFFCURVE",
"131 209 OFFCURVE",
"203 117 CURVE SMOOTH",
"274 24 OFFCURVE",
"379 -20 OFFCURVE",
"512 -20 CURVE SMOOTH",
"665 -20 OFFCURVE",
"764 44 OFFCURVE",
"827 160 CURVE",
"846 160 LINE",
"903 0 LINE",
"1300 0 LINE",
"1300 109 LINE",
"1292 109 LINE SMOOTH",
"1192 109 OFFCURVE",
"1122 135 OFFCURVE",
"1122 252 CURVE SMOOTH",
"1122 1556 LINE",
"629 1556 LINE"
);
},
{
closed = 1;
nodes = (
"531 133 OFFCURVE",
"483 168 OFFCURVE",
"454 237 CURVE SMOOTH",
"425 306 OFFCURVE",
"410 410 OFFCURVE",
"410 549 CURVE SMOOTH",
"410 685 OFFCURVE",
"424 790 OFFCURVE",
"454 862 CURVE SMOOTH",
"484 934 OFFCURVE",
"532 971 OFFCURVE",
"600 971 CURVE SMOOTH",
"681 971 OFFCURVE",
"734 934 OFFCURVE",
"767 863 CURVE SMOOTH",
"799 791 OFFCURVE",
"811 686 OFFCURVE",
"811 551 CURVE SMOOTH",
"811 410 OFFCURVE",
"799 305 OFFCURVE",
"767 236 CURVE SMOOTH",
"734 167 OFFCURVE",
"681 133 OFFCURVE",
"600 133 CURVE SMOOTH"
);
}
);
width = 1329;
},
{
layerId = "6A9350D6-C757-41BD-9D0D-806F72644A83";
paths = (
{
closed = 1;
nodes = (
"658 -20 OFFCURVE",
"754 41 OFFCURVE",
"814 141 CURVE",
"827 141 LINE",
"898 0 LINE",
"1349 0 LINE",
"1349 125 LINE",
"1332 125 LINE SMOOTH",
"1232 125 OFFCURVE",
"1185 165 OFFCURVE",
"1185 293 CURVE SMOOTH",
"1185 1556 LINE",
"605 1556 LINE",
"605 1432 LINE",
"622 1432 LINE SMOOTH",
"711 1432 OFFCURVE",
"786 1420 OFFCURVE",
"786 1313 CURVE SMOOTH",
"786 1097 LINE SMOOTH",
"786 1054 OFFCURVE",
"787 1017 OFFCURVE",
"790 987 CURVE",
"779 987 LINE",
"722 1063 OFFCURVE",
"640 1124 OFFCURVE",
"491 1124 CURVE SMOOTH",
"231 1124 OFFCURVE",
"79 943 OFFCURVE",
"79 547 CURVE SMOOTH",
"79 154 OFFCURVE",
"232 -20 OFFCURVE",
"497 -20 CURVE SMOOTH"
);
},
{
closed = 1;
nodes = (
"572 150 OFFCURVE",
"535 183 OFFCURVE",
"513 250 CURVE SMOOTH",
"491 317 OFFCURVE",
"480 417 OFFCURVE",
"480 551 CURVE SMOOTH",
"480 682 OFFCURVE",
"491 783 OFFCURVE",
"513 853 CURVE SMOOTH",
"535 923 OFFCURVE",
"573 958 OFFCURVE",
"626 958 CURVE SMOOTH",
"687 958 OFFCURVE",
"729 923 OFFCURVE",
"752 853 CURVE SMOOTH",
"775 783 OFFCURVE",
"786 683 OFFCURVE",
"786 553 CURVE SMOOTH",
"786 416 OFFCURVE",
"775 315 OFFCURVE",
"752 249 CURVE SMOOTH",
"729 183 OFFCURVE",
"687 150 OFFCURVE",
"624 150 CURVE SMOOTH"
);
}
);
width = 1382;
}
);
note = glyph71;
unicode = 0064;
},
{
glyphname = glyph72;
lastChange = "2021-04-16 11:25:07 +0000";
layers = (
{
layerId = "0DE963AB-769B-4021-B20D-45864FAF5663";
paths = (
{
closed = 1;
nodes = (
"681 -20 OFFCURVE",
"776 32 OFFCURVE",
"824 93 CURVE SMOOTH",
"848 124 OFFCURVE",
"860 151 OFFCURVE",
"860 174 CURVE SMOOTH",
"860 191 OFFCURVE",
"854 203 OFFCURVE",
"842 211 CURVE",
"795 110 OFFCURVE",
"702 31 OFFCURVE",
"547 31 CURVE SMOOTH",
"440 31 OFFCURVE",
"354 76 OFFCURVE",
"288 165 CURVE SMOOTH",
"223 252 OFFCURVE",
"190 382 OFFCURVE",
"190 555 CURVE SMOOTH",
"190 565 LINE",
"891 565 LINE",
"891 594 LINE SMOOTH",
"891 917 OFFCURVE",
"753 1110 OFFCURVE",
"526 1110 CURVE SMOOTH",
"273 1110 OFFCURVE",
"131 924 OFFCURVE",
"131 537 CURVE SMOOTH",
"131 178 OFFCURVE",
"290 -20 OFFCURVE",
"545 -20 CURVE SMOOTH"
);
},
{
closed = 1;
nodes = (
"209 885 OFFCURVE",
"295 1059 OFFCURVE",
"524 1059 CURVE SMOOTH",
"727 1059 OFFCURVE",
"830 879 OFFCURVE",
"833 614 CURVE",
"194 614 LINE"
);
}
);
width = 1001;
},
{
layerId = "8C5547AF-2EE0-40C3-888E-C5581C9C595C";
paths = (
{
closed = 1;
nodes = (
"717 -20 OFFCURVE",
"819 32 OFFCURVE",
"869 93 CURVE SMOOTH",
"894 124 OFFCURVE",
"906 152 OFFCURVE",
"906 178 CURVE SMOOTH",
"906 205 OFFCURVE",
"897 224 OFFCURVE",
"878 233 CURVE",
"829 146 OFFCURVE",
"732 74 OFFCURVE",
"585 74 CURVE SMOOTH",
"380 74 OFFCURVE",
"258 226 OFFCURVE",
"255 549 CURVE",
"945 549 LINE",
"945 612 LINE SMOOTH",
"945 937 OFFCURVE",
"793 1114 OFFCURVE",
"548 1114 CURVE SMOOTH",
"275 1114 OFFCURVE",
"120 923 OFFCURVE",
"120 539 CURVE SMOOTH",
"120 180 OFFCURVE",
"291 -20 OFFCURVE",
"566 -20 CURVE SMOOTH"
);
},
{
closed = 1;
nodes = (
"274 882 OFFCURVE",
"359 1030 OFFCURVE",
"544 1030 CURVE SMOOTH",
"727 1030 OFFCURVE",
"806 871 OFFCURVE",
"806 631 CURVE",
"259 631 LINE"
);
}
);
width = 1052;
},
{
layerId = "7FEA46FF-516C-4946-9F17-9EEA76F5F564";
paths = (
{
closed = 1;
nodes = (
"709 -20 OFFCURVE",
"799 10 OFFCURVE",
"859 50 CURVE SMOOTH",
"919 90 OFFCURVE",
"948 141 OFFCURVE",
"948 182 CURVE SMOOTH",
"948 217 OFFCURVE",
"928 244 OFFCURVE",
"909 252 CURVE",
"857 171 OFFCURVE",
"745 109 OFFCURVE",
"616 109 CURVE SMOOTH",
"519 109 OFFCURVE",
"444 141 OFFCURVE",
"393 210 CURVE SMOOTH",
"341 279 OFFCURVE",
"314 386 OFFCURVE",
"311 535 CURVE",
"993 535 LINE",
"993 629 LINE SMOOTH",
"993 790 OFFCURVE",
"952 913 OFFCURVE",
"879 995 CURVE SMOOTH",
"806 1077 OFFCURVE",
"699 1118 OFFCURVE",
"567 1118 CURVE SMOOTH",
"276 1118 OFFCURVE",
"113 924 OFFCURVE",
"113 541 CURVE SMOOTH",
"113 364 OFFCURVE",
"158 223 OFFCURVE",
"239 127 CURVE SMOOTH",
"320 31 OFFCURVE",
"440 -20 OFFCURVE",
"588 -20 CURVE SMOOTH"
);
},
{
closed = 1;
nodes = (
"646 1008 OFFCURVE",
"701 972 OFFCURVE",
"736 908 CURVE SMOOTH",
"771 844 OFFCURVE",
"786 753 OFFCURVE",
"786 645 CURVE",
"315 645 LINE",
"330 882 OFFCURVE",
"411 1008 OFFCURVE",
"563 1008 CURVE SMOOTH"
);
}
);
width = 1096;
},
{
layerId = "3CCD85FA-69E6-46C4-A32D-64775BF55ABF";
paths = (
{
closed = 1;
nodes = (
"766 -20 OFFCURVE",
"865 6 OFFCURVE",
"932 46 CURVE SMOOTH",
"999 86 OFFCURVE",
"1030 140 OFFCURVE",
"1030 199 CURVE SMOOTH",
"1030 246 OFFCURVE",
"1012 279 OFFCURVE",
"975 299 CURVE",
"924 199 OFFCURVE",
"821 133 OFFCURVE",
"686 133 CURVE SMOOTH",
"601 133 OFFCURVE",
"535 163 OFFCURVE",
"489 227 CURVE SMOOTH",
"443 291 OFFCURVE",
"416 389 OFFCURVE",
"412 526 CURVE",
"1083 526 LINE",
"1083 631 LINE SMOOTH",
"1083 794 OFFCURVE",
"1038 916 OFFCURVE",
"955 999 CURVE SMOOTH",
"872 1082 OFFCURVE",
"752 1124 OFFCURVE",
"604 1124 CURVE SMOOTH",
"443 1124 OFFCURVE",
"316 1075 OFFCURVE",
"229 978 CURVE SMOOTH",
"142 881 OFFCURVE",
"96 735 OFFCURVE",
"96 543 CURVE SMOOTH",
"96 364 OFFCURVE",
"142 224 OFFCURVE",
"231 128 CURVE SMOOTH",
"320 32 OFFCURVE",
"454 -20 OFFCURVE",
"627 -20 CURVE SMOOTH"
);
},
{
closed = 1;
nodes = (
"667 991 OFFCURVE",
"707 959 OFFCURVE",
"733 902 CURVE SMOOTH",
"759 845 OFFCURVE",
"770 761 OFFCURVE",
"770 657 CURVE",
"416 657 LINE",
"423 876 OFFCURVE",
"493 991 OFFCURVE",
"608 991 CURVE SMOOTH"
);
}
);
width = 1169;
},
{
layerId = "6A9350D6-C757-41BD-9D0D-806F72644A83";
paths = (
{
closed = 1;
nodes = (
"873 -20 OFFCURVE",
"1004 35 OFFCURVE",
"1064 115 CURVE SMOOTH",
"1094 154 OFFCURVE",
"1109 195 OFFCURVE",
"1109 236 CURVE SMOOTH",
"1109 287 OFFCURVE",
"1071 327 OFFCURVE",
"1019 340 CURVE",
"975 231 OFFCURVE",
"896 152 OFFCURVE",
"757 152 CURVE SMOOTH",
"582 152 OFFCURVE",
"491 264 OFFCURVE",
"484 520 CURVE",
"1148 520 LINE",
"1148 633 LINE SMOOTH",
"1148 958 OFFCURVE",
"951 1128 OFFCURVE",
"630 1128 CURVE SMOOTH",
"281 1128 OFFCURVE",
"83 930 OFFCURVE",
"83 545 CURVE SMOOTH",
"83 186 OFFCURVE",
"267 -20 OFFCURVE",
"654 -20 CURVE SMOOTH"
);
},
{
closed = 1;
nodes = (
"489 768 OFFCURVE",
"503 846 OFFCURVE",
"532 899 CURVE SMOOTH",
"561 952 OFFCURVE",
"597 979 OFFCURVE",
"640 979 CURVE SMOOTH",
"681 979 OFFCURVE",
"710 952 OFFCURVE",
"729 898 CURVE SMOOTH",
"748 844 OFFCURVE",
"757 767 OFFCURVE",
"757 666 CURVE",
"489 666 LINE"
);
}
);
width = 1224;
}
);
note = glyph72;
unicode = 0065;
},
{
glyphname = glyph73;
lastChange = "2021-04-16 11:25:07 +0000";
layers = (
{
layerId = "0DE963AB-769B-4021-B20D-45864FAF5663";
paths = (
{
closed = 1;
nodes = (
"470 41 LINE SMOOTH",
"389 41 OFFCURVE",
"355 46 OFFCURVE",
"343 91 CURVE SMOOTH",
"336 114 OFFCURVE",
"333 150 OFFCURVE",
"333 201 CURVE SMOOTH",
"333 1047 LINE",
"628 1047 LINE",
"628 1098 LINE",
"333 1098 LINE",
"333 1229 LINE SMOOTH",
"333 1414 OFFCURVE",
"422 1530 OFFCURVE",
"581 1530 CURVE SMOOTH",
"717 1530 OFFCURVE",
"751 1448 OFFCURVE",
"751 1348 CURVE",
"760 1348 OFFCURVE",
"770 1354 OFFCURVE",
"781 1367 CURVE SMOOTH",
"791 1380 OFFCURVE",
"796 1400 OFFCURVE",
"796 1427 CURVE SMOOTH",
"796 1502 OFFCURVE",
"716 1581 OFFCURVE",
"585 1581 CURVE SMOOTH",
"392 1581 OFFCURVE",
"276 1453 OFFCURVE",
"276 1229 CURVE SMOOTH",
"276 1098 LINE",
"81 1098 LINE",
"81 1047 LINE",
"276 1047 LINE",
"276 201 LINE SMOOTH",
"276 116 OFFCURVE",
"271 61 OFFCURVE",
"229 49 CURVE SMOOTH",
"210 44 OFFCURVE",
"180 41 OFFCURVE",
"139 41 CURVE SMOOTH",
"73 41 LINE",
"73 0 LINE",
"581 0 LINE",
"581 41 LINE"
);
}
);
width = 657;
},
{
layerId = "8C5547AF-2EE0-40C3-888E-C5581C9C595C";
paths = (
{
closed = 1;
nodes = (
"546 66 LINE SMOOTH",
"475 66 OFFCURVE",
"430 73 OFFCURVE",
"409 117 CURVE SMOOTH",
"398 139 OFFCURVE",
"393 173 OFFCURVE",
"393 219 CURVE SMOOTH",
"393 1022 LINE",
"684 1022 LINE",
"684 1098 LINE",
"393 1098 LINE",
"393 1223 LINE SMOOTH",
"393 1400 OFFCURVE",
"453 1503 OFFCURVE",
"589 1503 CURVE SMOOTH",
"709 1503 OFFCURVE",
"741 1422 OFFCURVE",
"741 1331 CURVE",
"801 1331 OFFCURVE",
"851 1365 OFFCURVE",
"851 1432 CURVE SMOOTH",
"851 1511 OFFCURVE",
"777 1579 OFFCURVE",
"600 1579 CURVE SMOOTH",
"389 1579 OFFCURVE",
"262 1448 OFFCURVE",
"262 1212 CURVE SMOOTH",
"262 1098 LINE",
"71 1098 LINE",
"71 1022 LINE",
"262 1022 LINE",
"262 219 LINE SMOOTH",
"262 127 OFFCURVE",
"240 87 OFFCURVE",
"195 75 CURVE SMOOTH",
"172 69 OFFCURVE",
"143 66 OFFCURVE",
"108 66 CURVE SMOOTH",
"63 66 LINE",
"63 0 LINE",
"638 0 LINE",
"638 66 LINE"
);
}
);
width = 710;
},
{
layerId = "7FEA46FF-516C-4946-9F17-9EEA76F5F564";
paths = (
{
closed = 1;
nodes = (
"509 86 OFFCURVE",
"442 112 OFFCURVE",
"442 233 CURVE SMOOTH",
"442 1001 LINE",
"731 1001 LINE",
"731 1098 LINE",
"442 1098 LINE",
"442 1219 LINE SMOOTH",
"442 1381 OFFCURVE",
"474 1483 OFFCURVE",
"596 1483 CURVE SMOOTH",
"695 1483 OFFCURVE",
"731 1408 OFFCURVE",
"731 1319 CURVE",
"825 1319 OFFCURVE",
"899 1358 OFFCURVE",
"899 1434 CURVE SMOOTH",
"899 1477 OFFCURVE",
"880 1512 OFFCURVE",
"836 1537 CURVE SMOOTH",
"791 1562 OFFCURVE",
"719 1577 OFFCURVE",
"612 1577 CURVE SMOOTH",
"500 1577 OFFCURVE",
"410 1544 OFFCURVE",
"347 1480 CURVE SMOOTH",
"284 1416 OFFCURVE",
"250 1323 OFFCURVE",
"250 1200 CURVE SMOOTH",
"250 1098 LINE",
"63 1098 LINE",
"63 1001 LINE",
"250 1001 LINE",
"250 233 LINE SMOOTH",
"250 112 OFFCURVE",
"184 86 OFFCURVE",
"82 86 CURVE SMOOTH",
"55 86 LINE",
"55 0 LINE",
"688 0 LINE",
"688 86 LINE",
"610 86 LINE SMOOTH"
);
}
);
width = 756;
},
{
layerId = "3CCD85FA-69E6-46C4-A32D-64775BF55ABF";
paths = (
{
closed = 1;
nodes = (
"686 109 LINE SMOOTH",
"613 109 OFFCURVE",
"541 137 OFFCURVE",
"541 242 CURVE SMOOTH",
"541 958 LINE",
"823 958 LINE",
"823 1098 LINE",
"541 1098 LINE",
"541 1210 LINE SMOOTH",
"541 1363 OFFCURVE",
"557 1458 OFFCURVE",
"635 1458 CURVE SMOOTH",
"709 1458 OFFCURVE",
"737 1364 OFFCURVE",
"737 1292 CURVE",
"906 1292 OFFCURVE",
"989 1333 OFFCURVE",
"989 1425 CURVE SMOOTH",
"989 1468 OFFCURVE",
"969 1504 OFFCURVE",
"917 1532 CURVE SMOOTH",
"865 1559 OFFCURVE",
"779 1575 OFFCURVE",
"647 1575 CURVE SMOOTH",
"503 1575 OFFCURVE",
"398 1538 OFFCURVE",
"330 1470 CURVE SMOOTH",
"261 1401 OFFCURVE",
"229 1301 OFFCURVE",
"229 1174 CURVE SMOOTH",
"229 1098 LINE",
"47 1098 LINE",
"47 958 LINE",
"229 958 LINE",
"229 242 LINE SMOOTH",
"229 137 OFFCURVE",
"157 109 OFFCURVE",
"84 109 CURVE SMOOTH",
"39 109 LINE",
"39 0 LINE",
"782 0 LINE",
"782 109 LINE"
);
}
);
width = 834;
},
{
layerId = "6A9350D6-C757-41BD-9D0D-806F72644A83";
paths = (
{
closed = 1;
nodes = (
"741 125 LINE SMOOTH",
"708 125 OFFCURVE",
"665 132 OFFCURVE",
"635 167 CURVE SMOOTH",
"620 184 OFFCURVE",
"612 211 OFFCURVE",
"612 248 CURVE SMOOTH",
"612 928 LINE",
"890 928 LINE",
"890 1098 LINE",
"612 1098 LINE",
"612 1204 LINE SMOOTH",
"612 1297 OFFCURVE",
"620 1359 OFFCURVE",
"636 1392 CURVE SMOOTH",
"651 1424 OFFCURVE",
"672 1440 OFFCURVE",
"698 1440 CURVE SMOOTH",
"752 1440 OFFCURVE",
"765 1317 OFFCURVE",
"765 1260 CURVE",
"889 1260 OFFCURVE",
"979 1284 OFFCURVE",
"1012 1342 CURVE SMOOTH",
"1025 1366 OFFCURVE",
"1032 1392 OFFCURVE",
"1032 1419 CURVE SMOOTH",
"1032 1466 OFFCURVE",
"1004 1516 OFFCURVE",
"901 1549 CURVE SMOOTH",
"849 1565 OFFCURVE",
"772 1573 OFFCURVE",
"671 1573 CURVE SMOOTH",
"335 1573 OFFCURVE",
"214 1416 OFFCURVE",
"214 1153 CURVE SMOOTH",
"214 1098 LINE",
"34 1098 LINE",
"34 928 LINE",
"214 928 LINE",
"214 248 LINE SMOOTH",
"214 175 OFFCURVE",
"176 144 OFFCURVE",
"134 133 CURVE SMOOTH",
"113 128 OFFCURVE",
"96 125 OFFCURVE",
"85 125 CURVE SMOOTH",
"26 125 LINE",
"26 0 LINE",
"851 0 LINE",
"851 125 LINE"
);
}
);
width = 890;
}
);
note = glyph73;
unicode = 0066;
},
{
glyphname = glyph74;
lastChange = "2021-04-16 11:25:07 +0000";
layers = (
{
layerId = "0DE963AB-769B-4021-B20D-45864FAF5663";
paths = (
{
closed = 1;
nodes = (
"785 -492 OFFCURVE",
"938 -349 OFFCURVE",
"938 -133 CURVE SMOOTH",
"938 52 OFFCURVE",
"839 145 OFFCURVE",
"641 145 CURVE SMOOTH",
"499 145 LINE SMOOTH",
"390 145 OFFCURVE",
"295 167 OFFCURVE",
"295 258 CURVE SMOOTH",
"295 334 OFFCURVE",
"334 383 OFFCURVE",
"381 422 CURVE",
"402 411 OFFCURVE",
"479 401 OFFCURVE",
"512 401 CURVE SMOOTH",
"724 401 OFFCURVE",
"833 541 OFFCURVE",
"833 745 CURVE SMOOTH",
"833 854 OFFCURVE",
"799 941 OFFCURVE",
"764 993 CURVE",
"815 1045 OFFCURVE",
"848 1083 OFFCURVE",
"911 1083 CURVE SMOOTH",
"929 1083 OFFCURVE",
"942 1075 OFFCURVE",
"951 1058 CURVE SMOOTH",
"960 1041 OFFCURVE",
"964 1013 OFFCURVE",
"964 975 CURVE",
"993 975 OFFCURVE",
"1007 1000 OFFCURVE",
"1007 1051 CURVE SMOOTH",
"1007 1099 OFFCURVE",
"979 1141 OFFCURVE",
"911 1141 CURVE SMOOTH",
"832 1141 OFFCURVE",
"772 1071 OFFCURVE",
"733 1030 CURVE",
"684 1077 OFFCURVE",
"609 1110 OFFCURVE",
"512 1110 CURVE SMOOTH",
"293 1110 OFFCURVE",
"174 963 OFFCURVE",
"174 762 CURVE SMOOTH",
"174 637 OFFCURVE",
"215 505 OFFCURVE",
"336 442 CURVE",
"303 418 OFFCURVE",
"237 347 OFFCURVE",
"237 270 CURVE SMOOTH",
"237 191 OFFCURVE",
"284 148 OFFCURVE",
"344 129 CURVE",
"267 116 OFFCURVE",
"186 66 OFFCURVE",
"137 -18 CURVE SMOOTH",
"112 -59 OFFCURVE",
"100 -108 OFFCURVE",
"100 -164 CURVE SMOOTH",
"100 -365 OFFCURVE",
"237 -492 OFFCURVE",
"485 -492 CURVE SMOOTH"
);
},
{
closed = 1;
nodes = (
"345 453 OFFCURVE",
"231 544 OFFCURVE",
"231 745 CURVE SMOOTH",
"231 966 OFFCURVE",
"345 1059 OFFCURVE",
"506 1059 CURVE SMOOTH",
"678 1059 OFFCURVE",
"776 965 OFFCURVE",
"776 748 CURVE SMOOTH",
"776 529 OFFCURVE",
"671 453 OFFCURVE",
"506 453 CURVE SMOOTH"
);
},
{
closed = 1;
nodes = (
"326 -440 OFFCURVE",
"232 -386 OFFCURVE",
"189 -303 CURVE SMOOTH",
"168 -261 OFFCURVE",
"157 -216 OFFCURVE",
"157 -168 CURVE SMOOTH",
"157 23 OFFCURVE",
"286 94 OFFCURVE",
"450 94 CURVE SMOOTH",
"637 94 LINE SMOOTH",
"794 94 OFFCURVE",
"880 42 OFFCURVE",
"880 -135 CURVE SMOOTH",
"880 -332 OFFCURVE",
"753 -440 OFFCURVE",
"493 -440 CURVE SMOOTH"
);
}
);
width = 1044;
},
{
layerId = "8C5547AF-2EE0-40C3-888E-C5581C9C595C";
paths = (
{
closed = 1;
nodes = (
"818 -492 OFFCURVE",
"980 -346 OFFCURVE",
"980 -119 CURVE SMOOTH",
"980 61 OFFCURVE",
"882 174 OFFCURVE",
"661 174 CURVE SMOOTH",
"470 174 LINE SMOOTH",
"361 174 OFFCURVE",
"309 198 OFFCURVE",
"309 266 CURVE SMOOTH",
"309 337 OFFCURVE",
"350 381 OFFCURVE",
"399 412 CURVE",
"423 404 OFFCURVE",
"485 397 OFFCURVE",
"517 397 CURVE SMOOTH",
"750 397 OFFCURVE",
"866 544 OFFCURVE",
"866 745 CURVE SMOOTH",
"866 857 OFFCURVE",
"834 938 OFFCURVE",
"790 993 CURVE",
"829 1026 OFFCURVE",
"858 1049 OFFCURVE",
"905 1049 CURVE SMOOTH",
"950 1049 OFFCURVE",
"966 1012 OFFCURVE",
"966 961 CURVE",
"1021 961 OFFCURVE",
"1046 998 OFFCURVE",
"1046 1053 CURVE SMOOTH",
"1046 1108 OFFCURVE",
"1012 1151 OFFCURVE",
"935 1151 CURVE SMOOTH",
"851 1151 OFFCURVE",
"782 1084 OFFCURVE",
"747 1040 CURVE",
"700 1081 OFFCURVE",
"616 1114 OFFCURVE",
"517 1114 CURVE SMOOTH",
"277 1114 OFFCURVE",
"155 967 OFFCURVE",
"155 750 CURVE SMOOTH",
"155 618 OFFCURVE",
"212 491 OFFCURVE",
"329 436 CURVE",
"264 396 OFFCURVE",
"210 331 OFFCURVE",
"210 252 CURVE SMOOTH",
"210 167 OFFCURVE",
"264 119 OFFCURVE",
"321 96 CURVE",
"236 83 OFFCURVE",
"155 35 OFFCURVE",
"107 -41 CURVE SMOOTH",
"83 -79 OFFCURVE",
"71 -125 OFFCURVE",
"71 -180 CURVE SMOOTH",
"71 -375 OFFCURVE",
"208 -492 OFFCURVE",
"479 -492 CURVE SMOOTH"
);
},
{
closed = 1;
nodes = (
"370 473 OFFCURVE",
"286 560 OFFCURVE",
"286 745 CURVE SMOOTH",
"286 948 OFFCURVE",
"367 1036 OFFCURVE",
"511 1036 CURVE SMOOTH",
"662 1036 OFFCURVE",
"735 947 OFFCURVE",
"735 748 CURVE SMOOTH",
"735 551 OFFCURVE",
"662 473 OFFCURVE",
"511 473 CURVE SMOOTH"
);
},
{
closed = 1;
nodes = (
"332 -414 OFFCURVE",
"250 -366 OFFCURVE",
"215 -294 CURVE SMOOTH",
"197 -258 OFFCURVE",
"188 -218 OFFCURVE",
"188 -174 CURVE SMOOTH",
"188 -57 OFFCURVE",
"240 3 OFFCURVE",
"318 31 CURVE SMOOTH",
"357 44 OFFCURVE",
"399 51 OFFCURVE",
"444 51 CURVE SMOOTH",
"638 51 LINE SMOOTH",
"783 51 OFFCURVE",
"862 10 OFFCURVE",
"862 -139 CURVE SMOOTH",
"862 -308 OFFCURVE",
"761 -414 OFFCURVE",
"485 -414 CURVE SMOOTH"
);
}
);
width = 1075;
},
{
layerId = "7FEA46FF-516C-4946-9F17-9EEA76F5F564";
paths = (
{
closed = 1;
nodes = (
"1077 1116 OFFCURVE",
"1033 1161 OFFCURVE",
"956 1161 CURVE SMOOTH",
"869 1161 OFFCURVE",
"805 1101 OFFCURVE",
"758 1051 CURVE",
"714 1089 OFFCURVE",
"613 1118 OFFCURVE",
"524 1118 CURVE SMOOTH",
"395 1118 OFFCURVE",
"299 1082 OFFCURVE",
"235 1017 CURVE SMOOTH",
"171 952 OFFCURVE",
"139 858 OFFCURVE",
"139 739 CURVE SMOOTH",
"139 604 OFFCURVE",
"206 478 OFFCURVE",
"324 430 CURVE",
"231 374 OFFCURVE",
"190 319 OFFCURVE",
"190 238 CURVE SMOOTH",
"190 156 OFFCURVE",
"243 96 OFFCURVE",
"303 70 CURVE",
"162 45 OFFCURVE",
"47 -40 OFFCURVE",
"47 -193 CURVE SMOOTH",
"47 -381 OFFCURVE",
"188 -492 OFFCURVE",
"473 -492 CURVE SMOOTH",
"658 -492 OFFCURVE",
"795 -455 OFFCURVE",
"884 -389 CURVE SMOOTH",
"973 -323 OFFCURVE",
"1016 -226 OFFCURVE",
"1016 -109 CURVE SMOOTH",
"1016 -21 OFFCURVE",
"993 57 OFFCURVE",
"939 111 CURVE SMOOTH",
"885 165 OFFCURVE",
"801 197 OFFCURVE",
"678 197 CURVE SMOOTH",
"446 197 LINE SMOOTH",
"373 197 OFFCURVE",
"319 207 OFFCURVE",
"319 274 CURVE SMOOTH",
"319 335 OFFCURVE",
"364 372 OFFCURVE",
"418 399 CURVE",
"438 397 OFFCURVE",
"490 393 OFFCURVE",
"524 393 CURVE SMOOTH",
"648 393 OFFCURVE",
"741 430 OFFCURVE",
"802 493 CURVE SMOOTH",
"862 556 OFFCURVE",
"893 644 OFFCURVE",
"893 745 CURVE SMOOTH",
"893 862 OFFCURVE",
"860 936 OFFCURVE",
"813 993 CURVE",
"840 1010 OFFCURVE",
"866 1018 OFFCURVE",
"901 1018 CURVE SMOOTH",
"951 1018 OFFCURVE",
"969 985 OFFCURVE",
"969 948 CURVE",
"1040 948 OFFCURVE",
"1077 993 OFFCURVE",
"1077 1055 CURVE SMOOTH"
);
},
{
closed = 1;
nodes = (
"332 929 OFFCURVE",
"384 1018 OFFCURVE",
"516 1018 CURVE SMOOTH",
"649 1018 OFFCURVE",
"700 932 OFFCURVE",
"700 748 CURVE SMOOTH",
"700 579 OFFCURVE",
"658 492 OFFCURVE",
"518 492 CURVE SMOOTH",
"386 492 OFFCURVE",
"332 570 OFFCURVE",
"332 745 CURVE SMOOTH"
);
},
{
closed = 1;
nodes = (
"213 -27 OFFCURVE",
"310 14 OFFCURVE",
"438 14 CURVE SMOOTH",
"639 14 LINE SMOOTH",
"775 14 OFFCURVE",
"848 -18 OFFCURVE",
"848 -143 CURVE SMOOTH",
"848 -215 OFFCURVE",
"828 -277 OFFCURVE",
"772 -321 CURVE SMOOTH",
"716 -365 OFFCURVE",
"624 -391 OFFCURVE",
"477 -391 CURVE SMOOTH",
"373 -391 OFFCURVE",
"307 -368 OFFCURVE",
"267 -331 CURVE SMOOTH",
"227 -294 OFFCURVE",
"213 -240 OFFCURVE",
"213 -180 CURVE SMOOTH"
);
}
);
width = 1102;
},
{
layerId = "3CCD85FA-69E6-46C4-A32D-64775BF55ABF";
paths = (
{
closed = 1;
nodes = (
"1137 1127 OFFCURVE",
"1079 1176 OFFCURVE",
"989 1176 CURVE SMOOTH",
"888 1176 OFFCURVE",
"829 1118 OFFCURVE",
"776 1061 CURVE",
"715 1096 OFFCURVE",
"629 1124 OFFCURVE",
"532 1124 CURVE SMOOTH",
"240 1124 OFFCURVE",
"104 985 OFFCURVE",
"104 745 CURVE SMOOTH",
"104 588 OFFCURVE",
"188 473 OFFCURVE",
"313 428 CURVE",
"213 370 OFFCURVE",
"131 306 OFFCURVE",
"131 213 CURVE SMOOTH",
"131 119 OFFCURVE",
"202 62 OFFCURVE",
"281 31 CURVE",
"101 16 OFFCURVE",
"4 -60 OFFCURVE",
"4 -207 CURVE SMOOTH",
"4 -394 OFFCURVE",
"160 -492 OFFCURVE",
"483 -492 CURVE SMOOTH",
"686 -492 OFFCURVE",
"834 -454 OFFCURVE",
"932 -386 CURVE SMOOTH",
"1030 -317 OFFCURVE",
"1077 -217 OFFCURVE",
"1077 -90 CURVE SMOOTH",
"1077 7 OFFCURVE",
"1047 87 OFFCURVE",
"983 140 CURVE SMOOTH",
"918 193 OFFCURVE",
"820 223 OFFCURVE",
"684 223 CURVE SMOOTH",
"436 223 LINE SMOOTH",
"379 223 OFFCURVE",
"340 244 OFFCURVE",
"340 289 CURVE SMOOTH",
"340 335 OFFCURVE",
"377 373 OFFCURVE",
"414 393 CURVE",
"433 391 OFFCURVE",
"499 387 OFFCURVE",
"532 387 CURVE SMOOTH",
"675 387 OFFCURVE",
"778 425 OFFCURVE",
"846 489 CURVE SMOOTH",
"914 553 OFFCURVE",
"946 642 OFFCURVE",
"946 745 CURVE SMOOTH",
"946 840 OFFCURVE",
"902 945 OFFCURVE",
"846 1006 CURVE",
"861 1017 OFFCURVE",
"890 1028 OFFCURVE",
"913 1028 CURVE SMOOTH",
"956 1028 OFFCURVE",
"991 995 OFFCURVE",
"991 942 CURVE",
"1093 942 OFFCURVE",
"1137 987 OFFCURVE",
"1137 1059 CURVE SMOOTH"
);
},
{
closed = 1;
nodes = (
"383 887 OFFCURVE",
"414 1001 OFFCURVE",
"524 1001 CURVE SMOOTH",
"636 1001 OFFCURVE",
"666 891 OFFCURVE",
"666 748 CURVE SMOOTH",
"666 606 OFFCURVE",
"638 508 OFFCURVE",
"526 508 CURVE SMOOTH",
"417 508 OFFCURVE",
"383 609 OFFCURVE",
"383 745 CURVE SMOOTH"
);
},
{
closed = 1;
nodes = (
"246 -79 OFFCURVE",
"332 -47 OFFCURVE",
"428 -47 CURVE SMOOTH",
"666 -47 LINE SMOOTH",
"777 -47 OFFCURVE",
"831 -77 OFFCURVE",
"831 -164 CURVE SMOOTH",
"831 -299 OFFCURVE",
"727 -369 OFFCURVE",
"487 -369 CURVE SMOOTH",
"330 -369 OFFCURVE",
"246 -316 OFFCURVE",
"246 -203 CURVE SMOOTH"
);
}
);
width = 1147;
},
{
layerId = "6A9350D6-C757-41BD-9D0D-806F72644A83";
paths = (
{
closed = 1;
nodes = (
"919 -477 OFFCURVE",
"1123 -324 OFFCURVE",
"1123 -76 CURVE SMOOTH",
"1123 137 OFFCURVE",
"978 244 OFFCURVE",
"689 244 CURVE SMOOTH",
"443 244 LINE SMOOTH",
"396 244 OFFCURVE",
"355 258 OFFCURVE",
"355 299 CURVE SMOOTH",
"355 340 OFFCURVE",
"391 383 OFFCURVE",
"418 391 CURVE",
"441 386 OFFCURVE",
"510 383 OFFCURVE",
"537 383 CURVE SMOOTH",
"865 383 OFFCURVE",
"1010 533 OFFCURVE",
"1010 760 CURVE SMOOTH",
"1010 880 OFFCURVE",
"957 963 OFFCURVE",
"885 1018 CURVE",
"914 1028 LINE SMOOTH",
"925 1032 OFFCURVE",
"938 1034 OFFCURVE",
"953 1034 CURVE SMOOTH",
"980 1034 OFFCURVE",
"1027 1011 OFFCURVE",
"1027 938 CURVE",
"1147 938 OFFCURVE",
"1186 1002 OFFCURVE",
"1186 1073 CURVE SMOOTH",
"1186 1144 OFFCURVE",
"1135 1202 OFFCURVE",
"1039 1202 CURVE SMOOTH",
"927 1202 OFFCURVE",
"868 1154 OFFCURVE",
"799 1079 CURVE",
"723 1115 OFFCURVE",
"646 1128 OFFCURVE",
"537 1128 CURVE SMOOTH",
"204 1128 OFFCURVE",
"58 993 OFFCURVE",
"58 750 CURVE SMOOTH",
"58 563 OFFCURVE",
"169 465 OFFCURVE",
"306 426 CURVE",
"175 361 OFFCURVE",
"87 296 OFFCURVE",
"87 201 CURVE SMOOTH",
"87 97 OFFCURVE",
"175 51 OFFCURVE",
"263 20 CURVE",
"86 9 OFFCURVE",
"-28 -83 OFFCURVE",
"-28 -211 CURVE SMOOTH",
"-28 -388 OFFCURVE",
"145 -477 OFFCURVE",
"490 -477 CURVE SMOOTH"
);
},
{
closed = 1;
nodes = (
"424 520 OFFCURVE",
"400 625 OFFCURVE",
"400 745 CURVE SMOOTH",
"400 828 OFFCURVE",
"412 909 OFFCURVE",
"450 955 CURVE SMOOTH",
"469 978 OFFCURVE",
"496 989 OFFCURVE",
"533 989 CURVE SMOOTH",
"609 989 OFFCURVE",
"643 941 OFFCURVE",
"655 867 CURVE SMOOTH",
"661 830 OFFCURVE",
"664 790 OFFCURVE",
"664 748 CURVE SMOOTH",
"664 663 OFFCURVE",
"655 592 OFFCURVE",
"618 551 CURVE SMOOTH",
"599 530 OFFCURVE",
"571 520 OFFCURVE",
"533 520 CURVE SMOOTH"
);
},
{
closed = 1;
nodes = (
"376 -338 OFFCURVE",
"271 -306 OFFCURVE",
"271 -213 CURVE SMOOTH",
"271 -142 OFFCURVE",
"310 -102 OFFCURVE",
"358 -86 CURVE SMOOTH",
"382 -78 OFFCURVE",
"404 -74 OFFCURVE",
"423 -74 CURVE SMOOTH",
"687 -74 LINE SMOOTH",
"779 -74 OFFCURVE",
"820 -120 OFFCURVE",
"820 -172 CURVE SMOOTH",
"820 -281 OFFCURVE",
"699 -338 OFFCURVE",
"496 -338 CURVE SMOOTH"
);
}
);
width = 1179;
}
);
note = glyph74;
unicode = 0067;
},
{
glyphname = glyph75;
lastChange = "2021-04-16 11:25:07 +0000";
layers = (
{
layerId = "0DE963AB-769B-4021-B20D-45864FAF5663";
paths = (
{
closed = 1;
nodes = (
"456 41 LINE SMOOTH",
"370 41 OFFCURVE",
"319 43 OFFCURVE",
"307 89 CURVE SMOOTH",
"301 110 OFFCURVE",
"298 145 OFFCURVE",
"298 193 CURVE SMOOTH",
"298 684 LINE SMOOTH",
"298 944 OFFCURVE",
"435 1059 OFFCURVE",
"642 1059 CURVE SMOOTH",
"834 1059 OFFCURVE",
"915 958 OFFCURVE",
"915 737 CURVE SMOOTH",
"915 0 LINE",
"1165 0 LINE",
"1165 41 LINE",
"1130 41 LINE SMOOTH",
"1045 41 OFFCURVE",
"991 43 OFFCURVE",
"980 89 CURVE SMOOTH",
"975 110 OFFCURVE",
"972 145 OFFCURVE",
"972 193 CURVE SMOOTH",
"972 741 LINE SMOOTH",
"972 1001 OFFCURVE",
"855 1110 OFFCURVE",
"642 1110 CURVE SMOOTH",
"501 1110 OFFCURVE",
"407 1061 OFFCURVE",
"355 994 CURVE SMOOTH",
"328 961 OFFCURVE",
"309 926 OFFCURVE",
"296 891 CURVE",
"292 891 LINE",
"295 915 OFFCURVE",
"298 952 OFFCURVE",
"298 987 CURVE SMOOTH",
"298 1556 LINE",
"52 1556 LINE",
"52 1516 LINE",
"104 1516 LINE SMOOTH",
"185 1516 OFFCURVE",
"222 1510 OFFCURVE",
"233 1466 CURVE SMOOTH",
"238 1443 OFFCURVE",
"241 1407 OFFCURVE",
"241 1356 CURVE SMOOTH",
"241 193 LINE SMOOTH",
"241 109 OFFCURVE",
"239 60 OFFCURVE",
"192 49 CURVE SMOOTH",
"170 44 OFFCURVE",
"134 41 OFFCURVE",
"83 41 CURVE SMOOTH",
"32 41 LINE",
"32 0 LINE",
"495 0 LINE",
"495 41 LINE"
);
}
);
width = 1218;
},
{
layerId = "8C5547AF-2EE0-40C3-888E-C5581C9C595C";
paths = (
{
closed = 1;
nodes = (
"523 66 LINE SMOOTH",
"406 66 OFFCURVE",
"362 78 OFFCURVE",
"362 209 CURVE SMOOTH",
"362 668 LINE SMOOTH",
"362 897 OFFCURVE",
"467 1020 OFFCURVE",
"652 1020 CURVE SMOOTH",
"831 1020 OFFCURVE",
"898 917 OFFCURVE",
"898 721 CURVE SMOOTH",
"898 0 LINE",
"1208 0 LINE",
"1208 66 LINE",
"1187 66 LINE SMOOTH",
"1111 66 OFFCURVE",
"1065 74 OFFCURVE",
"1045 116 CURVE SMOOTH",
"1034 137 OFFCURVE",
"1029 170 OFFCURVE",
"1029 215 CURVE SMOOTH",
"1029 727 LINE SMOOTH",
"1029 1000 OFFCURVE",
"907 1114 OFFCURVE",
"683 1114 CURVE SMOOTH",
"508 1114 OFFCURVE",
"411 1028 OFFCURVE",
"362 913 CURVE",
"353 913 LINE",
"357 925 OFFCURVE",
"362 996 OFFCURVE",
"362 1053 CURVE SMOOTH",
"362 1556 LINE",
"44 1556 LINE",
"44 1491 LINE",
"75 1491 LINE SMOOTH",
"182 1491 OFFCURVE",
"231 1476 OFFCURVE",
"231 1341 CURVE SMOOTH",
"231 215 LINE SMOOTH",
"231 82 OFFCURVE",
"184 66 OFFCURVE",
"67 66 CURVE SMOOTH",
"34 66 LINE",
"34 0 LINE",
"546 0 LINE",
"546 66 LINE"
);
}
);
width = 1263;
},
{
layerId = "7FEA46FF-516C-4946-9F17-9EEA76F5F564";
paths = (
{
closed = 1;
nodes = (
"481 86 OFFCURVE",
"414 109 OFFCURVE",
"414 223 CURVE SMOOTH",
"414 655 LINE SMOOTH",
"414 755 OFFCURVE",
"434 839 OFFCURVE",
"475 897 CURVE SMOOTH",
"515 955 OFFCURVE",
"577 987 OFFCURVE",
"662 987 CURVE SMOOTH",
"828 987 OFFCURVE",
"887 885 OFFCURVE",
"887 707 CURVE SMOOTH",
"887 0 LINE",
"1243 0 LINE",
"1243 86 LINE",
"1237 86 LINE SMOOTH",
"1137 86 OFFCURVE",
"1079 113 OFFCURVE",
"1079 233 CURVE SMOOTH",
"1079 717 LINE SMOOTH",
"1079 857 OFFCURVE",
"1046 958 OFFCURVE",
"985 1023 CURVE SMOOTH",
"924 1087 OFFCURVE",
"833 1118 OFFCURVE",
"717 1118 CURVE SMOOTH",
"578 1118 OFFCURVE",
"477 1056 OFFCURVE",
"416 932 CURVE",
"406 932 LINE",
"407 951 OFFCURVE",
"409 971 OFFCURVE",
"410 991 CURVE SMOOTH",
"413 1026 OFFCURVE",
"414 1069 OFFCURVE",
"414 1106 CURVE SMOOTH",
"414 1556 LINE",
"37 1556 LINE",
"37 1470 LINE",
"53 1470 LINE SMOOTH",
"152 1470 OFFCURVE",
"221 1446 OFFCURVE",
"221 1331 CURVE SMOOTH",
"221 233 LINE SMOOTH",
"221 112 OFFCURVE",
"155 86 OFFCURVE",
"53 86 CURVE SMOOTH",
"37 86 LINE",
"37 0 LINE",
"588 0 LINE",
"588 86 LINE",
"582 86 LINE SMOOTH"
);
}
);
width = 1300;
},
{
layerId = "3CCD85FA-69E6-46C4-A32D-64775BF55ABF";
paths = (
{
closed = 1;
nodes = (
"1307 109 LINE SMOOTH",
"1207 109 OFFCURVE",
"1169 135 OFFCURVE",
"1169 254 CURVE SMOOTH",
"1169 729 LINE SMOOTH",
"1169 868 OFFCURVE",
"1138 966 OFFCURVE",
"1080 1030 CURVE SMOOTH",
"1022 1094 OFFCURVE",
"936 1124 OFFCURVE",
"831 1124 CURVE SMOOTH",
"691 1124 OFFCURVE",
"596 1104 OFFCURVE",
"518 958 CURVE",
"500 958 LINE",
"503 987 OFFCURVE",
"505 1017 OFFCURVE",
"508 1048 CURVE SMOOTH",
"512 1100 OFFCURVE",
"516 1166 OFFCURVE",
"516 1219 CURVE SMOOTH",
"516 1556 LINE",
"35 1556 LINE",
"35 1448 LINE",
"59 1448 LINE SMOOTH",
"131 1448 OFFCURVE",
"205 1423 OFFCURVE",
"205 1323 CURVE SMOOTH",
"205 250 LINE SMOOTH",
"205 133 OFFCURVE",
"146 109 OFFCURVE",
"45 109 CURVE SMOOTH",
"41 109 LINE",
"41 0 LINE",
"670 0 LINE",
"670 109 LINE",
"664 109 LINE SMOOTH",
"568 109 OFFCURVE",
"516 132 OFFCURVE",
"516 242 CURVE SMOOTH",
"516 633 LINE SMOOTH",
"516 797 OFFCURVE",
"558 950 OFFCURVE",
"694 950 CURVE SMOOTH",
"821 950 OFFCURVE",
"858 839 OFFCURVE",
"858 674 CURVE SMOOTH",
"858 0 LINE",
"1313 0 LINE",
"1313 109 LINE"
);
}
);
width = 1366;
},
{
layerId = "6A9350D6-C757-41BD-9D0D-806F72644A83";
paths = (
{
closed = 1;
nodes = (
"720 125 LINE SMOOTH",
"631 125 OFFCURVE",
"593 144 OFFCURVE",
"593 256 CURVE SMOOTH",
"593 616 LINE SMOOTH",
"593 712 OFFCURVE",
"601 813 OFFCURVE",
"637 877 CURVE SMOOTH",
"654 908 OFFCURVE",
"681 924 OFFCURVE",
"718 924 CURVE SMOOTH",
"761 924 OFFCURVE",
"791 900 OFFCURVE",
"809 852 CURVE SMOOTH",
"826 804 OFFCURVE",
"835 736 OFFCURVE",
"835 649 CURVE SMOOTH",
"835 0 LINE",
"1363 0 LINE",
"1363 125 LINE",
"1355 125 LINE SMOOTH",
"1262 125 OFFCURVE",
"1234 143 OFFCURVE",
"1234 268 CURVE SMOOTH",
"1234 737 LINE SMOOTH",
"1234 1010 OFFCURVE",
"1129 1128 OFFCURVE",
"902 1128 CURVE SMOOTH",
"725 1128 OFFCURVE",
"646 1055 OFFCURVE",
"597 979 CURVE",
"581 979 LINE",
"586 1050 OFFCURVE",
"591 1162 OFFCURVE",
"591 1274 CURVE SMOOTH",
"591 1556 LINE",
"32 1556 LINE",
"32 1432 LINE",
"63 1432 LINE SMOOTH",
"84 1432 OFFCURVE",
"133 1423 OFFCURVE",
"167 1392 CURVE SMOOTH",
"184 1376 OFFCURVE",
"192 1351 OFFCURVE",
"192 1317 CURVE SMOOTH",
"192 262 LINE SMOOTH",
"192 142 OFFCURVE",
"130 125 OFFCURVE",
"50 125 CURVE SMOOTH",
"42 125 LINE",
"42 0 LINE",
"728 0 LINE",
"728 125 LINE"
);
}
);
width = 1415;
}
);
note = glyph75;
unicode = 0068;
},
{
glyphname = glyph76;
lastChange = "2021-04-16 11:25:07 +0000";
layers = (
{
layerId = "0DE963AB-769B-4021-B20D-45864FAF5663";
paths = (
{
closed = 1;
nodes = (
"316 1348 OFFCURVE",
"327 1353 OFFCURVE",
"336 1364 CURVE SMOOTH",
"344 1375 OFFCURVE",
"348 1397 OFFCURVE",
"348 1430 CURVE SMOOTH",
"348 1493 OFFCURVE",
"330 1511 OFFCURVE",
"301 1511 CURVE SMOOTH",
"270 1511 OFFCURVE",
"253 1493 OFFCURVE",
"253 1430 CURVE SMOOTH",
"253 1363 OFFCURVE",
"270 1348 OFFCURVE",
"301 1348 CURVE SMOOTH"
);
},
{
closed = 1;
nodes = (
"497 41 LINE SMOOTH",
"411 41 OFFCURVE",
"360 43 OFFCURVE",
"348 89 CURVE SMOOTH",
"342 110 OFFCURVE",
"339 145 OFFCURVE",
"339 193 CURVE SMOOTH",
"339 1098 LINE",
"108 1098 LINE",
"108 1057 LINE",
"145 1057 LINE SMOOTH",
"226 1057 OFFCURVE",
"263 1051 OFFCURVE",
"274 1007 CURVE SMOOTH",
"279 984 OFFCURVE",
"282 948 OFFCURVE",
"282 897 CURVE SMOOTH",
"282 193 LINE SMOOTH",
"282 109 OFFCURVE",
"280 60 OFFCURVE",
"233 49 CURVE SMOOTH",
"211 44 OFFCURVE",
"175 41 OFFCURVE",
"124 41 CURVE SMOOTH",
"63 41 LINE",
"63 0 LINE",
"559 0 LINE",
"559 41 LINE"
);
}
);
width = 573;
},
{
layerId = "8C5547AF-2EE0-40C3-888E-C5581C9C595C";
paths = (
{
closed = 1;
nodes = (
"364 1323 OFFCURVE",
"401 1347 OFFCURVE",
"401 1430 CURVE SMOOTH",
"401 1511 OFFCURVE",
"364 1536 OFFCURVE",
"317 1536 CURVE SMOOTH",
"268 1536 OFFCURVE",
"231 1511 OFFCURVE",
"231 1430 CURVE SMOOTH",
"231 1347 OFFCURVE",
"268 1323 OFFCURVE",
"317 1323 CURVE SMOOTH"
);
},
{
closed = 1;
nodes = (
"555 66 LINE SMOOTH",
"438 66 OFFCURVE",
"391 82 OFFCURVE",
"391 215 CURVE SMOOTH",
"391 1098 LINE",
"86 1098 LINE",
"86 1032 LINE",
"106 1032 LINE SMOOTH",
"210 1032 OFFCURVE",
"260 1016 OFFCURVE",
"260 883 CURVE SMOOTH",
"260 209 LINE SMOOTH",
"260 78 OFFCURVE",
"213 66 OFFCURVE",
"96 66 CURVE SMOOTH",
"55 66 LINE",
"55 0 LINE",
"598 0 LINE",
"598 66 LINE"
);
}
);
width = 618;
},
{
layerId = "7FEA46FF-516C-4946-9F17-9EEA76F5F564";
paths = (
{
closed = 1;
nodes = (
"213 1341 OFFCURVE",
"258 1303 OFFCURVE",
"330 1303 CURVE SMOOTH",
"399 1303 OFFCURVE",
"446 1341 OFFCURVE",
"446 1430 CURVE SMOOTH",
"446 1520 OFFCURVE",
"399 1556 OFFCURVE",
"330 1556 CURVE SMOOTH",
"258 1556 OFFCURVE",
"213 1520 OFFCURVE",
"213 1430 CURVE SMOOTH"
);
},
{
closed = 1;
nodes = (
"629 0 LINE",
"629 86 LINE",
"602 86 LINE SMOOTH",
"501 86 OFFCURVE",
"434 112 OFFCURVE",
"434 233 CURVE SMOOTH",
"434 1098 LINE",
"68 1098 LINE",
"68 1012 LINE",
"74 1012 LINE SMOOTH",
"173 1012 OFFCURVE",
"242 986 OFFCURVE",
"242 872 CURVE SMOOTH",
"242 223 LINE SMOOTH",
"242 109 OFFCURVE",
"175 86 OFFCURVE",
"74 86 CURVE SMOOTH",
"47 86 LINE",
"47 0 LINE"
);
}
);
width = 655;
},
{
layerId = "3CCD85FA-69E6-46C4-A32D-64775BF55ABF";
paths = (
{
closed = 1;
nodes = (
"176 1331 OFFCURVE",
"250 1282 OFFCURVE",
"350 1282 CURVE SMOOTH",
"446 1282 OFFCURVE",
"526 1331 OFFCURVE",
"526 1430 CURVE SMOOTH",
"526 1531 OFFCURVE",
"447 1577 OFFCURVE",
"350 1577 CURVE SMOOTH",
"250 1577 OFFCURVE",
"176 1531 OFFCURVE",
"176 1430 CURVE SMOOTH"
);
},
{
closed = 1;
nodes = (
"686 0 LINE",
"686 109 LINE",
"662 109 LINE SMOOTH",
"588 109 OFFCURVE",
"516 136 OFFCURVE",
"516 242 CURVE SMOOTH",
"516 1098 LINE",
"35 1098 LINE",
"35 989 LINE",
"59 989 LINE SMOOTH",
"131 989 OFFCURVE",
"205 964 OFFCURVE",
"205 864 CURVE SMOOTH",
"205 242 LINE SMOOTH",
"205 136 OFFCURVE",
"133 109 OFFCURVE",
"59 109 CURVE SMOOTH",
"35 109 LINE",
"35 0 LINE"
);
}
);
width = 721;
},
{
layerId = "6A9350D6-C757-41BD-9D0D-806F72644A83";
paths = (
{
closed = 1;
nodes = (
"483 1268 OFFCURVE",
"585 1326 OFFCURVE",
"585 1430 CURVE SMOOTH",
"585 1538 OFFCURVE",
"483 1591 OFFCURVE",
"366 1591 CURVE SMOOTH",
"243 1591 OFFCURVE",
"149 1538 OFFCURVE",
"149 1430 CURVE SMOOTH",
"149 1326 OFFCURVE",
"243 1268 OFFCURVE",
"366 1268 CURVE SMOOTH"
);
},
{
closed = 1;
nodes = (
"704 125 LINE SMOOTH",
"628 125 OFFCURVE",
"575 159 OFFCURVE",
"575 268 CURVE SMOOTH",
"575 1098 LINE",
"10 1098 LINE",
"10 973 LINE",
"49 973 LINE SMOOTH",
"122 973 OFFCURVE",
"178 938 OFFCURVE",
"178 838 CURVE SMOOTH",
"178 276 LINE SMOOTH",
"178 161 OFFCURVE",
"125 125 OFFCURVE",
"49 125 CURVE SMOOTH",
"24 125 LINE",
"24 0 LINE",
"727 0 LINE",
"727 125 LINE"
);
}
);
width = 770;
}
);
note = glyph76;
unicode = 0069;
},
